<svg width="266.7mm" height="95.25mm" viewBox="0 0 266.7 95.25" xmlns="http://www.w3.org/2000/svg"><g id="svgGroup" stroke-linecap="round" fill-rule="evenodd" font-size="9pt" stroke="#000" stroke-width="0.25mm" fill="none" style="stroke:#000;stroke-width:0.25mm;fill:none"><path d="M 0 95.25 L 266.7 95.25 L 266.7 0 L 0 0 L 0 95.25 Z M 245.913 40.625 L 258.913 40.625 A 0.5 0.5 0 0 1 259.413 41.125 L 259.413 54.125 A 0.5 0.5 0 0 1 258.913 54.625 L 245.913 54.625 A 0.5 0.5 0 0 1 245.413 54.125 L 245.413 41.125 A 0.5 0.5 0 0 1 245.913 40.625 Z M 22.075 2.525 L 35.075 2.525 A 0.5 0.5 0 0 1 35.575 3.025 L 35.575 16.025 A 0.5 0.5 0 0 1 35.075 16.525 L 22.075 16.525 A 0.5 0.5 0 0 1 21.575 16.025 L 21.575 3.025 A 0.5 0.5 0 0 1 22.075 2.525 Z M 5.406 21.575 L 18.406 21.575 A 0.5 0.5 0 0 1 18.906 22.075 L 18.906 35.075 A 0.5 0.5 0 0 1 18.406 35.575 L 5.406 35.575 A 0.5 0.5 0 0 1 4.906 35.075 L 4.906 22.075 A 0.5 0.5 0 0 1 5.406 21.575 Z M 26.838 21.575 L 39.838 21.575 A 0.5 0.5 0 0 1 40.338 22.075 L 40.338 35.075 A 0.5 0.5 0 0 1 39.838 35.575 L 26.838 35.575 A 0.5 0.5 0 0 1 26.338 35.075 L 26.338 22.075 A 0.5 0.5 0 0 1 26.838 21.575 Z M 45.888 21.575 L 58.888 21.575 A 0.5 0.5 0 0 1 59.388 22.075 L 59.388 35.075 A 0.5 0.5 0 0 1 58.888 35.575 L 45.888 35.575 A 0.5 0.5 0 0 1 45.388 35.075 L 45.388 22.075 A 0.5 0.5 0 0 1 45.888 21.575 Z M 64.938 21.575 L 77.938 21.575 A 0.5 0.5 0 0 1 78.438 22.075 L 78.438 35.075 A 0.5 0.5 0 0 1 77.938 35.575 L 64.938 35.575 A 0.5 0.5 0 0 1 64.438 35.075 L 64.438 22.075 A 0.5 0.5 0 0 1 64.938 21.575 Z M 83.988 21.575 L 96.988 21.575 A 0.5 0.5 0 0 1 97.488 22.075 L 97.488 35.075 A 0.5 0.5 0 0 1 96.988 35.575 L 83.988 35.575 A 0.5 0.5 0 0 1 83.488 35.075 L 83.488 22.075 A 0.5 0.5 0 0 1 83.988 21.575 Z M 103.038 21.575 L 116.038 21.575 A 0.5 0.5 0 0 1 116.538 22.075 L 116.538 35.075 A 0.5 0.5 0 0 1 116.038 35.575 L 103.038 35.575 A 0.5 0.5 0 0 1 102.538 35.075 L 102.538 22.075 A 0.5 0.5 0 0 1 103.038 21.575 Z M 122.088 21.575 L 135.088 21.575 A 0.5 0.5 0 0 1 135.588 22.075 L 135.588 35.075 A 0.5 0.5 0 0 1 135.088 35.575 L 122.088 35.575 A 0.5 0.5 0 0 1 121.588 35.075 L 121.588 22.075 A 0.5 0.5 0 0 1 122.088 21.575 Z M 141.138 21.575 L 154.138 21.575 A 0.5 0.5 0 0 1 154.638 22.075 L 154.638 35.075 A 0.5 0.5 0 0 1 154.138 35.575 L 141.138 35.575 A 0.5 0.5 0 0 1 140.638 35.075 L 140.638 22.075 A 0.5 0.5 0 0 1 141.138 21.575 Z M 160.188 21.575 L 173.188 21.575 A 0.5 0.5 0 0 1 173.688 22.075 L 173.688 35.075 A 0.5 0.5 0 0 1 173.188 35.575 L 160.188 35.575 A 0.5 0.5 0 0 1 159.688 35.075 L 159.688 22.075 A 0.5 0.5 0 0 1 160.188 21.575 Z M 179.238 21.575 L 192.238 21.575 A 0.5 0.5 0 0 1 192.738 22.075 L 192.738 35.075 A 0.5 0.5 0 0 1 192.238 35.575 L 179.238 35.575 A 0.5 0.5 0 0 1 178.738 35.075 L 178.738 22.075 A 0.5 0.5 0 0 1 179.238 21.575 Z M 198.288 21.575 L 211.288 21.575 A 0.5 0.5 0 0 1 211.788 22.075 L 211.788 35.075 A 0.5 0.5 0 0 1 211.288 35.575 L 198.288 35.575 A 0.5 0.5 0 0 1 197.788 35.075 L 197.788 22.075 A 0.5 0.5 0 0 1 198.288 21.575 Z M 217.338 21.575 L 230.338 21.575 A 0.5 0.5 0 0 1 230.838 22.075 L 230.838 35.075 A 0.5 0.5 0 0 1 230.338 35.575 L 217.338 35.575 A 0.5 0.5 0 0 1 216.838 35.075 L 216.838 22.075 A 0.5 0.5 0 0 1 217.338 21.575 Z M 243.531 21.575 L 256.531 21.575 A 0.5 0.5 0 0 1 257.031 22.075 L 257.031 35.075 A 0.5 0.5 0 0 1 256.531 35.575 L 243.531 35.575 A 0.5 0.5 0 0 1 243.031 35.075 L 243.031 22.075 A 0.5 0.5 0 0 1 243.531 21.575 Z M 7.788 40.625 L 20.788 40.625 A 0.5 0.5 0 0 1 21.288 41.125 L 21.288 54.125 A 0.5 0.5 0 0 1 20.788 54.625 L 7.788 54.625 A 0.5 0.5 0 0 1 7.288 54.125 L 7.288 41.125 A 0.5 0.5 0 0 1 7.788 40.625 Z M 31.6 40.625 L 44.6 40.625 A 0.5 0.5 0 0 1 45.1 41.125 L 45.1 54.125 A 0.5 0.5 0 0 1 44.6 54.625 L 31.6 54.625 A 0.5 0.5 0 0 1 31.1 54.125 L 31.1 41.125 A 0.5 0.5 0 0 1 31.6 40.625 Z M 50.65 40.625 L 63.65 40.625 A 0.5 0.5 0 0 1 64.15 41.125 L 64.15 54.125 A 0.5 0.5 0 0 1 63.65 54.625 L 50.65 54.625 A 0.5 0.5 0 0 1 50.15 54.125 L 50.15 41.125 A 0.5 0.5 0 0 1 50.65 40.625 Z M 69.7 40.625 L 82.7 40.625 A 0.5 0.5 0 0 1 83.2 41.125 L 83.2 54.125 A 0.5 0.5 0 0 1 82.7 54.625 L 69.7 54.625 A 0.5 0.5 0 0 1 69.2 54.125 L 69.2 41.125 A 0.5 0.5 0 0 1 69.7 40.625 Z M 88.75 40.625 L 101.75 40.625 A 0.5 0.5 0 0 1 102.25 41.125 L 102.25 54.125 A 0.5 0.5 0 0 1 101.75 54.625 L 88.75 54.625 A 0.5 0.5 0 0 1 88.25 54.125 L 88.25 41.125 A 0.5 0.5 0 0 1 88.75 40.625 Z M 107.8 40.625 L 120.8 40.625 A 0.5 0.5 0 0 1 121.3 41.125 L 121.3 54.125 A 0.5 0.5 0 0 1 120.8 54.625 L 107.8 54.625 A 0.5 0.5 0 0 1 107.3 54.125 L 107.3 41.125 A 0.5 0.5 0 0 1 107.8 40.625 Z M 126.85 40.625 L 139.85 40.625 A 0.5 0.5 0 0 1 140.35 41.125 L 140.35 54.125 A 0.5 0.5 0 0 1 139.85 54.625 L 126.85 54.625 A 0.5 0.5 0 0 1 126.35 54.125 L 126.35 41.125 A 0.5 0.5 0 0 1 126.85 40.625 Z M 145.9 40.625 L 158.9 40.625 A 0.5 0.5 0 0 1 159.4 41.125 L 159.4 54.125 A 0.5 0.5 0 0 1 158.9 54.625 L 145.9 54.625 A 0.5 0.5 0 0 1 145.4 54.125 L 145.4 41.125 A 0.5 0.5 0 0 1 145.9 40.625 Z M 164.95 40.625 L 177.95 40.625 A 0.5 0.5 0 0 1 178.45 41.125 L 178.45 54.125 A 0.5 0.5 0 0 1 177.95 54.625 L 164.95 54.625 A 0.5 0.5 0 0 1 164.45 54.125 L 164.45 41.125 A 0.5 0.5 0 0 1 164.95 40.625 Z M 184 40.625 L 197 40.625 A 0.5 0.5 0 0 1 197.5 41.125 L 197.5 54.125 A 0.5 0.5 0 0 1 197 54.625 L 184 54.625 A 0.5 0.5 0 0 1 183.5 54.125 L 183.5 41.125 A 0.5 0.5 0 0 1 184 40.625 Z M 203.05 40.625 L 216.05 40.625 A 0.5 0.5 0 0 1 216.55 41.125 L 216.55 54.125 A 0.5 0.5 0 0 1 216.05 54.625 L 203.05 54.625 A 0.5 0.5 0 0 1 202.55 54.125 L 202.55 41.125 A 0.5 0.5 0 0 1 203.05 40.625 Z M 222.1 40.625 L 235.1 40.625 A 0.5 0.5 0 0 1 235.6 41.125 L 235.6 54.125 A 0.5 0.5 0 0 1 235.1 54.625 L 222.1 54.625 A 0.5 0.5 0 0 1 221.6 54.125 L 221.6 41.125 A 0.5 0.5 0 0 1 222.1 40.625 Z M 10.169 59.675 L 23.169 59.675 A 0.5 0.5 0 0 1 23.669 60.175 L 23.669 73.175 A 0.5 0.5 0 0 1 23.169 73.675 L 10.169 73.675 A 0.5 0.5 0 0 1 9.669 73.175 L 9.669 60.175 A 0.5 0.5 0 0 1 10.169 59.675 Z M 36.363 59.675 L 49.363 59.675 A 0.5 0.5 0 0 1 49.863 60.175 L 49.863 73.175 A 0.5 0.5 0 0 1 49.363 73.675 L 36.363 73.675 A 0.5 0.5 0 0 1 35.863 73.175 L 35.863 60.175 A 0.5 0.5 0 0 1 36.363 59.675 Z M 74.463 59.675 L 87.463 59.675 A 0.5 0.5 0 0 1 87.963 60.175 L 87.963 73.175 A 0.5 0.5 0 0 1 87.463 73.675 L 74.463 73.675 A 0.5 0.5 0 0 1 73.963 73.175 L 73.963 60.175 A 0.5 0.5 0 0 1 74.463 59.675 Z M 93.513 59.675 L 106.513 59.675 A 0.5 0.5 0 0 1 107.013 60.175 L 107.013 73.175 A 0.5 0.5 0 0 1 106.513 73.675 L 93.513 73.675 A 0.5 0.5 0 0 1 93.013 73.175 L 93.013 60.175 A 0.5 0.5 0 0 1 93.513 59.675 Z M 112.563 59.675 L 125.563 59.675 A 0.5 0.5 0 0 1 126.063 60.175 L 126.063 73.175 A 0.5 0.5 0 0 1 125.563 73.675 L 112.563 73.675 A 0.5 0.5 0 0 1 112.063 73.175 L 112.063 60.175 A 0.5 0.5 0 0 1 112.563 59.675 Z M 131.613 59.675 L 144.613 59.675 A 0.5 0.5 0 0 1 145.113 60.175 L 145.113 73.175 A 0.5 0.5 0 0 1 144.613 73.675 L 131.613 73.675 A 0.5 0.5 0 0 1 131.113 73.175 L 131.113 60.175 A 0.5 0.5 0 0 1 131.613 59.675 Z M 150.663 59.675 L 163.663 59.675 A 0.5 0.5 0 0 1 164.163 60.175 L 164.163 73.175 A 0.5 0.5 0 0 1 163.663 73.675 L 150.663 73.675 A 0.5 0.5 0 0 1 150.163 73.175 L 150.163 60.175 A 0.5 0.5 0 0 1 150.663 59.675 Z M 169.713 59.675 L 182.713 59.675 A 0.5 0.5 0 0 1 183.213 60.175 L 183.213 73.175 A 0.5 0.5 0 0 1 182.713 73.675 L 169.713 73.675 A 0.5 0.5 0 0 1 169.213 73.175 L 169.213 60.175 A 0.5 0.5 0 0 1 169.713 59.675 Z M 188.763 59.675 L 201.763 59.675 A 0.5 0.5 0 0 1 202.263 60.175 L 202.263 73.175 A 0.5 0.5 0 0 1 201.763 73.675 L 188.763 73.675 A 0.5 0.5 0 0 1 188.263 73.175 L 188.263 60.175 A 0.5 0.5 0 0 1 188.763 59.675 Z M 207.813 59.675 L 220.813 59.675 A 0.5 0.5 0 0 1 221.313 60.175 L 221.313 73.175 A 0.5 0.5 0 0 1 220.813 73.675 L 207.813 73.675 A 0.5 0.5 0 0 1 207.313 73.175 L 207.313 60.175 A 0.5 0.5 0 0 1 207.813 59.675 Z M 226.863 59.675 L 239.863 59.675 A 0.5 0.5 0 0 1 240.363 60.175 L 240.363 73.175 A 0.5 0.5 0 0 1 239.863 73.675 L 226.863 73.675 A 0.5 0.5 0 0 1 226.363 73.175 L 226.363 60.175 A 0.5 0.5 0 0 1 226.863 59.675 Z M 248.294 59.675 L 261.294 59.675 A 0.5 0.5 0 0 1 261.794 60.175 L 261.794 73.175 A 0.5 0.5 0 0 1 261.294 73.675 L 248.294 73.675 A 0.5 0.5 0 0 1 247.794 73.175 L 247.794 60.175 A 0.5 0.5 0 0 1 248.294 59.675 Z M 5.406 78.725 L 18.406 78.725 A 0.5 0.5 0 0 1 18.906 79.225 L 18.906 92.225 A 0.5 0.5 0 0 1 18.406 92.725 L 5.406 92.725 A 0.5 0.5 0 0 1 4.906 92.225 L 4.906 79.225 A 0.5 0.5 0 0 1 5.406 78.725 Z M 29.219 78.725 L 42.219 78.725 A 0.5 0.5 0 0 1 42.719 79.225 L 42.719 92.225 A 0.5 0.5 0 0 1 42.219 92.725 L 29.219 92.725 A 0.5 0.5 0 0 1 28.719 92.225 L 28.719 79.225 A 0.5 0.5 0 0 1 29.219 78.725 Z M 83.988 78.725 L 96.988 78.725 A 0.5 0.5 0 0 1 97.488 79.225 L 97.488 92.225 A 0.5 0.5 0 0 1 96.988 92.725 L 83.988 92.725 A 0.5 0.5 0 0 1 83.488 92.225 L 83.488 79.225 A 0.5 0.5 0 0 1 83.988 78.725 Z M 107.8 78.725 L 120.8 78.725 A 0.5 0.5 0 0 1 121.3 79.225 L 121.3 92.225 A 0.5 0.5 0 0 1 120.8 92.725 L 107.8 92.725 A 0.5 0.5 0 0 1 107.3 92.225 L 107.3 79.225 A 0.5 0.5 0 0 1 107.8 78.725 Z M 126.85 78.725 L 139.85 78.725 A 0.5 0.5 0 0 1 140.35 79.225 L 140.35 92.225 A 0.5 0.5 0 0 1 139.85 92.725 L 126.85 92.725 A 0.5 0.5 0 0 1 126.35 92.225 L 126.35 79.225 A 0.5 0.5 0 0 1 126.85 78.725 Z M 150.663 78.725 L 163.663 78.725 A 0.5 0.5 0 0 1 164.163 79.225 L 164.163 92.225 A 0.5 0.5 0 0 1 163.663 92.725 L 150.663 92.725 A 0.5 0.5 0 0 1 150.163 92.225 L 150.163 79.225 A 0.5 0.5 0 0 1 150.663 78.725 Z M 176.856 78.725 L 189.856 78.725 A 0.5 0.5 0 0 1 190.356 79.225 L 190.356 92.225 A 0.5 0.5 0 0 1 189.856 92.725 L 176.856 92.725 A 0.5 0.5 0 0 1 176.356 92.225 L 176.356 79.225 A 0.5 0.5 0 0 1 176.856 78.725 Z M 200.669 78.725 L 213.669 78.725 A 0.5 0.5 0 0 1 214.169 79.225 L 214.169 92.225 A 0.5 0.5 0 0 1 213.669 92.725 L 200.669 92.725 A 0.5 0.5 0 0 1 200.169 92.225 L 200.169 79.225 A 0.5 0.5 0 0 1 200.669 78.725 Z M 224.481 78.725 L 237.481 78.725 A 0.5 0.5 0 0 1 237.981 79.225 L 237.981 92.225 A 0.5 0.5 0 0 1 237.481 92.725 L 224.481 92.725 A 0.5 0.5 0 0 1 223.981 92.225 L 223.981 79.225 A 0.5 0.5 0 0 1 224.481 78.725 Z M 248.294 78.725 L 261.294 78.725 A 0.5 0.5 0 0 1 261.794 79.225 L 261.794 92.225 A 0.5 0.5 0 0 1 261.294 92.725 L 248.294 92.725 A 0.5 0.5 0 0 1 247.794 92.225 L 247.794 79.225 A 0.5 0.5 0 0 1 248.294 78.725 Z M 3.025 2.525 L 16.025 2.525 A 0.5 0.5 0 0 1 16.525 3.025 L 16.525 16.025 A 0.5 0.5 0 0 1 16.025 16.525 L 3.025 16.525 A 0.5 0.5 0 0 1 2.525 16.025 L 2.525 3.025 A 0.5 0.5 0 0 1 3.025 2.525 Z M 41.125 2.525 L 54.125 2.525 A 0.5 0.5 0 0 1 54.625 3.025 L 54.625 16.025 A 0.5 0.5 0 0 1 54.125 16.525 L 41.125 16.525 A 0.5 0.5 0 0 1 40.625 16.025 L 40.625 3.025 A 0.5 0.5 0 0 1 41.125 2.525 Z M 60.175 2.525 L 73.175 2.525 A 0.5 0.5 0 0 1 73.675 3.025 L 73.675 16.025 A 0.5 0.5 0 0 1 73.175 16.525 L 60.175 16.525 A 0.5 0.5 0 0 1 59.675 16.025 L 59.675 3.025 A 0.5 0.5 0 0 1 60.175 2.525 Z M 79.225 2.525 L 92.225 2.525 A 0.5 0.5 0 0 1 92.725 3.025 L 92.725 16.025 A 0.5 0.5 0 0 1 92.225 16.525 L 79.225 16.525 A 0.5 0.5 0 0 1 78.725 16.025 L 78.725 3.025 A 0.5 0.5 0 0 1 79.225 2.525 Z M 98.275 2.525 L 111.275 2.525 A 0.5 0.5 0 0 1 111.775 3.025 L 111.775 16.025 A 0.5 0.5 0 0 1 111.275 16.525 L 98.275 16.525 A 0.5 0.5 0 0 1 97.775 16.025 L 97.775 3.025 A 0.5 0.5 0 0 1 98.275 2.525 Z M 136.375 2.525 L 149.375 2.525 A 0.5 0.5 0 0 1 149.875 3.025 L 149.875 16.025 A 0.5 0.5 0 0 1 149.375 16.525 L 136.375 16.525 A 0.5 0.5 0 0 1 135.875 16.025 L 135.875 3.025 A 0.5 0.5 0 0 1 136.375 2.525 Z M 155.425 2.525 L 168.425 2.525 A 0.5 0.5 0 0 1 168.925 3.025 L 168.925 16.025 A 0.5 0.5 0 0 1 168.425 16.525 L 155.425 16.525 A 0.5 0.5 0 0 1 154.925 16.025 L 154.925 3.025 A 0.5 0.5 0 0 1 155.425 2.525 Z M 174.475 2.525 L 187.475 2.525 A 0.5 0.5 0 0 1 187.975 3.025 L 187.975 16.025 A 0.5 0.5 0 0 1 187.475 16.525 L 174.475 16.525 A 0.5 0.5 0 0 1 173.975 16.025 L 173.975 3.025 A 0.5 0.5 0 0 1 174.475 2.525 Z M 193.525 2.525 L 206.525 2.525 A 0.5 0.5 0 0 1 207.025 3.025 L 207.025 16.025 A 0.5 0.5 0 0 1 206.525 16.525 L 193.525 16.525 A 0.5 0.5 0 0 1 193.025 16.025 L 193.025 3.025 A 0.5 0.5 0 0 1 193.525 2.525 Z M 212.575 2.525 L 225.575 2.525 A 0.5 0.5 0 0 1 226.075 3.025 L 226.075 16.025 A 0.5 0.5 0 0 1 225.575 16.525 L 212.575 16.525 A 0.5 0.5 0 0 1 212.075 16.025 L 212.075 3.025 A 0.5 0.5 0 0 1 212.575 2.525 Z M 231.625 2.525 L 244.625 2.525 A 0.5 0.5 0 0 1 245.125 3.025 L 245.125 16.025 A 0.5 0.5 0 0 1 244.625 16.525 L 231.625 16.525 A 0.5 0.5 0 0 1 231.125 16.025 L 231.125 3.025 A 0.5 0.5 0 0 1 231.625 2.525 Z M 250.675 2.525 L 263.675 2.525 A 0.5 0.5 0 0 1 264.175 3.025 L 264.175 16.025 A 0.5 0.5 0 0 1 263.675 16.525 L 250.675 16.525 A 0.5 0.5 0 0 1 250.175 16.025 L 250.175 3.025 A 0.5 0.5 0 0 1 250.675 2.525 Z M 55.413 59.675 L 68.413 59.675 A 0.5 0.5 0 0 1 68.913 60.175 L 68.913 73.175 A 0.5 0.5 0 0 1 68.413 73.675 L 55.413 73.675 A 0.5 0.5 0 0 1 54.913 73.175 L 54.913 60.175 A 0.5 0.5 0 0 1 55.413 59.675 Z M 55.413 78.725 L 68.413 78.725 A 0.5 0.5 0 0 1 68.913 79.225 L 68.913 92.225 A 0.5 0.5 0 0 1 68.413 92.725 L 55.413 92.725 A 0.5 0.5 0 0 1 54.913 92.225 L 54.913 79.225 A 0.5 0.5 0 0 1 55.413 78.725 Z M 117.325 2.525 L 130.325 2.525 A 0.5 0.5 0 0 1 130.825 3.025 L 130.825 16.025 A 0.5 0.5 0 0 1 130.325 16.525 L 117.325 16.525 A 0.5 0.5 0 0 1 116.825 16.025 L 116.825 3.025 A 0.5 0.5 0 0 1 117.325 2.525 Z" vector-effect="non-scaling-stroke"/></g></svg>