%FSLAX45Y45*%
G04 Gerber Fmt 4.5, Leading zero omitted, Abs format (unit mm)*
G04 Created by KiCad (PCBNEW (6.0.5)) date 2022-07-14 23:35:50*
%MOMM*%
%LPD*%
G01*
G04 APERTURE LIST*
%TA.AperFunction,Profile*%
%ADD10C,0.150000*%
%TD*%
%ADD11C,0.200000*%
%ADD12C,0.030000*%
%ADD13C,0.147000*%
%ADD14C,0.160000*%
G04 APERTURE END LIST*
D10*
X17303750Y-13652500D02*
G75*
G03*
X17383125Y-13731875I79375J0D01*
G01*
X17303750Y-13652500D02*
G75*
G03*
X17224375Y-13573125I-79375J0D01*
G01*
X16271875Y-13731875D02*
G75*
G03*
X16351250Y-13652500I0J79375D01*
G01*
X16430625Y-13573125D02*
G75*
G03*
X16351250Y-13652500I0J-79375D01*
G01*
X17819688Y-13731875D02*
G75*
G03*
X18493207Y-13452894I0J952500D01*
G01*
X19051168Y-13452894D02*
G75*
G03*
X19724688Y-13731875I673519J673519D01*
G01*
X19051168Y-13452894D02*
G75*
G03*
X18772188Y-13337337I-278981J-278981D01*
G01*
X18772188Y-13337337D02*
G75*
G03*
X18493207Y-13452894I0J-394538D01*
G01*
X25196800Y-13731875D02*
G75*
G03*
X25870319Y-13452894I0J952500D01*
G01*
X26428281Y-13452894D02*
G75*
G03*
X27101800Y-13731875I673519J673519D01*
G01*
X26428281Y-13452894D02*
G75*
G03*
X26149300Y-13337337I-278981J-278981D01*
G01*
X26149300Y-13337337D02*
G75*
G03*
X25870319Y-13452894I0J-394538D01*
G01*
X18374144Y-4485856D02*
G75*
G03*
X18653125Y-4601413I278981J278981D01*
G01*
X18374144Y-4485856D02*
G75*
G03*
X17700625Y-4206875I-673519J-673519D01*
G01*
X18653125Y-4601413D02*
G75*
G03*
X18932106Y-4485856I0J394538D01*
G01*
X19605625Y-4206875D02*
G75*
G03*
X18932106Y-4485856I0J-952500D01*
G01*
X11985625Y-4206875D02*
G75*
G03*
X11312106Y-4485856I0J-952500D01*
G01*
X10754144Y-4485856D02*
G75*
G03*
X10080625Y-4206875I-673519J-673519D01*
G01*
X10754144Y-4485856D02*
G75*
G03*
X11033125Y-4601413I278981J278981D01*
G01*
X11033125Y-4601413D02*
G75*
G03*
X11312106Y-4485856I0J394538D01*
G01*
X28178125Y-5159375D02*
G75*
G03*
X27225625Y-4206875I-952500J0D01*
G01*
X27225625Y-4206875D02*
G75*
G03*
X26552106Y-4485856I0J-952500D01*
G01*
X25994144Y-4485856D02*
G75*
G03*
X25320625Y-4206875I-673519J-673519D01*
G01*
X25994144Y-4485856D02*
G75*
G03*
X26273125Y-4601413I278981J278981D01*
G01*
X26273125Y-4601413D02*
G75*
G03*
X26552106Y-4485856I0J394538D01*
G01*
X10795000Y-13731875D02*
G75*
G03*
X11468519Y-13452894I0J952500D01*
G01*
X12026481Y-13452894D02*
G75*
G03*
X12700000Y-13731875I673519J673519D01*
G01*
X12026481Y-13452894D02*
G75*
G03*
X11747500Y-13337337I-278981J-278981D01*
G01*
X11747500Y-13337337D02*
G75*
G03*
X11468519Y-13452894I0J-394538D01*
G01*
X4168356Y-13452894D02*
G75*
G03*
X4841875Y-13731875I673519J673519D01*
G01*
X4168356Y-13452894D02*
G75*
G03*
X3889375Y-13337337I-278981J-278981D01*
G01*
X3889375Y-13337337D02*
G75*
G03*
X3610394Y-13452894I0J-394538D01*
G01*
X2936875Y-13731875D02*
G75*
G03*
X3610394Y-13452894I0J952500D01*
G01*
X2460625Y-13731875D02*
X2936875Y-13731875D01*
X4841875Y-13731875D02*
X10795000Y-13731875D01*
X3006848Y-4379057D02*
G75*
G03*
X1508125Y-5159375I-546257J-780252D01*
G01*
X4444619Y-4466050D02*
X3254774Y-4466024D01*
X25320625Y-4206875D02*
X19605625Y-4206875D01*
X16430625Y-13573125D02*
X17224375Y-13573125D01*
X10080625Y-4206875D02*
X5238750Y-4206875D01*
X17383125Y-13731875D02*
X17819688Y-13731875D01*
X1508125Y-12779375D02*
X1508125Y-5159375D01*
X27101800Y-13731875D02*
X27225625Y-13731875D01*
X5238750Y-4206875D02*
G75*
G03*
X4692545Y-4379083I-12J-952287D01*
G01*
X28178125Y-12779375D02*
X28178125Y-5159375D01*
X27225625Y-13731875D02*
G75*
G03*
X28178125Y-12779375I0J952500D01*
G01*
X4444619Y-4466050D02*
G75*
G03*
X4692545Y-4379083I137J396485D01*
G01*
X17700625Y-4206875D02*
X11985625Y-4206875D01*
X19724688Y-13731875D02*
X25196800Y-13731875D01*
X1508125Y-12779375D02*
G75*
G03*
X2460625Y-13731875I952500J0D01*
G01*
X3006848Y-4379057D02*
G75*
G03*
X3254774Y-4466024I247782J309497D01*
G01*
X12700000Y-13731875D02*
X16271875Y-13731875D01*
D11*
D12*
X1597900Y-5623800D02*
X1627900Y-5653800D01*
X1627900Y-5623800D02*
X1597900Y-5653800D01*
X1636000Y-5700000D02*
X1666000Y-5730000D01*
X1666000Y-5700000D02*
X1636000Y-5730000D01*
X1651875Y-5144375D02*
X1681875Y-5174375D01*
X1681875Y-5144375D02*
X1651875Y-5174375D01*
X1674100Y-5509500D02*
X1704100Y-5539500D01*
X1704100Y-5509500D02*
X1674100Y-5539500D01*
X1686800Y-6068300D02*
X1716800Y-6098300D01*
X1716800Y-6068300D02*
X1686800Y-6098300D01*
X1731250Y-7049375D02*
X1761250Y-7079375D01*
X1761250Y-7049375D02*
X1731250Y-7079375D01*
X1737600Y-13243800D02*
X1767600Y-13273800D01*
X1767600Y-13243800D02*
X1737600Y-13273800D01*
X1775700Y-5779375D02*
X1805700Y-5809375D01*
X1805700Y-5779375D02*
X1775700Y-5809375D01*
X1801100Y-13320000D02*
X1831100Y-13350000D01*
X1831100Y-13320000D02*
X1801100Y-13350000D01*
X1864600Y-7478000D02*
X1894600Y-7508000D01*
X1894600Y-7478000D02*
X1864600Y-7508000D01*
X1864600Y-13383500D02*
X1894600Y-13413500D01*
X1894600Y-13383500D02*
X1864600Y-13413500D01*
X1928100Y-9738600D02*
X1958100Y-9768600D01*
X1958100Y-9738600D02*
X1928100Y-9768600D01*
X1928100Y-11859500D02*
X1958100Y-11889500D01*
X1958100Y-11859500D02*
X1928100Y-11889500D01*
X1991600Y-5534900D02*
X2021600Y-5564900D01*
X2021600Y-5534900D02*
X1991600Y-5564900D01*
X1991600Y-10859375D02*
X2021600Y-10889375D01*
X2021600Y-10859375D02*
X1991600Y-10889375D01*
X1991600Y-12764375D02*
X2021600Y-12794375D01*
X2021600Y-12764375D02*
X1991600Y-12794375D01*
X2017000Y-7684375D02*
X2047000Y-7714375D01*
X2047000Y-7684375D02*
X2017000Y-7714375D01*
X2042400Y-9383000D02*
X2072400Y-9413000D01*
X2072400Y-9383000D02*
X2042400Y-9413000D01*
X2080500Y-5661900D02*
X2110500Y-5691900D01*
X2110500Y-5661900D02*
X2080500Y-5691900D01*
X2177358Y-10445058D02*
X2207358Y-10475058D01*
X2207358Y-10445058D02*
X2177358Y-10475058D01*
X2230044Y-10358044D02*
X2260044Y-10388044D01*
X2260044Y-10358044D02*
X2230044Y-10388044D01*
X2258300Y-9589375D02*
X2288300Y-9619375D01*
X2288300Y-9589375D02*
X2258300Y-9619375D01*
X2258300Y-13472400D02*
X2288300Y-13502400D01*
X2288300Y-13472400D02*
X2258300Y-13502400D01*
X2261051Y-13170317D02*
X2291051Y-13200317D01*
X2291051Y-13170317D02*
X2261051Y-13200317D01*
X2281364Y-10269664D02*
X2311364Y-10299664D01*
X2311364Y-10269664D02*
X2281364Y-10299664D01*
X2315484Y-13358100D02*
X2345484Y-13388100D01*
X2345484Y-13358100D02*
X2315484Y-13388100D01*
X2321834Y-13269200D02*
X2351834Y-13299200D01*
X2351834Y-13269200D02*
X2321834Y-13299200D01*
X2499600Y-11494375D02*
X2529600Y-11524375D01*
X2529600Y-11494375D02*
X2499600Y-11524375D01*
X2512300Y-11643600D02*
X2542300Y-11673600D01*
X2542300Y-11643600D02*
X2512300Y-11673600D01*
X2683750Y-10145000D02*
X2713750Y-10175000D01*
X2713750Y-10145000D02*
X2683750Y-10175000D01*
X3223500Y-9154400D02*
X3253500Y-9184400D01*
X3253500Y-9154400D02*
X3223500Y-9184400D01*
X3223500Y-9738600D02*
X3253500Y-9768600D01*
X3253500Y-9738600D02*
X3223500Y-9768600D01*
X3287000Y-7693900D02*
X3317000Y-7723900D01*
X3317000Y-7693900D02*
X3287000Y-7723900D01*
X3337800Y-7414500D02*
X3367800Y-7444500D01*
X3367800Y-7414500D02*
X3337800Y-7444500D01*
X3502900Y-7414500D02*
X3532900Y-7444500D01*
X3532900Y-7414500D02*
X3502900Y-7444500D01*
X3515600Y-9306800D02*
X3545600Y-9336800D01*
X3545600Y-9306800D02*
X3515600Y-9336800D01*
X3515600Y-9611600D02*
X3545600Y-9641600D01*
X3545600Y-9611600D02*
X3515600Y-9641600D01*
X3541000Y-7693900D02*
X3571000Y-7723900D01*
X3571000Y-7693900D02*
X3541000Y-7723900D01*
X3642600Y-9611600D02*
X3672600Y-9641600D01*
X3672600Y-9611600D02*
X3642600Y-9641600D01*
X3655300Y-9306800D02*
X3685300Y-9336800D01*
X3685300Y-9306800D02*
X3655300Y-9336800D01*
X3668000Y-7414500D02*
X3698000Y-7444500D01*
X3698000Y-7414500D02*
X3668000Y-7444500D01*
X3693400Y-7693900D02*
X3723400Y-7723900D01*
X3723400Y-7693900D02*
X3693400Y-7723900D01*
X3715625Y-7049375D02*
X3745625Y-7079375D01*
X3745625Y-7049375D02*
X3715625Y-7079375D01*
X3744200Y-10437100D02*
X3774200Y-10467100D01*
X3774200Y-10437100D02*
X3744200Y-10467100D01*
X3744200Y-10703800D02*
X3774200Y-10733800D01*
X3774200Y-10703800D02*
X3744200Y-10733800D01*
X3769600Y-9306800D02*
X3799600Y-9336800D01*
X3799600Y-9306800D02*
X3769600Y-9336800D01*
X3769600Y-9611600D02*
X3799600Y-9641600D01*
X3799600Y-9611600D02*
X3769600Y-9641600D01*
X3795000Y-5779375D02*
X3825000Y-5809375D01*
X3825000Y-5779375D02*
X3795000Y-5809375D01*
X3845800Y-7414500D02*
X3875800Y-7444500D01*
X3875800Y-7414500D02*
X3845800Y-7444500D01*
X3855500Y-7760400D02*
X3885500Y-7790400D01*
X3885500Y-7760400D02*
X3855500Y-7790400D01*
X3858500Y-9268700D02*
X3888500Y-9298700D01*
X3888500Y-9268700D02*
X3858500Y-9298700D01*
X3874375Y-12764375D02*
X3904375Y-12794375D01*
X3904375Y-12764375D02*
X3874375Y-12794375D01*
X3896600Y-9611600D02*
X3926600Y-9641600D01*
X3926600Y-9611600D02*
X3896600Y-9641600D01*
X3922000Y-8138400D02*
X3952000Y-8168400D01*
X3952000Y-8138400D02*
X3922000Y-8168400D01*
X3922000Y-9027400D02*
X3952000Y-9057400D01*
X3952000Y-9027400D02*
X3922000Y-9057400D01*
X3931067Y-5550317D02*
X3961067Y-5580317D01*
X3961067Y-5550317D02*
X3931067Y-5580317D01*
X3991850Y-5649200D02*
X4021850Y-5679200D01*
X4021850Y-5649200D02*
X3991850Y-5679200D01*
X3998200Y-9306800D02*
X4028200Y-9336800D01*
X4028200Y-9306800D02*
X3998200Y-9336800D01*
X3998200Y-10297400D02*
X4028200Y-10327400D01*
X4028200Y-10297400D02*
X3998200Y-10327400D01*
X4010900Y-7414500D02*
X4040900Y-7444500D01*
X4040900Y-7414500D02*
X4010900Y-7444500D01*
X4049000Y-10411700D02*
X4079000Y-10441700D01*
X4079000Y-10411700D02*
X4049000Y-10441700D01*
X4112500Y-9306800D02*
X4142500Y-9336800D01*
X4142500Y-9306800D02*
X4112500Y-9336800D01*
X4188700Y-7960600D02*
X4218700Y-7990600D01*
X4218700Y-7960600D02*
X4188700Y-7990600D01*
X4188700Y-9598900D02*
X4218700Y-9628900D01*
X4218700Y-9598900D02*
X4188700Y-9628900D01*
X4188700Y-11072100D02*
X4218700Y-11102100D01*
X4218700Y-11072100D02*
X4188700Y-11102100D01*
X4252200Y-8036800D02*
X4282200Y-8066800D01*
X4282200Y-8036800D02*
X4252200Y-8066800D01*
X4271250Y-7684375D02*
X4301250Y-7714375D01*
X4301250Y-7684375D02*
X4271250Y-7714375D01*
X4275784Y-9600716D02*
X4305784Y-9630716D01*
X4305784Y-9600716D02*
X4275784Y-9630716D01*
X4277600Y-10957800D02*
X4307600Y-10987800D01*
X4307600Y-10957800D02*
X4277600Y-10987800D01*
X4315700Y-8113000D02*
X4345700Y-8143000D01*
X4345700Y-8113000D02*
X4315700Y-8143000D01*
X4341100Y-9662400D02*
X4371100Y-9692400D01*
X4371100Y-9662400D02*
X4341100Y-9692400D01*
X4366500Y-10957800D02*
X4396500Y-10987800D01*
X4396500Y-10957800D02*
X4366500Y-10987800D01*
X4404600Y-8862300D02*
X4434600Y-8892300D01*
X4434600Y-8862300D02*
X4404600Y-8892300D01*
X4404600Y-9598900D02*
X4434600Y-9628900D01*
X4434600Y-9598900D02*
X4404600Y-9628900D01*
X4404600Y-9878300D02*
X4434600Y-9908300D01*
X4434600Y-9878300D02*
X4404600Y-9908300D01*
X4407317Y-7455317D02*
X4437317Y-7485317D01*
X4437317Y-7455317D02*
X4407317Y-7485317D01*
X4417300Y-11592800D02*
X4447300Y-11622800D01*
X4447300Y-11592800D02*
X4417300Y-11622800D01*
X4417300Y-13002500D02*
X4447300Y-13032500D01*
X4447300Y-13002500D02*
X4417300Y-13032500D01*
X4468100Y-7554200D02*
X4498100Y-7584200D01*
X4498100Y-7554200D02*
X4468100Y-7584200D01*
X4480800Y-10868900D02*
X4510800Y-10898900D01*
X4510800Y-10868900D02*
X4480800Y-10898900D01*
X4493500Y-8951200D02*
X4523500Y-8981200D01*
X4523500Y-8951200D02*
X4493500Y-8981200D01*
X4493500Y-9662400D02*
X4523500Y-9692400D01*
X4523500Y-9662400D02*
X4493500Y-9692400D01*
X4506200Y-9878300D02*
X4536200Y-9908300D01*
X4536200Y-9878300D02*
X4506200Y-9908300D01*
X4544300Y-11884900D02*
X4574300Y-11914900D01*
X4574300Y-11884900D02*
X4544300Y-11914900D01*
X4633200Y-13472400D02*
X4663200Y-13502400D01*
X4663200Y-13472400D02*
X4633200Y-13502400D01*
X4684000Y-10995900D02*
X4714000Y-11025900D01*
X4714000Y-10995900D02*
X4684000Y-11025900D01*
X4696700Y-13358100D02*
X4726700Y-13388100D01*
X4726700Y-13358100D02*
X4696700Y-13388100D01*
X4703050Y-13269200D02*
X4733050Y-13299200D01*
X4733050Y-13269200D02*
X4703050Y-13299200D01*
X4709400Y-13078700D02*
X4739400Y-13108700D01*
X4739400Y-13078700D02*
X4709400Y-13108700D01*
X4713075Y-9734925D02*
X4743075Y-9764925D01*
X4743075Y-9734925D02*
X4713075Y-9764925D01*
X4734800Y-9548100D02*
X4764800Y-9578100D01*
X4764800Y-9548100D02*
X4734800Y-9578100D01*
X4849100Y-11161000D02*
X4879100Y-11191000D01*
X4879100Y-11161000D02*
X4849100Y-11191000D01*
X4849100Y-11961100D02*
X4879100Y-11991100D01*
X4879100Y-11961100D02*
X4849100Y-11991100D01*
X4874500Y-12418300D02*
X4904500Y-12448300D01*
X4904500Y-12418300D02*
X4874500Y-12448300D01*
X4883567Y-9360317D02*
X4913567Y-9390317D01*
X4913567Y-9360317D02*
X4883567Y-9390317D01*
X4944350Y-9459200D02*
X4974350Y-9489200D01*
X4974350Y-9459200D02*
X4944350Y-9489200D01*
X4988800Y-10399000D02*
X5018800Y-10429000D01*
X5018800Y-10399000D02*
X4988800Y-10429000D01*
X5039600Y-11021300D02*
X5069600Y-11051300D01*
X5069600Y-11021300D02*
X5039600Y-11051300D01*
X5090400Y-8049500D02*
X5120400Y-8079500D01*
X5120400Y-8049500D02*
X5090400Y-8079500D01*
X5090400Y-9929100D02*
X5120400Y-9959100D01*
X5120400Y-9929100D02*
X5090400Y-9959100D01*
X5103100Y-10056100D02*
X5133100Y-10086100D01*
X5133100Y-10056100D02*
X5103100Y-10086100D01*
X5166600Y-7986000D02*
X5196600Y-8016000D01*
X5196600Y-7986000D02*
X5166600Y-8016000D01*
X5179300Y-11630900D02*
X5209300Y-11660900D01*
X5209300Y-11630900D02*
X5179300Y-11660900D01*
X5218784Y-11200484D02*
X5248784Y-11230484D01*
X5248784Y-11200484D02*
X5218784Y-11230484D01*
X5223750Y-11494375D02*
X5253750Y-11524375D01*
X5253750Y-11494375D02*
X5223750Y-11524375D01*
X5242800Y-10703800D02*
X5272800Y-10733800D01*
X5272800Y-10703800D02*
X5242800Y-10733800D01*
X5293600Y-11122900D02*
X5323600Y-11152900D01*
X5323600Y-11122900D02*
X5293600Y-11152900D01*
X5303125Y-5144375D02*
X5333125Y-5174375D01*
X5333125Y-5144375D02*
X5303125Y-5174375D01*
X5319000Y-12037300D02*
X5349000Y-12067300D01*
X5349000Y-12037300D02*
X5319000Y-12067300D01*
X5331700Y-12507200D02*
X5361700Y-12537200D01*
X5361700Y-12507200D02*
X5331700Y-12537200D01*
X5359817Y-11265317D02*
X5389817Y-11295317D01*
X5389817Y-11265317D02*
X5359817Y-11295317D01*
X5369800Y-10995900D02*
X5399800Y-11025900D01*
X5399800Y-10995900D02*
X5369800Y-11025900D01*
X5392025Y-11494375D02*
X5422025Y-11524375D01*
X5422025Y-11494375D02*
X5392025Y-11524375D01*
X5420600Y-11364200D02*
X5450600Y-11394200D01*
X5450600Y-11364200D02*
X5420600Y-11394200D01*
X5433300Y-13294600D02*
X5463300Y-13324600D01*
X5463300Y-13294600D02*
X5433300Y-13324600D01*
X5446000Y-11059400D02*
X5476000Y-11089400D01*
X5476000Y-11059400D02*
X5446000Y-11089400D01*
X5458700Y-11808700D02*
X5488700Y-11838700D01*
X5488700Y-11808700D02*
X5458700Y-11838700D01*
X5458700Y-11897600D02*
X5488700Y-11927600D01*
X5488700Y-11897600D02*
X5458700Y-11927600D01*
X5547600Y-10005300D02*
X5577600Y-10035300D01*
X5577600Y-10005300D02*
X5547600Y-10035300D01*
X5547600Y-13320000D02*
X5577600Y-13350000D01*
X5577600Y-13320000D02*
X5547600Y-13350000D01*
X5623800Y-10043400D02*
X5653800Y-10073400D01*
X5653800Y-10043400D02*
X5623800Y-10073400D01*
X5623800Y-13269200D02*
X5653800Y-13299200D01*
X5653800Y-13269200D02*
X5623800Y-13299200D01*
X5700000Y-5779375D02*
X5730000Y-5809375D01*
X5730000Y-5779375D02*
X5700000Y-5809375D01*
X5700000Y-10094200D02*
X5730000Y-10124200D01*
X5730000Y-10094200D02*
X5700000Y-10124200D01*
X5779375Y-7049375D02*
X5809375Y-7079375D01*
X5809375Y-7049375D02*
X5779375Y-7079375D01*
X5788900Y-10132300D02*
X5818900Y-10162300D01*
X5818900Y-10132300D02*
X5788900Y-10162300D01*
X5836067Y-5550317D02*
X5866067Y-5580317D01*
X5866067Y-5550317D02*
X5836067Y-5580317D01*
X5896850Y-5649200D02*
X5926850Y-5679200D01*
X5926850Y-5649200D02*
X5896850Y-5679200D01*
X5992100Y-7795500D02*
X6022100Y-7825500D01*
X6022100Y-7795500D02*
X5992100Y-7825500D01*
X6081000Y-7859000D02*
X6111000Y-7889000D01*
X6111000Y-7859000D02*
X6081000Y-7889000D01*
X6144500Y-12240500D02*
X6174500Y-12270500D01*
X6174500Y-12240500D02*
X6144500Y-12270500D01*
X6157200Y-8954375D02*
X6187200Y-8984375D01*
X6187200Y-8954375D02*
X6157200Y-8984375D01*
X6176250Y-7684375D02*
X6206250Y-7714375D01*
X6206250Y-7684375D02*
X6176250Y-7714375D01*
X6208000Y-10170400D02*
X6238000Y-10200400D01*
X6238000Y-10170400D02*
X6208000Y-10200400D01*
X6255625Y-12764375D02*
X6285625Y-12794375D01*
X6285625Y-12764375D02*
X6255625Y-12794375D01*
X6312317Y-7455317D02*
X6342317Y-7485317D01*
X6342317Y-7455317D02*
X6312317Y-7485317D01*
X6373100Y-7554200D02*
X6403100Y-7584200D01*
X6403100Y-7554200D02*
X6373100Y-7584200D01*
X6423900Y-10602200D02*
X6453900Y-10632200D01*
X6453900Y-10602200D02*
X6423900Y-10632200D01*
X6652500Y-9589375D02*
X6682500Y-9619375D01*
X6682500Y-9589375D02*
X6652500Y-9619375D01*
X6652500Y-10859375D02*
X6682500Y-10889375D01*
X6682500Y-10859375D02*
X6652500Y-10889375D01*
X6788567Y-9360317D02*
X6818567Y-9390317D01*
X6818567Y-9360317D02*
X6788567Y-9390317D01*
X6849350Y-9459200D02*
X6879350Y-9489200D01*
X6879350Y-9459200D02*
X6849350Y-9489200D01*
X7020800Y-12037300D02*
X7050800Y-12067300D01*
X7050800Y-12037300D02*
X7020800Y-12067300D01*
X7097000Y-11986500D02*
X7127000Y-12016500D01*
X7127000Y-11986500D02*
X7097000Y-12016500D01*
X7128750Y-5144375D02*
X7158750Y-5174375D01*
X7158750Y-5144375D02*
X7128750Y-5174375D01*
X7128750Y-11494375D02*
X7158750Y-11524375D01*
X7158750Y-11494375D02*
X7128750Y-11524375D01*
X7135100Y-13510500D02*
X7165100Y-13540500D01*
X7165100Y-13510500D02*
X7135100Y-13540500D01*
X7211300Y-11821400D02*
X7241300Y-11851400D01*
X7241300Y-11821400D02*
X7211300Y-11851400D01*
X7224000Y-13345400D02*
X7254000Y-13375400D01*
X7254000Y-13345400D02*
X7224000Y-13375400D01*
X7251116Y-11683416D02*
X7281116Y-11713416D01*
X7281116Y-11683416D02*
X7251116Y-11713416D01*
X7264817Y-11265317D02*
X7294817Y-11295317D01*
X7294817Y-11265317D02*
X7264817Y-11295317D01*
X7325600Y-11364200D02*
X7355600Y-11394200D01*
X7355600Y-11364200D02*
X7325600Y-11394200D01*
X7605000Y-5779375D02*
X7635000Y-5809375D01*
X7635000Y-5779375D02*
X7605000Y-5809375D01*
X7684375Y-7049375D02*
X7714375Y-7079375D01*
X7714375Y-7049375D02*
X7684375Y-7079375D01*
X7741067Y-5550317D02*
X7771067Y-5580317D01*
X7771067Y-5550317D02*
X7741067Y-5580317D01*
X7801850Y-5649200D02*
X7831850Y-5679200D01*
X7831850Y-5649200D02*
X7801850Y-5679200D01*
X8081250Y-7684375D02*
X8111250Y-7714375D01*
X8111250Y-7684375D02*
X8081250Y-7714375D01*
X8100300Y-13269200D02*
X8130300Y-13299200D01*
X8130300Y-13269200D02*
X8100300Y-13299200D01*
X8160625Y-8954375D02*
X8190625Y-8984375D01*
X8190625Y-8954375D02*
X8160625Y-8984375D01*
X8217317Y-7455317D02*
X8247317Y-7485317D01*
X8247317Y-7455317D02*
X8217317Y-7485317D01*
X8278100Y-7554200D02*
X8308100Y-7584200D01*
X8308100Y-7554200D02*
X8278100Y-7584200D01*
X8303500Y-13180300D02*
X8333500Y-13210300D01*
X8333500Y-13180300D02*
X8303500Y-13210300D01*
X8430500Y-13180300D02*
X8460500Y-13210300D01*
X8460500Y-13180300D02*
X8430500Y-13210300D01*
X8557500Y-9589375D02*
X8587500Y-9619375D01*
X8587500Y-9589375D02*
X8557500Y-9619375D01*
X8636875Y-10859375D02*
X8666875Y-10889375D01*
X8666875Y-10859375D02*
X8636875Y-10889375D01*
X8693567Y-9360317D02*
X8723567Y-9390317D01*
X8723567Y-9360317D02*
X8693567Y-9390317D01*
X8754350Y-9459200D02*
X8784350Y-9489200D01*
X8784350Y-9459200D02*
X8754350Y-9489200D01*
X8758160Y-10134840D02*
X8788160Y-10164840D01*
X8788160Y-10134840D02*
X8758160Y-10164840D01*
X9033750Y-5144375D02*
X9063750Y-5174375D01*
X9063750Y-5144375D02*
X9033750Y-5174375D01*
X9033750Y-11494375D02*
X9063750Y-11524375D01*
X9063750Y-11494375D02*
X9033750Y-11524375D01*
X9103600Y-11783300D02*
X9133600Y-11813300D01*
X9133600Y-11783300D02*
X9103600Y-11813300D01*
X9113125Y-12764375D02*
X9143125Y-12794375D01*
X9143125Y-12764375D02*
X9113125Y-12794375D01*
X9169817Y-11265317D02*
X9199817Y-11295317D01*
X9199817Y-11265317D02*
X9169817Y-11295317D01*
X9230600Y-11364200D02*
X9260600Y-11394200D01*
X9260600Y-11364200D02*
X9230600Y-11394200D01*
X9370300Y-12507200D02*
X9400300Y-12537200D01*
X9400300Y-12507200D02*
X9370300Y-12537200D01*
X9510000Y-5779375D02*
X9540000Y-5809375D01*
X9540000Y-5779375D02*
X9510000Y-5809375D01*
X9589375Y-7049375D02*
X9619375Y-7079375D01*
X9619375Y-7049375D02*
X9589375Y-7079375D01*
X9646067Y-5550317D02*
X9676067Y-5580317D01*
X9676067Y-5550317D02*
X9646067Y-5580317D01*
X9706850Y-5649200D02*
X9736850Y-5679200D01*
X9736850Y-5649200D02*
X9706850Y-5679200D01*
X9986250Y-7684375D02*
X10016250Y-7714375D01*
X10016250Y-7684375D02*
X9986250Y-7714375D01*
X10065625Y-8954375D02*
X10095625Y-8984375D01*
X10095625Y-8954375D02*
X10065625Y-8984375D01*
X10122317Y-7455317D02*
X10152317Y-7485317D01*
X10152317Y-7455317D02*
X10122317Y-7485317D01*
X10183100Y-7554200D02*
X10213100Y-7584200D01*
X10213100Y-7554200D02*
X10183100Y-7584200D01*
X10195800Y-13040600D02*
X10225800Y-13070600D01*
X10225800Y-13040600D02*
X10195800Y-13070600D01*
X10195800Y-13167600D02*
X10225800Y-13197600D01*
X10225800Y-13167600D02*
X10195800Y-13197600D01*
X10462500Y-9589375D02*
X10492500Y-9619375D01*
X10492500Y-9589375D02*
X10462500Y-9619375D01*
X10541875Y-10859375D02*
X10571875Y-10889375D01*
X10571875Y-10859375D02*
X10541875Y-10889375D01*
X10598567Y-9360317D02*
X10628567Y-9390317D01*
X10628567Y-9360317D02*
X10598567Y-9390317D01*
X10655540Y-10104360D02*
X10685540Y-10134360D01*
X10685540Y-10104360D02*
X10655540Y-10134360D01*
X10659350Y-9459200D02*
X10689350Y-9489200D01*
X10689350Y-9459200D02*
X10659350Y-9489200D01*
X10907000Y-13396200D02*
X10937000Y-13426200D01*
X10937000Y-13396200D02*
X10907000Y-13426200D01*
X10938750Y-11494375D02*
X10968750Y-11524375D01*
X10968750Y-11494375D02*
X10938750Y-11524375D01*
X10945100Y-13218400D02*
X10975100Y-13248400D01*
X10975100Y-13218400D02*
X10945100Y-13248400D01*
X10945100Y-13307300D02*
X10975100Y-13337300D01*
X10975100Y-13307300D02*
X10945100Y-13337300D01*
X10995900Y-11719800D02*
X11025900Y-11749800D01*
X11025900Y-11719800D02*
X10995900Y-11749800D01*
X11018125Y-5144375D02*
X11048125Y-5174375D01*
X11048125Y-5144375D02*
X11018125Y-5174375D01*
X11046700Y-13129500D02*
X11076700Y-13159500D01*
X11076700Y-13129500D02*
X11046700Y-13159500D01*
X11074817Y-11265317D02*
X11104817Y-11295317D01*
X11104817Y-11265317D02*
X11074817Y-11295317D01*
X11135600Y-11364200D02*
X11165600Y-11394200D01*
X11165600Y-11364200D02*
X11135600Y-11394200D01*
X11415000Y-5779375D02*
X11445000Y-5809375D01*
X11445000Y-5779375D02*
X11415000Y-5809375D01*
X11494375Y-7049375D02*
X11524375Y-7079375D01*
X11524375Y-7049375D02*
X11494375Y-7079375D01*
X11551067Y-5550317D02*
X11581067Y-5580317D01*
X11581067Y-5550317D02*
X11551067Y-5580317D01*
X11611850Y-5649200D02*
X11641850Y-5679200D01*
X11641850Y-5649200D02*
X11611850Y-5679200D01*
X11732500Y-12764375D02*
X11762500Y-12794375D01*
X11762500Y-12764375D02*
X11732500Y-12794375D01*
X11891250Y-7684375D02*
X11921250Y-7714375D01*
X11921250Y-7684375D02*
X11891250Y-7714375D01*
X11970625Y-8954375D02*
X12000625Y-8984375D01*
X12000625Y-8954375D02*
X11970625Y-8984375D01*
X12027317Y-7455317D02*
X12057317Y-7485317D01*
X12057317Y-7455317D02*
X12027317Y-7485317D01*
X12088100Y-7554200D02*
X12118100Y-7584200D01*
X12118100Y-7554200D02*
X12088100Y-7584200D01*
X12367500Y-9589375D02*
X12397500Y-9619375D01*
X12397500Y-9589375D02*
X12367500Y-9619375D01*
X12446875Y-10859375D02*
X12476875Y-10889375D01*
X12476875Y-10859375D02*
X12446875Y-10889375D01*
X12503567Y-9360317D02*
X12533567Y-9390317D01*
X12533567Y-9360317D02*
X12503567Y-9390317D01*
X12550380Y-10063720D02*
X12580380Y-10093720D01*
X12580380Y-10063720D02*
X12550380Y-10093720D01*
X12558000Y-13358100D02*
X12588000Y-13388100D01*
X12588000Y-13358100D02*
X12558000Y-13388100D01*
X12564350Y-9459200D02*
X12594350Y-9489200D01*
X12594350Y-9459200D02*
X12564350Y-9489200D01*
X12646900Y-13129500D02*
X12676900Y-13159500D01*
X12676900Y-13129500D02*
X12646900Y-13159500D01*
X12843750Y-11494375D02*
X12873750Y-11524375D01*
X12873750Y-11494375D02*
X12843750Y-11524375D01*
X12888200Y-11681700D02*
X12918200Y-11711700D01*
X12918200Y-11681700D02*
X12888200Y-11711700D01*
X12923125Y-5144375D02*
X12953125Y-5174375D01*
X12953125Y-5144375D02*
X12923125Y-5174375D01*
X12979817Y-11265317D02*
X13009817Y-11295317D01*
X13009817Y-11265317D02*
X12979817Y-11295317D01*
X13040600Y-11364200D02*
X13070600Y-11394200D01*
X13070600Y-11364200D02*
X13040600Y-11394200D01*
X13294600Y-13345400D02*
X13324600Y-13375400D01*
X13324600Y-13345400D02*
X13294600Y-13375400D01*
X13320000Y-5779375D02*
X13350000Y-5809375D01*
X13350000Y-5779375D02*
X13320000Y-5809375D01*
X13399375Y-7049375D02*
X13429375Y-7079375D01*
X13429375Y-7049375D02*
X13399375Y-7079375D01*
X13456067Y-5550317D02*
X13486067Y-5580317D01*
X13486067Y-5550317D02*
X13456067Y-5580317D01*
X13497800Y-13269200D02*
X13527800Y-13299200D01*
X13527800Y-13269200D02*
X13497800Y-13299200D01*
X13516850Y-5649200D02*
X13546850Y-5679200D01*
X13546850Y-5649200D02*
X13516850Y-5679200D01*
X13561300Y-13332700D02*
X13591300Y-13362700D01*
X13591300Y-13332700D02*
X13561300Y-13362700D01*
X13586700Y-7376400D02*
X13616700Y-7406400D01*
X13616700Y-7376400D02*
X13586700Y-7406400D01*
X13586700Y-7655800D02*
X13616700Y-7685800D01*
X13616700Y-7655800D02*
X13586700Y-7685800D01*
X13713700Y-7605000D02*
X13743700Y-7635000D01*
X13743700Y-7605000D02*
X13713700Y-7635000D01*
X13796250Y-7684375D02*
X13826250Y-7714375D01*
X13826250Y-7684375D02*
X13796250Y-7714375D01*
X13840700Y-7363700D02*
X13870700Y-7393700D01*
X13870700Y-7363700D02*
X13840700Y-7393700D01*
X13929600Y-12265900D02*
X13959600Y-12295900D01*
X13959600Y-12265900D02*
X13929600Y-12295900D01*
X13929600Y-12354800D02*
X13959600Y-12384800D01*
X13959600Y-12354800D02*
X13929600Y-12384800D01*
X13932317Y-7455317D02*
X13962317Y-7485317D01*
X13962317Y-7455317D02*
X13932317Y-7485317D01*
X13993100Y-7554200D02*
X14023100Y-7584200D01*
X14023100Y-7554200D02*
X13993100Y-7584200D01*
X14158200Y-12215100D02*
X14188200Y-12245100D01*
X14188200Y-12215100D02*
X14158200Y-12245100D01*
X14161375Y-13510500D02*
X14191375Y-13540500D01*
X14191375Y-13510500D02*
X14161375Y-13540500D01*
X14199475Y-13243800D02*
X14229475Y-13273800D01*
X14229475Y-13243800D02*
X14199475Y-13273800D01*
X14250275Y-13345400D02*
X14280275Y-13375400D01*
X14280275Y-13345400D02*
X14250275Y-13375400D01*
X14272500Y-9589375D02*
X14302500Y-9619375D01*
X14302500Y-9589375D02*
X14272500Y-9619375D01*
X14339175Y-13358100D02*
X14369175Y-13388100D01*
X14369175Y-13358100D02*
X14339175Y-13388100D01*
X14351875Y-10859375D02*
X14381875Y-10889375D01*
X14381875Y-10859375D02*
X14351875Y-10889375D01*
X14408567Y-9360317D02*
X14438567Y-9390317D01*
X14438567Y-9360317D02*
X14408567Y-9390317D01*
X14442680Y-10012920D02*
X14472680Y-10042920D01*
X14472680Y-10012920D02*
X14442680Y-10042920D01*
X14469350Y-9459200D02*
X14499350Y-9489200D01*
X14499350Y-9459200D02*
X14469350Y-9489200D01*
X14653500Y-12304000D02*
X14683500Y-12334000D01*
X14683500Y-12304000D02*
X14653500Y-12334000D01*
X14653500Y-12405600D02*
X14683500Y-12435600D01*
X14683500Y-12405600D02*
X14653500Y-12435600D01*
X14653500Y-12507200D02*
X14683500Y-12537200D01*
X14683500Y-12507200D02*
X14653500Y-12537200D01*
X14748750Y-11494375D02*
X14778750Y-11524375D01*
X14778750Y-11494375D02*
X14748750Y-11524375D01*
X14767800Y-11669000D02*
X14797800Y-11699000D01*
X14797800Y-11669000D02*
X14767800Y-11699000D01*
X14828125Y-5144375D02*
X14858125Y-5174375D01*
X14858125Y-5144375D02*
X14828125Y-5174375D01*
X14884817Y-11265317D02*
X14914817Y-11295317D01*
X14914817Y-11265317D02*
X14884817Y-11295317D01*
X14945600Y-11364200D02*
X14975600Y-11394200D01*
X14975600Y-11364200D02*
X14945600Y-11394200D01*
X14983700Y-13231100D02*
X15013700Y-13261100D01*
X15013700Y-13231100D02*
X14983700Y-13261100D01*
X15225000Y-5779375D02*
X15255000Y-5809375D01*
X15255000Y-5779375D02*
X15225000Y-5809375D01*
X15304375Y-7049375D02*
X15334375Y-7079375D01*
X15334375Y-7049375D02*
X15304375Y-7079375D01*
X15361067Y-5550317D02*
X15391067Y-5580317D01*
X15391067Y-5550317D02*
X15361067Y-5580317D01*
X15421850Y-5649200D02*
X15451850Y-5679200D01*
X15451850Y-5649200D02*
X15421850Y-5679200D01*
X15440900Y-8214600D02*
X15470900Y-8244600D01*
X15470900Y-8214600D02*
X15440900Y-8244600D01*
X15440900Y-12075400D02*
X15470900Y-12105400D01*
X15470900Y-12075400D02*
X15440900Y-12105400D01*
X15479000Y-11834100D02*
X15509000Y-11864100D01*
X15509000Y-11834100D02*
X15479000Y-11864100D01*
X15491700Y-12913600D02*
X15521700Y-12943600D01*
X15521700Y-12913600D02*
X15491700Y-12943600D01*
X15492934Y-8137166D02*
X15522934Y-8167166D01*
X15522934Y-8137166D02*
X15492934Y-8167166D01*
X15529800Y-12989800D02*
X15559800Y-13019800D01*
X15559800Y-12989800D02*
X15529800Y-13019800D01*
X15539325Y-8065375D02*
X15569325Y-8095375D01*
X15569325Y-8065375D02*
X15539325Y-8095375D01*
X15567900Y-13066000D02*
X15597900Y-13096000D01*
X15597900Y-13066000D02*
X15567900Y-13096000D01*
X15585523Y-7993777D02*
X15615523Y-8023777D01*
X15615523Y-7993777D02*
X15585523Y-8023777D01*
X15593300Y-11643600D02*
X15623300Y-11673600D01*
X15623300Y-11643600D02*
X15593300Y-11673600D01*
X15631294Y-7922605D02*
X15661294Y-7952605D01*
X15661294Y-7922605D02*
X15631294Y-7952605D01*
X15631400Y-12329400D02*
X15661400Y-12359400D01*
X15661400Y-12329400D02*
X15631400Y-12359400D01*
X15656800Y-12418300D02*
X15686800Y-12448300D01*
X15686800Y-12418300D02*
X15656800Y-12448300D01*
X15656800Y-13066000D02*
X15686800Y-13096000D01*
X15686800Y-13066000D02*
X15656800Y-13096000D01*
X15669500Y-11389600D02*
X15699500Y-11419600D01*
X15699500Y-11389600D02*
X15669500Y-11419600D01*
X15669500Y-11529300D02*
X15699500Y-11559300D01*
X15699500Y-11529300D02*
X15669500Y-11559300D01*
X15674580Y-7841220D02*
X15704580Y-7871220D01*
X15704580Y-7841220D02*
X15674580Y-7871220D01*
X15701250Y-7684375D02*
X15731250Y-7714375D01*
X15731250Y-7684375D02*
X15701250Y-7714375D01*
X15745700Y-13066000D02*
X15775700Y-13096000D01*
X15775700Y-13066000D02*
X15745700Y-13096000D01*
X15834600Y-13066000D02*
X15864600Y-13096000D01*
X15864600Y-13066000D02*
X15834600Y-13096000D01*
X15837317Y-7455317D02*
X15867317Y-7485317D01*
X15867317Y-7455317D02*
X15837317Y-7485317D01*
X15898100Y-7554200D02*
X15928100Y-7584200D01*
X15928100Y-7554200D02*
X15898100Y-7584200D01*
X15923500Y-13066000D02*
X15953500Y-13096000D01*
X15953500Y-13066000D02*
X15923500Y-13096000D01*
X16012400Y-10647806D02*
X16042400Y-10677806D01*
X16042400Y-10647806D02*
X16012400Y-10677806D01*
X16012400Y-11694400D02*
X16042400Y-11724400D01*
X16042400Y-11694400D02*
X16012400Y-11724400D01*
X16012400Y-13066000D02*
X16042400Y-13096000D01*
X16042400Y-13066000D02*
X16012400Y-13096000D01*
X16101300Y-13066000D02*
X16131300Y-13096000D01*
X16131300Y-13066000D02*
X16101300Y-13096000D01*
X16126700Y-11935700D02*
X16156700Y-11965700D01*
X16156700Y-11935700D02*
X16126700Y-11965700D01*
X16177500Y-9589375D02*
X16207500Y-9619375D01*
X16207500Y-9589375D02*
X16177500Y-9619375D01*
X16274667Y-10505033D02*
X16304667Y-10535033D01*
X16304667Y-10505033D02*
X16274667Y-10535033D01*
X16279100Y-13040600D02*
X16309100Y-13070600D01*
X16309100Y-13040600D02*
X16279100Y-13070600D01*
X16313567Y-9360317D02*
X16343567Y-9390317D01*
X16343567Y-9360317D02*
X16313567Y-9390317D01*
X16337520Y-9972280D02*
X16367520Y-10002280D01*
X16367520Y-9972280D02*
X16337520Y-10002280D01*
X16342600Y-12977100D02*
X16372600Y-13007100D01*
X16372600Y-12977100D02*
X16342600Y-13007100D01*
X16350220Y-10543780D02*
X16380220Y-10573780D01*
X16380220Y-10543780D02*
X16350220Y-10573780D01*
X16374350Y-9459200D02*
X16404350Y-9489200D01*
X16404350Y-9459200D02*
X16374350Y-9489200D01*
X16406100Y-12913600D02*
X16436100Y-12943600D01*
X16436100Y-12913600D02*
X16406100Y-12943600D01*
X16431500Y-10043400D02*
X16461500Y-10073400D01*
X16461500Y-10043400D02*
X16431500Y-10073400D01*
X16469600Y-12850100D02*
X16499600Y-12880100D01*
X16499600Y-12850100D02*
X16469600Y-12880100D01*
X16533100Y-12786600D02*
X16563100Y-12816600D01*
X16563100Y-12786600D02*
X16533100Y-12816600D01*
X16558500Y-9979900D02*
X16588500Y-10009900D01*
X16588500Y-9979900D02*
X16558500Y-10009900D01*
X16558500Y-11592800D02*
X16588500Y-11622800D01*
X16588500Y-11592800D02*
X16558500Y-11622800D01*
X16653050Y-11834100D02*
X16683050Y-11864100D01*
X16683050Y-11834100D02*
X16653050Y-11864100D01*
X16653750Y-11494375D02*
X16683750Y-11524375D01*
X16683750Y-11494375D02*
X16653750Y-11524375D01*
X16660100Y-13459700D02*
X16690100Y-13489700D01*
X16690100Y-13459700D02*
X16660100Y-13489700D01*
X16710900Y-12227800D02*
X16740900Y-12257800D01*
X16740900Y-12227800D02*
X16710900Y-12257800D01*
X16733125Y-5144375D02*
X16763125Y-5174375D01*
X16763125Y-5144375D02*
X16733125Y-5174375D01*
X16758975Y-13462425D02*
X16788975Y-13492425D01*
X16788975Y-13462425D02*
X16758975Y-13492425D01*
X16761700Y-11948400D02*
X16791700Y-11978400D01*
X16791700Y-11948400D02*
X16761700Y-11978400D01*
X16787100Y-13320000D02*
X16817100Y-13350000D01*
X16817100Y-13320000D02*
X16787100Y-13350000D01*
X16789817Y-11265317D02*
X16819817Y-11295317D01*
X16819817Y-11265317D02*
X16789817Y-11295317D01*
X16812500Y-10106900D02*
X16842500Y-10136900D01*
X16842500Y-10106900D02*
X16812500Y-10136900D01*
X16824742Y-13129042D02*
X16854742Y-13159042D01*
X16854742Y-13129042D02*
X16824742Y-13159042D01*
X16850600Y-11364200D02*
X16880600Y-11394200D01*
X16880600Y-11364200D02*
X16850600Y-11394200D01*
X16863300Y-13459700D02*
X16893300Y-13489700D01*
X16893300Y-13459700D02*
X16863300Y-13489700D01*
X16901400Y-12773900D02*
X16931400Y-12803900D01*
X16931400Y-12773900D02*
X16901400Y-12803900D01*
X16964900Y-13180300D02*
X16994900Y-13210300D01*
X16994900Y-13180300D02*
X16964900Y-13210300D01*
X16990300Y-11986500D02*
X17020300Y-12016500D01*
X17020300Y-11986500D02*
X16990300Y-12016500D01*
X17066500Y-9979900D02*
X17096500Y-10009900D01*
X17096500Y-9979900D02*
X17066500Y-10009900D01*
X17130000Y-5779375D02*
X17160000Y-5809375D01*
X17160000Y-5779375D02*
X17130000Y-5809375D01*
X17130000Y-7049375D02*
X17160000Y-7079375D01*
X17160000Y-7049375D02*
X17130000Y-7079375D01*
X17266067Y-5550317D02*
X17296067Y-5580317D01*
X17296067Y-5550317D02*
X17266067Y-5580317D01*
X17326850Y-5649200D02*
X17356850Y-5679200D01*
X17356850Y-5649200D02*
X17326850Y-5679200D01*
X17460200Y-13323950D02*
X17490200Y-13353950D01*
X17490200Y-13323950D02*
X17460200Y-13353950D01*
X17561800Y-13408900D02*
X17591800Y-13438900D01*
X17591800Y-13408900D02*
X17561800Y-13438900D01*
X17587200Y-8214600D02*
X17617200Y-8244600D01*
X17617200Y-8214600D02*
X17587200Y-8244600D01*
X17606250Y-7684375D02*
X17636250Y-7714375D01*
X17636250Y-7684375D02*
X17606250Y-7714375D01*
X17606250Y-8954375D02*
X17636250Y-8984375D01*
X17636250Y-8954375D02*
X17606250Y-8984375D01*
X17638000Y-13459700D02*
X17668000Y-13489700D01*
X17668000Y-13459700D02*
X17638000Y-13489700D01*
X17742317Y-7455317D02*
X17772317Y-7485317D01*
X17772317Y-7455317D02*
X17742317Y-7485317D01*
X17765000Y-8621000D02*
X17795000Y-8651000D01*
X17795000Y-8621000D02*
X17765000Y-8651000D01*
X17803100Y-7554200D02*
X17833100Y-7584200D01*
X17833100Y-7554200D02*
X17803100Y-7584200D01*
X18006300Y-11224500D02*
X18036300Y-11254500D01*
X18036300Y-11224500D02*
X18006300Y-11254500D01*
X18006300Y-12164300D02*
X18036300Y-12194300D01*
X18036300Y-12164300D02*
X18006300Y-12194300D01*
X18006300Y-12367500D02*
X18036300Y-12397500D01*
X18036300Y-12367500D02*
X18006300Y-12397500D01*
X18006300Y-12977100D02*
X18036300Y-13007100D01*
X18036300Y-12977100D02*
X18006300Y-13007100D01*
X18082500Y-9589375D02*
X18112500Y-9619375D01*
X18112500Y-9589375D02*
X18082500Y-9619375D01*
X18107900Y-10856200D02*
X18137900Y-10886200D01*
X18137900Y-10856200D02*
X18107900Y-10886200D01*
X18110263Y-9990237D02*
X18140263Y-10020237D01*
X18140263Y-9990237D02*
X18110263Y-10020237D01*
X18196800Y-11224500D02*
X18226800Y-11254500D01*
X18226800Y-11224500D02*
X18196800Y-11254500D01*
X18196800Y-11961100D02*
X18226800Y-11991100D01*
X18226800Y-11961100D02*
X18196800Y-11991100D01*
X18218567Y-9360317D02*
X18248567Y-9390317D01*
X18248567Y-9360317D02*
X18218567Y-9390317D01*
X18232360Y-9931640D02*
X18262360Y-9961640D01*
X18262360Y-9931640D02*
X18232360Y-9961640D01*
X18279350Y-9459200D02*
X18309350Y-9489200D01*
X18309350Y-9459200D02*
X18279350Y-9489200D01*
X18514300Y-11630900D02*
X18544300Y-11660900D01*
X18544300Y-11630900D02*
X18514300Y-11660900D01*
X18558750Y-11494375D02*
X18588750Y-11524375D01*
X18588750Y-11494375D02*
X18558750Y-11524375D01*
X18558750Y-12764375D02*
X18588750Y-12794375D01*
X18588750Y-12764375D02*
X18558750Y-12794375D01*
X18638125Y-5144375D02*
X18668125Y-5174375D01*
X18668125Y-5144375D02*
X18638125Y-5174375D01*
X18694817Y-11265317D02*
X18724817Y-11295317D01*
X18724817Y-11265317D02*
X18694817Y-11295317D01*
X18755600Y-11364200D02*
X18785600Y-11394200D01*
X18785600Y-11364200D02*
X18755600Y-11394200D01*
X18806400Y-11910300D02*
X18836400Y-11940300D01*
X18836400Y-11910300D02*
X18806400Y-11940300D01*
X18882600Y-12507200D02*
X18912600Y-12537200D01*
X18912600Y-12507200D02*
X18882600Y-12537200D01*
X19035000Y-5779375D02*
X19065000Y-5809375D01*
X19065000Y-5779375D02*
X19035000Y-5809375D01*
X19114375Y-7049375D02*
X19144375Y-7079375D01*
X19144375Y-7049375D02*
X19114375Y-7079375D01*
X19136600Y-13180300D02*
X19166600Y-13210300D01*
X19166600Y-13180300D02*
X19136600Y-13210300D01*
X19171067Y-5550317D02*
X19201067Y-5580317D01*
X19201067Y-5550317D02*
X19171067Y-5580317D01*
X19231850Y-5649200D02*
X19261850Y-5679200D01*
X19261850Y-5649200D02*
X19231850Y-5679200D01*
X19263600Y-13243800D02*
X19293600Y-13273800D01*
X19293600Y-13243800D02*
X19263600Y-13273800D01*
X19441400Y-13104100D02*
X19471400Y-13134100D01*
X19471400Y-13104100D02*
X19441400Y-13134100D01*
X19511250Y-7684375D02*
X19541250Y-7714375D01*
X19541250Y-7684375D02*
X19511250Y-7714375D01*
X19517600Y-12964400D02*
X19547600Y-12994400D01*
X19547600Y-12964400D02*
X19517600Y-12994400D01*
X19530300Y-13154900D02*
X19560300Y-13184900D01*
X19560300Y-13154900D02*
X19530300Y-13184900D01*
X19590625Y-8954375D02*
X19620625Y-8984375D01*
X19620625Y-8954375D02*
X19590625Y-8984375D01*
X19593800Y-13218400D02*
X19623800Y-13248400D01*
X19623800Y-13218400D02*
X19593800Y-13248400D01*
X19647317Y-7455317D02*
X19677317Y-7485317D01*
X19677317Y-7455317D02*
X19647317Y-7485317D01*
X19708100Y-7554200D02*
X19738100Y-7584200D01*
X19738100Y-7554200D02*
X19708100Y-7584200D01*
X19784300Y-9306800D02*
X19814300Y-9336800D01*
X19814300Y-9306800D02*
X19784300Y-9336800D01*
X19784300Y-9573500D02*
X19814300Y-9603500D01*
X19814300Y-9573500D02*
X19784300Y-9603500D01*
X19826400Y-13582700D02*
X19856400Y-13612700D01*
X19856400Y-13582700D02*
X19826400Y-13612700D01*
X19898600Y-9497300D02*
X19928600Y-9527300D01*
X19928600Y-9497300D02*
X19898600Y-9527300D01*
X19987500Y-9589375D02*
X20017500Y-9619375D01*
X20017500Y-9589375D02*
X19987500Y-9619375D01*
X19987500Y-10859375D02*
X20017500Y-10889375D01*
X20017500Y-10859375D02*
X19987500Y-10889375D01*
X20038300Y-9268700D02*
X20068300Y-9298700D01*
X20068300Y-9268700D02*
X20038300Y-9298700D01*
X20123567Y-9360317D02*
X20153567Y-9390317D01*
X20153567Y-9360317D02*
X20123567Y-9390317D01*
X20132280Y-9911320D02*
X20162280Y-9941320D01*
X20162280Y-9911320D02*
X20132280Y-9941320D01*
X20152600Y-13053300D02*
X20182600Y-13083300D01*
X20182600Y-13053300D02*
X20152600Y-13083300D01*
X20184350Y-9459200D02*
X20214350Y-9489200D01*
X20214350Y-9459200D02*
X20184350Y-9489200D01*
X20201584Y-13508684D02*
X20231584Y-13538684D01*
X20231584Y-13508684D02*
X20201584Y-13538684D01*
X20463750Y-5144375D02*
X20493750Y-5174375D01*
X20493750Y-5144375D02*
X20463750Y-5174375D01*
X20463750Y-11494375D02*
X20493750Y-11524375D01*
X20493750Y-11494375D02*
X20463750Y-11524375D01*
X20508200Y-11669000D02*
X20538200Y-11699000D01*
X20538200Y-11669000D02*
X20508200Y-11699000D01*
X20546300Y-13243800D02*
X20576300Y-13273800D01*
X20576300Y-13243800D02*
X20546300Y-13273800D01*
X20599817Y-11265317D02*
X20629817Y-11295317D01*
X20629817Y-11265317D02*
X20599817Y-11295317D01*
X20660600Y-11364200D02*
X20690600Y-11394200D01*
X20690600Y-11364200D02*
X20660600Y-11394200D01*
X20736800Y-12316700D02*
X20766800Y-12346700D01*
X20766800Y-12316700D02*
X20736800Y-12346700D01*
X20762200Y-12989800D02*
X20792200Y-13019800D01*
X20792200Y-12989800D02*
X20762200Y-13019800D01*
X20762200Y-13129500D02*
X20792200Y-13159500D01*
X20792200Y-13129500D02*
X20762200Y-13159500D01*
X20940000Y-5779375D02*
X20970000Y-5809375D01*
X20970000Y-5779375D02*
X20940000Y-5809375D01*
X21019375Y-7049375D02*
X21049375Y-7079375D01*
X21049375Y-7049375D02*
X21019375Y-7079375D01*
X21076067Y-5550317D02*
X21106067Y-5580317D01*
X21106067Y-5550317D02*
X21076067Y-5580317D01*
X21136850Y-5649200D02*
X21166850Y-5679200D01*
X21166850Y-5649200D02*
X21136850Y-5679200D01*
X21178125Y-12764375D02*
X21208125Y-12794375D01*
X21208125Y-12764375D02*
X21178125Y-12794375D01*
X21257500Y-11872200D02*
X21287500Y-11902200D01*
X21287500Y-11872200D02*
X21257500Y-11902200D01*
X21257500Y-13612100D02*
X21287500Y-13642100D01*
X21287500Y-13612100D02*
X21257500Y-13642100D01*
X21416250Y-7684375D02*
X21446250Y-7714375D01*
X21446250Y-7684375D02*
X21416250Y-7714375D01*
X21495625Y-8954375D02*
X21525625Y-8984375D01*
X21525625Y-8954375D02*
X21495625Y-8984375D01*
X21552317Y-7455317D02*
X21582317Y-7485317D01*
X21582317Y-7455317D02*
X21552317Y-7485317D01*
X21613100Y-7554200D02*
X21643100Y-7584200D01*
X21643100Y-7554200D02*
X21613100Y-7584200D01*
X21854400Y-13459700D02*
X21884400Y-13489700D01*
X21884400Y-13459700D02*
X21854400Y-13489700D01*
X21892500Y-9589375D02*
X21922500Y-9619375D01*
X21922500Y-9589375D02*
X21892500Y-9619375D01*
X21971875Y-10859375D02*
X22001875Y-10889375D01*
X22001875Y-10859375D02*
X21971875Y-10889375D01*
X22024580Y-9860520D02*
X22054580Y-9890520D01*
X22054580Y-9860520D02*
X22024580Y-9890520D01*
X22028567Y-9360317D02*
X22058567Y-9390317D01*
X22058567Y-9360317D02*
X22028567Y-9390317D01*
X22089350Y-9459200D02*
X22119350Y-9489200D01*
X22119350Y-9459200D02*
X22089350Y-9489200D01*
X22368750Y-5144375D02*
X22398750Y-5174375D01*
X22398750Y-5144375D02*
X22368750Y-5174375D01*
X22368750Y-11494375D02*
X22398750Y-11524375D01*
X22398750Y-11494375D02*
X22368750Y-11524375D01*
X22413200Y-11681700D02*
X22443200Y-11711700D01*
X22443200Y-11681700D02*
X22413200Y-11711700D01*
X22504817Y-11265317D02*
X22534817Y-11295317D01*
X22534817Y-11265317D02*
X22504817Y-11295317D01*
X22565600Y-11364200D02*
X22595600Y-11394200D01*
X22595600Y-11364200D02*
X22565600Y-11394200D01*
X22654500Y-12354800D02*
X22684500Y-12384800D01*
X22684500Y-12354800D02*
X22654500Y-12384800D01*
X22845000Y-5779375D02*
X22875000Y-5809375D01*
X22875000Y-5779375D02*
X22845000Y-5809375D01*
X22924375Y-7049375D02*
X22954375Y-7079375D01*
X22954375Y-7049375D02*
X22924375Y-7079375D01*
X22981067Y-5550317D02*
X23011067Y-5580317D01*
X23011067Y-5550317D02*
X22981067Y-5580317D01*
X23035500Y-13053300D02*
X23065500Y-13083300D01*
X23065500Y-13053300D02*
X23035500Y-13083300D01*
X23035500Y-13243800D02*
X23065500Y-13273800D01*
X23065500Y-13243800D02*
X23035500Y-13273800D01*
X23035500Y-13396200D02*
X23065500Y-13426200D01*
X23065500Y-13396200D02*
X23035500Y-13426200D01*
X23041850Y-5649200D02*
X23071850Y-5679200D01*
X23071850Y-5649200D02*
X23041850Y-5679200D01*
X23321250Y-7684375D02*
X23351250Y-7714375D01*
X23351250Y-7684375D02*
X23321250Y-7714375D01*
X23400625Y-8954375D02*
X23430625Y-8984375D01*
X23430625Y-8954375D02*
X23400625Y-8984375D01*
X23457317Y-7455317D02*
X23487317Y-7485317D01*
X23487317Y-7455317D02*
X23457317Y-7485317D01*
X23518100Y-7554200D02*
X23548100Y-7584200D01*
X23548100Y-7554200D02*
X23518100Y-7584200D01*
X23645100Y-4836400D02*
X23675100Y-4866400D01*
X23675100Y-4836400D02*
X23645100Y-4866400D01*
X23797500Y-6573125D02*
X23827500Y-6603125D01*
X23827500Y-6573125D02*
X23797500Y-6603125D01*
X23797500Y-9589375D02*
X23827500Y-9619375D01*
X23827500Y-9589375D02*
X23797500Y-9619375D01*
X23876875Y-10859375D02*
X23906875Y-10889375D01*
X23906875Y-10859375D02*
X23876875Y-10889375D01*
X23919420Y-9819880D02*
X23949420Y-9849880D01*
X23949420Y-9819880D02*
X23919420Y-9849880D01*
X23933567Y-9360317D02*
X23963567Y-9390317D01*
X23963567Y-9360317D02*
X23933567Y-9390317D01*
X23994350Y-9459200D02*
X24024350Y-9489200D01*
X24024350Y-9459200D02*
X23994350Y-9489200D01*
X24229300Y-13053300D02*
X24259300Y-13083300D01*
X24259300Y-13053300D02*
X24229300Y-13083300D01*
X24229300Y-13243800D02*
X24259300Y-13273800D01*
X24259300Y-13243800D02*
X24229300Y-13273800D01*
X24229300Y-13358100D02*
X24259300Y-13388100D01*
X24259300Y-13358100D02*
X24229300Y-13388100D01*
X24273750Y-8478125D02*
X24303750Y-8508125D01*
X24303750Y-8478125D02*
X24273750Y-8508125D01*
X24273750Y-11494375D02*
X24303750Y-11524375D01*
X24303750Y-11494375D02*
X24273750Y-11524375D01*
X24330900Y-11719800D02*
X24360900Y-11749800D01*
X24360900Y-11719800D02*
X24330900Y-11749800D01*
X24353125Y-5144375D02*
X24383125Y-5174375D01*
X24383125Y-5144375D02*
X24353125Y-5174375D01*
X24357298Y-7472350D02*
X24387298Y-7502350D01*
X24387298Y-7472350D02*
X24357298Y-7502350D01*
X24409817Y-11265317D02*
X24439817Y-11295317D01*
X24439817Y-11265317D02*
X24409817Y-11295317D01*
X24470600Y-11364200D02*
X24500600Y-11394200D01*
X24500600Y-11364200D02*
X24470600Y-11394200D01*
X24470600Y-11999200D02*
X24500600Y-12029200D01*
X24500600Y-11999200D02*
X24470600Y-12029200D01*
X24750000Y-10383125D02*
X24780000Y-10413125D01*
X24780000Y-10383125D02*
X24750000Y-10413125D01*
X24826998Y-9377350D02*
X24856998Y-9407350D01*
X24856998Y-9377350D02*
X24826998Y-9407350D01*
X24886067Y-5550317D02*
X24916067Y-5580317D01*
X24916067Y-5550317D02*
X24886067Y-5580317D01*
X24946850Y-5649200D02*
X24976850Y-5679200D01*
X24976850Y-5649200D02*
X24946850Y-5679200D01*
X24953200Y-5750800D02*
X24983200Y-5780800D01*
X24983200Y-5750800D02*
X24953200Y-5780800D01*
X24953200Y-13243800D02*
X24983200Y-13273800D01*
X24983200Y-13243800D02*
X24953200Y-13273800D01*
X24953200Y-13396200D02*
X24983200Y-13426200D01*
X24983200Y-13396200D02*
X24953200Y-13426200D01*
X25226250Y-7049375D02*
X25256250Y-7079375D01*
X25256250Y-7049375D02*
X25226250Y-7079375D01*
X25543750Y-8954375D02*
X25573750Y-8984375D01*
X25573750Y-8954375D02*
X25543750Y-8984375D01*
X25585249Y-4912600D02*
X25615249Y-4942600D01*
X25615249Y-4912600D02*
X25585249Y-4942600D01*
X25829500Y-7684375D02*
X25859500Y-7714375D01*
X25859500Y-7684375D02*
X25829500Y-7714375D01*
X25861250Y-10859375D02*
X25891250Y-10889375D01*
X25891250Y-10859375D02*
X25861250Y-10889375D01*
X26070800Y-9589375D02*
X26100800Y-9619375D01*
X26100800Y-9589375D02*
X26070800Y-9619375D01*
X26076692Y-7455317D02*
X26106692Y-7485317D01*
X26106692Y-7455317D02*
X26076692Y-7485317D01*
X26137475Y-7554200D02*
X26167475Y-7584200D01*
X26167475Y-7554200D02*
X26137475Y-7584200D01*
X26155467Y-9780933D02*
X26185467Y-9810933D01*
X26185467Y-9780933D02*
X26155467Y-9810933D01*
X26178750Y-12843750D02*
X26208750Y-12873750D01*
X26208750Y-12843750D02*
X26178750Y-12873750D01*
X26258125Y-5144375D02*
X26288125Y-5174375D01*
X26288125Y-5144375D02*
X26258125Y-5174375D01*
X26286700Y-12583400D02*
X26316700Y-12613400D01*
X26316700Y-12583400D02*
X26286700Y-12613400D01*
X26312100Y-11494375D02*
X26342100Y-11524375D01*
X26342100Y-11494375D02*
X26312100Y-11524375D01*
X26317992Y-9360317D02*
X26347992Y-9390317D01*
X26347992Y-9360317D02*
X26317992Y-9390317D01*
X26350200Y-11796000D02*
X26380200Y-11826000D01*
X26380200Y-11796000D02*
X26350200Y-11826000D01*
X26378775Y-9459200D02*
X26408775Y-9489200D01*
X26408775Y-9459200D02*
X26378775Y-9489200D01*
X26468389Y-11258711D02*
X26498389Y-11288711D01*
X26498389Y-11258711D02*
X26468389Y-11288711D01*
X26559292Y-11265317D02*
X26589292Y-11295317D01*
X26589292Y-11265317D02*
X26559292Y-11295317D01*
X26620075Y-11364200D02*
X26650075Y-11394200D01*
X26650075Y-11364200D02*
X26620075Y-11394200D01*
X26655000Y-13472400D02*
X26685000Y-13502400D01*
X26685000Y-13472400D02*
X26655000Y-13502400D01*
X26718500Y-13358100D02*
X26748500Y-13388100D01*
X26748500Y-13358100D02*
X26718500Y-13388100D01*
X26724850Y-13269200D02*
X26754850Y-13299200D01*
X26754850Y-13269200D02*
X26724850Y-13299200D01*
X26791067Y-5550317D02*
X26821067Y-5580317D01*
X26821067Y-5550317D02*
X26791067Y-5580317D01*
X26845500Y-5750800D02*
X26875500Y-5780800D01*
X26875500Y-5750800D02*
X26845500Y-5780800D01*
X26851850Y-5649200D02*
X26881850Y-5679200D01*
X26881850Y-5649200D02*
X26851850Y-5679200D01*
X26896300Y-13053300D02*
X26926300Y-13083300D01*
X26926300Y-13053300D02*
X26896300Y-13083300D01*
X27528125Y-12526250D02*
X27558125Y-12556250D01*
X27558125Y-12526250D02*
X27528125Y-12556250D01*
X27620200Y-13205700D02*
X27650200Y-13235700D01*
X27650200Y-13205700D02*
X27620200Y-13235700D01*
X27658300Y-13281900D02*
X27688300Y-13311900D01*
X27688300Y-13281900D02*
X27658300Y-13311900D01*
X27696400Y-13358100D02*
X27726400Y-13388100D01*
X27726400Y-13358100D02*
X27696400Y-13388100D01*
X27734500Y-13434300D02*
X27764500Y-13464300D01*
X27764500Y-13434300D02*
X27734500Y-13464300D01*
X27874200Y-11300700D02*
X27904200Y-11330700D01*
X27904200Y-11300700D02*
X27874200Y-11330700D01*
X27937700Y-11376900D02*
X27967700Y-11406900D01*
X27967700Y-11376900D02*
X27937700Y-11406900D01*
X28001200Y-11453100D02*
X28031200Y-11483100D01*
X28031200Y-11453100D02*
X28001200Y-11483100D01*
X28004375Y-5144375D02*
X28034375Y-5174375D01*
X28034375Y-5144375D02*
X28004375Y-5174375D01*
X28004375Y-7049375D02*
X28034375Y-7079375D01*
X28034375Y-7049375D02*
X28004375Y-7079375D01*
X28004375Y-10859375D02*
X28034375Y-10889375D01*
X28034375Y-10859375D02*
X28004375Y-10889375D01*
D13*
X2153125Y-4905375D02*
G75*
G03*
X2153125Y-4905375I-73500J0D01*
G01*
X2391250Y-6810375D02*
G75*
G03*
X2391250Y-6810375I-73500J0D01*
G01*
X2391250Y-12525375D02*
G75*
G03*
X2391250Y-12525375I-73500J0D01*
G01*
X2629375Y-8715375D02*
G75*
G03*
X2629375Y-8715375I-73500J0D01*
G01*
X2788125Y-4651375D02*
G75*
G03*
X2788125Y-4651375I-73500J0D01*
G01*
X2867500Y-10620375D02*
G75*
G03*
X2867500Y-10620375I-73500J0D01*
G01*
X3026250Y-6556375D02*
G75*
G03*
X3026250Y-6556375I-73500J0D01*
G01*
X3026250Y-12271375D02*
G75*
G03*
X3026250Y-12271375I-73500J0D01*
G01*
X3264375Y-8461375D02*
G75*
G03*
X3264375Y-8461375I-73500J0D01*
G01*
X3502500Y-10366375D02*
G75*
G03*
X3502500Y-10366375I-73500J0D01*
G01*
X4058125Y-4905375D02*
G75*
G03*
X4058125Y-4905375I-73500J0D01*
G01*
X4534375Y-6810375D02*
G75*
G03*
X4534375Y-6810375I-73500J0D01*
G01*
X4693125Y-4651375D02*
G75*
G03*
X4693125Y-4651375I-73500J0D01*
G01*
X4772500Y-12525375D02*
G75*
G03*
X4772500Y-12525375I-73500J0D01*
G01*
X5010625Y-8715375D02*
G75*
G03*
X5010625Y-8715375I-73500J0D01*
G01*
X5169375Y-6556375D02*
G75*
G03*
X5169375Y-6556375I-73500J0D01*
G01*
X5407500Y-12271375D02*
G75*
G03*
X5407500Y-12271375I-73500J0D01*
G01*
X5486875Y-10620375D02*
G75*
G03*
X5486875Y-10620375I-73500J0D01*
G01*
X5645625Y-8461375D02*
G75*
G03*
X5645625Y-8461375I-73500J0D01*
G01*
X5963125Y-4905375D02*
G75*
G03*
X5963125Y-4905375I-73500J0D01*
G01*
X6121875Y-10366375D02*
G75*
G03*
X6121875Y-10366375I-73500J0D01*
G01*
X6439375Y-6810375D02*
G75*
G03*
X6439375Y-6810375I-73500J0D01*
G01*
X6598125Y-4651375D02*
G75*
G03*
X6598125Y-4651375I-73500J0D01*
G01*
X6915625Y-8715375D02*
G75*
G03*
X6915625Y-8715375I-73500J0D01*
G01*
X7074375Y-6556375D02*
G75*
G03*
X7074375Y-6556375I-73500J0D01*
G01*
X7153750Y-12525375D02*
G75*
G03*
X7153750Y-12525375I-73500J0D01*
G01*
X7391875Y-10620375D02*
G75*
G03*
X7391875Y-10620375I-73500J0D01*
G01*
X7391875Y-12525375D02*
G75*
G03*
X7391875Y-12525375I-73500J0D01*
G01*
X7550625Y-8461375D02*
G75*
G03*
X7550625Y-8461375I-73500J0D01*
G01*
X7788750Y-12271375D02*
G75*
G03*
X7788750Y-12271375I-73500J0D01*
G01*
X7868125Y-4905375D02*
G75*
G03*
X7868125Y-4905375I-73500J0D01*
G01*
X8026875Y-10366375D02*
G75*
G03*
X8026875Y-10366375I-73500J0D01*
G01*
X8026875Y-12271375D02*
G75*
G03*
X8026875Y-12271375I-73500J0D01*
G01*
X8344375Y-6810375D02*
G75*
G03*
X8344375Y-6810375I-73500J0D01*
G01*
X8503125Y-4651375D02*
G75*
G03*
X8503125Y-4651375I-73500J0D01*
G01*
X8820625Y-8715375D02*
G75*
G03*
X8820625Y-8715375I-73500J0D01*
G01*
X8979375Y-6556375D02*
G75*
G03*
X8979375Y-6556375I-73500J0D01*
G01*
X9296875Y-10620375D02*
G75*
G03*
X9296875Y-10620375I-73500J0D01*
G01*
X9455625Y-8461375D02*
G75*
G03*
X9455625Y-8461375I-73500J0D01*
G01*
X9773125Y-4905375D02*
G75*
G03*
X9773125Y-4905375I-73500J0D01*
G01*
X9931875Y-10366375D02*
G75*
G03*
X9931875Y-10366375I-73500J0D01*
G01*
X10249375Y-6810375D02*
G75*
G03*
X10249375Y-6810375I-73500J0D01*
G01*
X10249375Y-12525375D02*
G75*
G03*
X10249375Y-12525375I-73500J0D01*
G01*
X10408125Y-4651375D02*
G75*
G03*
X10408125Y-4651375I-73500J0D01*
G01*
X10725625Y-8715375D02*
G75*
G03*
X10725625Y-8715375I-73500J0D01*
G01*
X10884375Y-6556375D02*
G75*
G03*
X10884375Y-6556375I-73500J0D01*
G01*
X10884375Y-12271375D02*
G75*
G03*
X10884375Y-12271375I-73500J0D01*
G01*
X11201875Y-10620375D02*
G75*
G03*
X11201875Y-10620375I-73500J0D01*
G01*
X11360625Y-8461375D02*
G75*
G03*
X11360625Y-8461375I-73500J0D01*
G01*
X11678125Y-4905375D02*
G75*
G03*
X11678125Y-4905375I-73500J0D01*
G01*
X11836875Y-10366375D02*
G75*
G03*
X11836875Y-10366375I-73500J0D01*
G01*
X12154375Y-6810375D02*
G75*
G03*
X12154375Y-6810375I-73500J0D01*
G01*
X12313125Y-4651375D02*
G75*
G03*
X12313125Y-4651375I-73500J0D01*
G01*
X12630625Y-8715375D02*
G75*
G03*
X12630625Y-8715375I-73500J0D01*
G01*
X12630625Y-12525375D02*
G75*
G03*
X12630625Y-12525375I-73500J0D01*
G01*
X12789375Y-6556375D02*
G75*
G03*
X12789375Y-6556375I-73500J0D01*
G01*
X13106875Y-10620375D02*
G75*
G03*
X13106875Y-10620375I-73500J0D01*
G01*
X13265625Y-8461375D02*
G75*
G03*
X13265625Y-8461375I-73500J0D01*
G01*
X13265625Y-12271375D02*
G75*
G03*
X13265625Y-12271375I-73500J0D01*
G01*
X13583125Y-4905375D02*
G75*
G03*
X13583125Y-4905375I-73500J0D01*
G01*
X13741875Y-10366375D02*
G75*
G03*
X13741875Y-10366375I-73500J0D01*
G01*
X14059375Y-6810375D02*
G75*
G03*
X14059375Y-6810375I-73500J0D01*
G01*
X14218125Y-4651375D02*
G75*
G03*
X14218125Y-4651375I-73500J0D01*
G01*
X14297500Y-12525375D02*
G75*
G03*
X14297500Y-12525375I-73500J0D01*
G01*
X14535625Y-8715375D02*
G75*
G03*
X14535625Y-8715375I-73500J0D01*
G01*
X14535625Y-12525375D02*
G75*
G03*
X14535625Y-12525375I-73500J0D01*
G01*
X14694375Y-6556375D02*
G75*
G03*
X14694375Y-6556375I-73500J0D01*
G01*
X14932500Y-12271375D02*
G75*
G03*
X14932500Y-12271375I-73500J0D01*
G01*
X15011875Y-10620375D02*
G75*
G03*
X15011875Y-10620375I-73500J0D01*
G01*
X15170625Y-8461375D02*
G75*
G03*
X15170625Y-8461375I-73500J0D01*
G01*
X15170625Y-12271375D02*
G75*
G03*
X15170625Y-12271375I-73500J0D01*
G01*
X15488125Y-4905375D02*
G75*
G03*
X15488125Y-4905375I-73500J0D01*
G01*
X15646875Y-10366375D02*
G75*
G03*
X15646875Y-10366375I-73500J0D01*
G01*
X15964375Y-6810375D02*
G75*
G03*
X15964375Y-6810375I-73500J0D01*
G01*
X16123125Y-4651375D02*
G75*
G03*
X16123125Y-4651375I-73500J0D01*
G01*
X16440625Y-8715375D02*
G75*
G03*
X16440625Y-8715375I-73500J0D01*
G01*
X16599375Y-6556375D02*
G75*
G03*
X16599375Y-6556375I-73500J0D01*
G01*
X16916875Y-10620375D02*
G75*
G03*
X16916875Y-10620375I-73500J0D01*
G01*
X16916875Y-12525375D02*
G75*
G03*
X16916875Y-12525375I-73500J0D01*
G01*
X17075625Y-8461375D02*
G75*
G03*
X17075625Y-8461375I-73500J0D01*
G01*
X17393125Y-4905375D02*
G75*
G03*
X17393125Y-4905375I-73500J0D01*
G01*
X17551875Y-10366375D02*
G75*
G03*
X17551875Y-10366375I-73500J0D01*
G01*
X17551875Y-12271375D02*
G75*
G03*
X17551875Y-12271375I-73500J0D01*
G01*
X17869375Y-6810375D02*
G75*
G03*
X17869375Y-6810375I-73500J0D01*
G01*
X18028125Y-4651375D02*
G75*
G03*
X18028125Y-4651375I-73500J0D01*
G01*
X18345625Y-8715375D02*
G75*
G03*
X18345625Y-8715375I-73500J0D01*
G01*
X18504375Y-6556375D02*
G75*
G03*
X18504375Y-6556375I-73500J0D01*
G01*
X18821875Y-10620375D02*
G75*
G03*
X18821875Y-10620375I-73500J0D01*
G01*
X18980625Y-8461375D02*
G75*
G03*
X18980625Y-8461375I-73500J0D01*
G01*
X19298125Y-4905375D02*
G75*
G03*
X19298125Y-4905375I-73500J0D01*
G01*
X19456875Y-10366375D02*
G75*
G03*
X19456875Y-10366375I-73500J0D01*
G01*
X19536250Y-12525375D02*
G75*
G03*
X19536250Y-12525375I-73500J0D01*
G01*
X19774375Y-6810375D02*
G75*
G03*
X19774375Y-6810375I-73500J0D01*
G01*
X19933125Y-4651375D02*
G75*
G03*
X19933125Y-4651375I-73500J0D01*
G01*
X20171250Y-12271375D02*
G75*
G03*
X20171250Y-12271375I-73500J0D01*
G01*
X20250625Y-8715375D02*
G75*
G03*
X20250625Y-8715375I-73500J0D01*
G01*
X20409375Y-6556375D02*
G75*
G03*
X20409375Y-6556375I-73500J0D01*
G01*
X20726875Y-10620375D02*
G75*
G03*
X20726875Y-10620375I-73500J0D01*
G01*
X20885625Y-8461375D02*
G75*
G03*
X20885625Y-8461375I-73500J0D01*
G01*
X21202960Y-12525315D02*
G75*
G03*
X21202960Y-12525315I-73500J0D01*
G01*
X21203125Y-4905375D02*
G75*
G03*
X21203125Y-4905375I-73500J0D01*
G01*
X21361875Y-10366375D02*
G75*
G03*
X21361875Y-10366375I-73500J0D01*
G01*
X21679375Y-6810375D02*
G75*
G03*
X21679375Y-6810375I-73500J0D01*
G01*
X21837960Y-12271315D02*
G75*
G03*
X21837960Y-12271315I-73500J0D01*
G01*
X21838125Y-4651375D02*
G75*
G03*
X21838125Y-4651375I-73500J0D01*
G01*
X21917500Y-12525375D02*
G75*
G03*
X21917500Y-12525375I-73500J0D01*
G01*
X22155625Y-8715375D02*
G75*
G03*
X22155625Y-8715375I-73500J0D01*
G01*
X22314375Y-6556375D02*
G75*
G03*
X22314375Y-6556375I-73500J0D01*
G01*
X22552500Y-12271375D02*
G75*
G03*
X22552500Y-12271375I-73500J0D01*
G01*
X22631875Y-10620375D02*
G75*
G03*
X22631875Y-10620375I-73500J0D01*
G01*
X22790625Y-8461375D02*
G75*
G03*
X22790625Y-8461375I-73500J0D01*
G01*
X23107990Y-12525315D02*
G75*
G03*
X23107990Y-12525315I-73500J0D01*
G01*
X23108125Y-4905375D02*
G75*
G03*
X23108125Y-4905375I-73500J0D01*
G01*
X23266875Y-10366375D02*
G75*
G03*
X23266875Y-10366375I-73500J0D01*
G01*
X23584375Y-6810375D02*
G75*
G03*
X23584375Y-6810375I-73500J0D01*
G01*
X23742990Y-12271315D02*
G75*
G03*
X23742990Y-12271315I-73500J0D01*
G01*
X23743125Y-4651375D02*
G75*
G03*
X23743125Y-4651375I-73500J0D01*
G01*
X24060625Y-8715375D02*
G75*
G03*
X24060625Y-8715375I-73500J0D01*
G01*
X24219375Y-6556375D02*
G75*
G03*
X24219375Y-6556375I-73500J0D01*
G01*
X24298750Y-12525375D02*
G75*
G03*
X24298750Y-12525375I-73500J0D01*
G01*
X24536875Y-10620375D02*
G75*
G03*
X24536875Y-10620375I-73500J0D01*
G01*
X24695625Y-8461375D02*
G75*
G03*
X24695625Y-8461375I-73500J0D01*
G01*
X24933750Y-12271375D02*
G75*
G03*
X24933750Y-12271375I-73500J0D01*
G01*
X25013020Y-12525375D02*
G75*
G03*
X25013020Y-12525375I-73500J0D01*
G01*
X25013125Y-4905375D02*
G75*
G03*
X25013125Y-4905375I-73500J0D01*
G01*
X25171875Y-10366375D02*
G75*
G03*
X25171875Y-10366375I-73500J0D01*
G01*
X25648020Y-12271375D02*
G75*
G03*
X25648020Y-12271375I-73500J0D01*
G01*
X25648125Y-4651375D02*
G75*
G03*
X25648125Y-4651375I-73500J0D01*
G01*
X26203750Y-6810375D02*
G75*
G03*
X26203750Y-6810375I-73500J0D01*
G01*
X26441875Y-8715375D02*
G75*
G03*
X26441875Y-8715375I-73500J0D01*
G01*
X26680000Y-10620375D02*
G75*
G03*
X26680000Y-10620375I-73500J0D01*
G01*
X26680000Y-12525375D02*
G75*
G03*
X26680000Y-12525375I-73500J0D01*
G01*
X26838750Y-6556375D02*
G75*
G03*
X26838750Y-6556375I-73500J0D01*
G01*
X26918125Y-4905375D02*
G75*
G03*
X26918125Y-4905375I-73500J0D01*
G01*
X26918125Y-12525375D02*
G75*
G03*
X26918125Y-12525375I-73500J0D01*
G01*
X27076875Y-8461375D02*
G75*
G03*
X27076875Y-8461375I-73500J0D01*
G01*
X27315000Y-10366375D02*
G75*
G03*
X27315000Y-10366375I-73500J0D01*
G01*
X27315000Y-12271375D02*
G75*
G03*
X27315000Y-12271375I-73500J0D01*
G01*
X27553125Y-4651375D02*
G75*
G03*
X27553125Y-4651375I-73500J0D01*
G01*
X27553125Y-12271375D02*
G75*
G03*
X27553125Y-12271375I-73500J0D01*
G01*
D14*
X16141700Y-12467600D02*
X16141700Y-12627600D01*
X16061700Y-12547600D02*
X16221700Y-12547600D01*
D11*
X1758244Y-14049851D02*
X1758244Y-13849851D01*
X1805863Y-13849851D01*
X1834434Y-13859375D01*
X1853482Y-13878423D01*
X1863006Y-13897470D01*
X1872530Y-13935565D01*
X1872530Y-13964137D01*
X1863006Y-14002232D01*
X1853482Y-14021280D01*
X1834434Y-14040327D01*
X1805863Y-14049851D01*
X1758244Y-14049851D01*
X1958244Y-14049851D02*
X1958244Y-13916518D01*
X1958244Y-13954613D02*
X1967768Y-13935565D01*
X1977292Y-13926042D01*
X1996339Y-13916518D01*
X2015387Y-13916518D01*
X2082053Y-14049851D02*
X2082053Y-13916518D01*
X2082053Y-13849851D02*
X2072530Y-13859375D01*
X2082053Y-13868899D01*
X2091577Y-13859375D01*
X2082053Y-13849851D01*
X2082053Y-13868899D01*
X2205863Y-14049851D02*
X2186815Y-14040327D01*
X2177292Y-14021280D01*
X2177292Y-13849851D01*
X2310625Y-14049851D02*
X2291577Y-14040327D01*
X2282054Y-14021280D01*
X2282054Y-13849851D01*
X2539196Y-14049851D02*
X2539196Y-13849851D01*
X2605863Y-13992708D01*
X2672530Y-13849851D01*
X2672530Y-14049851D01*
X2853482Y-14049851D02*
X2853482Y-13945089D01*
X2843958Y-13926042D01*
X2824911Y-13916518D01*
X2786815Y-13916518D01*
X2767768Y-13926042D01*
X2853482Y-14040327D02*
X2834434Y-14049851D01*
X2786815Y-14049851D01*
X2767768Y-14040327D01*
X2758244Y-14021280D01*
X2758244Y-14002232D01*
X2767768Y-13983184D01*
X2786815Y-13973661D01*
X2834434Y-13973661D01*
X2853482Y-13964137D01*
X2948720Y-13916518D02*
X2948720Y-14116518D01*
X2948720Y-13926042D02*
X2967768Y-13916518D01*
X3005863Y-13916518D01*
X3024911Y-13926042D01*
X3034434Y-13935565D01*
X3043958Y-13954613D01*
X3043958Y-14011756D01*
X3034434Y-14030803D01*
X3024911Y-14040327D01*
X3005863Y-14049851D01*
X2967768Y-14049851D01*
X2948720Y-14040327D01*
X3129673Y-14030803D02*
X3139196Y-14040327D01*
X3129673Y-14049851D01*
X3120149Y-14040327D01*
X3129673Y-14030803D01*
X3129673Y-14049851D01*
X3129673Y-13926042D02*
X3139196Y-13935565D01*
X3129673Y-13945089D01*
X3120149Y-13935565D01*
X3129673Y-13926042D01*
X3129673Y-13945089D01*
D12*
X1470625Y-14364375D02*
X1500625Y-14394375D01*
X1500625Y-14364375D02*
X1470625Y-14394375D01*
D11*
X1796339Y-14269851D02*
X1815387Y-14269851D01*
X1834434Y-14279375D01*
X1843958Y-14288899D01*
X1853482Y-14307946D01*
X1863006Y-14346042D01*
X1863006Y-14393661D01*
X1853482Y-14431756D01*
X1843958Y-14450803D01*
X1834434Y-14460327D01*
X1815387Y-14469851D01*
X1796339Y-14469851D01*
X1777292Y-14460327D01*
X1767768Y-14450803D01*
X1758244Y-14431756D01*
X1748720Y-14393661D01*
X1748720Y-14346042D01*
X1758244Y-14307946D01*
X1767768Y-14288899D01*
X1777292Y-14279375D01*
X1796339Y-14269851D01*
X1948720Y-14450803D02*
X1958244Y-14460327D01*
X1948720Y-14469851D01*
X1939196Y-14460327D01*
X1948720Y-14450803D01*
X1948720Y-14469851D01*
X2024911Y-14269851D02*
X2148720Y-14269851D01*
X2082053Y-14346042D01*
X2110625Y-14346042D01*
X2129673Y-14355565D01*
X2139196Y-14365089D01*
X2148720Y-14384137D01*
X2148720Y-14431756D01*
X2139196Y-14450803D01*
X2129673Y-14460327D01*
X2110625Y-14469851D01*
X2053482Y-14469851D01*
X2034434Y-14460327D01*
X2024911Y-14450803D01*
X2272530Y-14269851D02*
X2291577Y-14269851D01*
X2310625Y-14279375D01*
X2320149Y-14288899D01*
X2329673Y-14307946D01*
X2339196Y-14346042D01*
X2339196Y-14393661D01*
X2329673Y-14431756D01*
X2320149Y-14450803D01*
X2310625Y-14460327D01*
X2291577Y-14469851D01*
X2272530Y-14469851D01*
X2253482Y-14460327D01*
X2243958Y-14450803D01*
X2234435Y-14431756D01*
X2224911Y-14393661D01*
X2224911Y-14346042D01*
X2234435Y-14307946D01*
X2243958Y-14288899D01*
X2253482Y-14279375D01*
X2272530Y-14269851D01*
X2463006Y-14269851D02*
X2482054Y-14269851D01*
X2501101Y-14279375D01*
X2510625Y-14288899D01*
X2520149Y-14307946D01*
X2529673Y-14346042D01*
X2529673Y-14393661D01*
X2520149Y-14431756D01*
X2510625Y-14450803D01*
X2501101Y-14460327D01*
X2482054Y-14469851D01*
X2463006Y-14469851D01*
X2443958Y-14460327D01*
X2434435Y-14450803D01*
X2424911Y-14431756D01*
X2415387Y-14393661D01*
X2415387Y-14346042D01*
X2424911Y-14307946D01*
X2434435Y-14288899D01*
X2443958Y-14279375D01*
X2463006Y-14269851D01*
X2615387Y-14469851D02*
X2615387Y-14336518D01*
X2615387Y-14355565D02*
X2624911Y-14346042D01*
X2643958Y-14336518D01*
X2672530Y-14336518D01*
X2691577Y-14346042D01*
X2701101Y-14365089D01*
X2701101Y-14469851D01*
X2701101Y-14365089D02*
X2710625Y-14346042D01*
X2729673Y-14336518D01*
X2758244Y-14336518D01*
X2777292Y-14346042D01*
X2786815Y-14365089D01*
X2786815Y-14469851D01*
X2882053Y-14469851D02*
X2882053Y-14336518D01*
X2882053Y-14355565D02*
X2891577Y-14346042D01*
X2910625Y-14336518D01*
X2939196Y-14336518D01*
X2958244Y-14346042D01*
X2967768Y-14365089D01*
X2967768Y-14469851D01*
X2967768Y-14365089D02*
X2977292Y-14346042D01*
X2996339Y-14336518D01*
X3024911Y-14336518D01*
X3043958Y-14346042D01*
X3053482Y-14365089D01*
X3053482Y-14469851D01*
X3443958Y-14260327D02*
X3272530Y-14517470D01*
X3701101Y-14269851D02*
X3720149Y-14269851D01*
X3739196Y-14279375D01*
X3748720Y-14288899D01*
X3758244Y-14307946D01*
X3767768Y-14346042D01*
X3767768Y-14393661D01*
X3758244Y-14431756D01*
X3748720Y-14450803D01*
X3739196Y-14460327D01*
X3720149Y-14469851D01*
X3701101Y-14469851D01*
X3682053Y-14460327D01*
X3672530Y-14450803D01*
X3663006Y-14431756D01*
X3653482Y-14393661D01*
X3653482Y-14346042D01*
X3663006Y-14307946D01*
X3672530Y-14288899D01*
X3682053Y-14279375D01*
X3701101Y-14269851D01*
X3853482Y-14450803D02*
X3863006Y-14460327D01*
X3853482Y-14469851D01*
X3843958Y-14460327D01*
X3853482Y-14450803D01*
X3853482Y-14469851D01*
X3986815Y-14269851D02*
X4005863Y-14269851D01*
X4024911Y-14279375D01*
X4034434Y-14288899D01*
X4043958Y-14307946D01*
X4053482Y-14346042D01*
X4053482Y-14393661D01*
X4043958Y-14431756D01*
X4034434Y-14450803D01*
X4024911Y-14460327D01*
X4005863Y-14469851D01*
X3986815Y-14469851D01*
X3967768Y-14460327D01*
X3958244Y-14450803D01*
X3948720Y-14431756D01*
X3939196Y-14393661D01*
X3939196Y-14346042D01*
X3948720Y-14307946D01*
X3958244Y-14288899D01*
X3967768Y-14279375D01*
X3986815Y-14269851D01*
X4243958Y-14469851D02*
X4129673Y-14469851D01*
X4186815Y-14469851D02*
X4186815Y-14269851D01*
X4167768Y-14298423D01*
X4148720Y-14317470D01*
X4129673Y-14326994D01*
X4434435Y-14469851D02*
X4320149Y-14469851D01*
X4377292Y-14469851D02*
X4377292Y-14269851D01*
X4358244Y-14298423D01*
X4339196Y-14317470D01*
X4320149Y-14326994D01*
X4548720Y-14355565D02*
X4529673Y-14346042D01*
X4520149Y-14336518D01*
X4510625Y-14317470D01*
X4510625Y-14307946D01*
X4520149Y-14288899D01*
X4529673Y-14279375D01*
X4548720Y-14269851D01*
X4586815Y-14269851D01*
X4605863Y-14279375D01*
X4615387Y-14288899D01*
X4624911Y-14307946D01*
X4624911Y-14317470D01*
X4615387Y-14336518D01*
X4605863Y-14346042D01*
X4586815Y-14355565D01*
X4548720Y-14355565D01*
X4529673Y-14365089D01*
X4520149Y-14374613D01*
X4510625Y-14393661D01*
X4510625Y-14431756D01*
X4520149Y-14450803D01*
X4529673Y-14460327D01*
X4548720Y-14469851D01*
X4586815Y-14469851D01*
X4605863Y-14460327D01*
X4615387Y-14450803D01*
X4624911Y-14431756D01*
X4624911Y-14393661D01*
X4615387Y-14374613D01*
X4605863Y-14365089D01*
X4586815Y-14355565D01*
X4701101Y-14269851D02*
X4701101Y-14307946D01*
X4777292Y-14269851D02*
X4777292Y-14307946D01*
X5072530Y-14546042D02*
X5063006Y-14536518D01*
X5043958Y-14507946D01*
X5034435Y-14488899D01*
X5024911Y-14460327D01*
X5015387Y-14412708D01*
X5015387Y-14374613D01*
X5024911Y-14326994D01*
X5034435Y-14298423D01*
X5043958Y-14279375D01*
X5063006Y-14250803D01*
X5072530Y-14241280D01*
X5234435Y-14336518D02*
X5234435Y-14469851D01*
X5186815Y-14260327D02*
X5139196Y-14403184D01*
X5263006Y-14403184D01*
X5367768Y-14355565D02*
X5348720Y-14346042D01*
X5339196Y-14336518D01*
X5329673Y-14317470D01*
X5329673Y-14307946D01*
X5339196Y-14288899D01*
X5348720Y-14279375D01*
X5367768Y-14269851D01*
X5405863Y-14269851D01*
X5424911Y-14279375D01*
X5434435Y-14288899D01*
X5443958Y-14307946D01*
X5443958Y-14317470D01*
X5434435Y-14336518D01*
X5424911Y-14346042D01*
X5405863Y-14355565D01*
X5367768Y-14355565D01*
X5348720Y-14365089D01*
X5339196Y-14374613D01*
X5329673Y-14393661D01*
X5329673Y-14431756D01*
X5339196Y-14450803D01*
X5348720Y-14460327D01*
X5367768Y-14469851D01*
X5405863Y-14469851D01*
X5424911Y-14460327D01*
X5434435Y-14450803D01*
X5443958Y-14431756D01*
X5443958Y-14393661D01*
X5434435Y-14374613D01*
X5424911Y-14365089D01*
X5405863Y-14355565D01*
X5520149Y-14288899D02*
X5529673Y-14279375D01*
X5548720Y-14269851D01*
X5596339Y-14269851D01*
X5615387Y-14279375D01*
X5624911Y-14288899D01*
X5634434Y-14307946D01*
X5634434Y-14326994D01*
X5624911Y-14355565D01*
X5510625Y-14469851D01*
X5634434Y-14469851D01*
X5872530Y-14469851D02*
X5872530Y-14269851D01*
X5958244Y-14469851D02*
X5958244Y-14365089D01*
X5948720Y-14346042D01*
X5929673Y-14336518D01*
X5901101Y-14336518D01*
X5882053Y-14346042D01*
X5872530Y-14355565D01*
X6082053Y-14469851D02*
X6063006Y-14460327D01*
X6053482Y-14450803D01*
X6043958Y-14431756D01*
X6043958Y-14374613D01*
X6053482Y-14355565D01*
X6063006Y-14346042D01*
X6082053Y-14336518D01*
X6110625Y-14336518D01*
X6129673Y-14346042D01*
X6139196Y-14355565D01*
X6148720Y-14374613D01*
X6148720Y-14431756D01*
X6139196Y-14450803D01*
X6129673Y-14460327D01*
X6110625Y-14469851D01*
X6082053Y-14469851D01*
X6263006Y-14469851D02*
X6243958Y-14460327D01*
X6234434Y-14441280D01*
X6234434Y-14269851D01*
X6415387Y-14460327D02*
X6396339Y-14469851D01*
X6358244Y-14469851D01*
X6339196Y-14460327D01*
X6329673Y-14441280D01*
X6329673Y-14365089D01*
X6339196Y-14346042D01*
X6358244Y-14336518D01*
X6396339Y-14336518D01*
X6415387Y-14346042D01*
X6424911Y-14365089D01*
X6424911Y-14384137D01*
X6329673Y-14403184D01*
X6501101Y-14460327D02*
X6520149Y-14469851D01*
X6558244Y-14469851D01*
X6577292Y-14460327D01*
X6586815Y-14441280D01*
X6586815Y-14431756D01*
X6577292Y-14412708D01*
X6558244Y-14403184D01*
X6529673Y-14403184D01*
X6510625Y-14393661D01*
X6501101Y-14374613D01*
X6501101Y-14365089D01*
X6510625Y-14346042D01*
X6529673Y-14336518D01*
X6558244Y-14336518D01*
X6577292Y-14346042D01*
X6653482Y-14546042D02*
X6663006Y-14536518D01*
X6682053Y-14507946D01*
X6691577Y-14488899D01*
X6701101Y-14460327D01*
X6710625Y-14412708D01*
X6710625Y-14374613D01*
X6701101Y-14326994D01*
X6691577Y-14298423D01*
X6682053Y-14279375D01*
X6663006Y-14250803D01*
X6653482Y-14241280D01*
D13*
X1500625Y-14643375D02*
G75*
G03*
X1500625Y-14643375I-73500J0D01*
G01*
D11*
X1863006Y-14733851D02*
X1748720Y-14733851D01*
X1805863Y-14733851D02*
X1805863Y-14533851D01*
X1786815Y-14562423D01*
X1767768Y-14581470D01*
X1748720Y-14590994D01*
X1948720Y-14714803D02*
X1958244Y-14724327D01*
X1948720Y-14733851D01*
X1939196Y-14724327D01*
X1948720Y-14714803D01*
X1948720Y-14733851D01*
X2129673Y-14600518D02*
X2129673Y-14733851D01*
X2082053Y-14524327D02*
X2034434Y-14667184D01*
X2158244Y-14667184D01*
X2215387Y-14533851D02*
X2348720Y-14533851D01*
X2263006Y-14733851D01*
X2463006Y-14533851D02*
X2482054Y-14533851D01*
X2501101Y-14543375D01*
X2510625Y-14552899D01*
X2520149Y-14571946D01*
X2529673Y-14610042D01*
X2529673Y-14657661D01*
X2520149Y-14695756D01*
X2510625Y-14714803D01*
X2501101Y-14724327D01*
X2482054Y-14733851D01*
X2463006Y-14733851D01*
X2443958Y-14724327D01*
X2434435Y-14714803D01*
X2424911Y-14695756D01*
X2415387Y-14657661D01*
X2415387Y-14610042D01*
X2424911Y-14571946D01*
X2434435Y-14552899D01*
X2443958Y-14543375D01*
X2463006Y-14533851D01*
X2615387Y-14733851D02*
X2615387Y-14600518D01*
X2615387Y-14619565D02*
X2624911Y-14610042D01*
X2643958Y-14600518D01*
X2672530Y-14600518D01*
X2691577Y-14610042D01*
X2701101Y-14629089D01*
X2701101Y-14733851D01*
X2701101Y-14629089D02*
X2710625Y-14610042D01*
X2729673Y-14600518D01*
X2758244Y-14600518D01*
X2777292Y-14610042D01*
X2786815Y-14629089D01*
X2786815Y-14733851D01*
X2882053Y-14733851D02*
X2882053Y-14600518D01*
X2882053Y-14619565D02*
X2891577Y-14610042D01*
X2910625Y-14600518D01*
X2939196Y-14600518D01*
X2958244Y-14610042D01*
X2967768Y-14629089D01*
X2967768Y-14733851D01*
X2967768Y-14629089D02*
X2977292Y-14610042D01*
X2996339Y-14600518D01*
X3024911Y-14600518D01*
X3043958Y-14610042D01*
X3053482Y-14629089D01*
X3053482Y-14733851D01*
X3443958Y-14524327D02*
X3272530Y-14781470D01*
X3701101Y-14533851D02*
X3720149Y-14533851D01*
X3739196Y-14543375D01*
X3748720Y-14552899D01*
X3758244Y-14571946D01*
X3767768Y-14610042D01*
X3767768Y-14657661D01*
X3758244Y-14695756D01*
X3748720Y-14714803D01*
X3739196Y-14724327D01*
X3720149Y-14733851D01*
X3701101Y-14733851D01*
X3682053Y-14724327D01*
X3672530Y-14714803D01*
X3663006Y-14695756D01*
X3653482Y-14657661D01*
X3653482Y-14610042D01*
X3663006Y-14571946D01*
X3672530Y-14552899D01*
X3682053Y-14543375D01*
X3701101Y-14533851D01*
X3853482Y-14714803D02*
X3863006Y-14724327D01*
X3853482Y-14733851D01*
X3843958Y-14724327D01*
X3853482Y-14714803D01*
X3853482Y-14733851D01*
X3986815Y-14533851D02*
X4005863Y-14533851D01*
X4024911Y-14543375D01*
X4034434Y-14552899D01*
X4043958Y-14571946D01*
X4053482Y-14610042D01*
X4053482Y-14657661D01*
X4043958Y-14695756D01*
X4034434Y-14714803D01*
X4024911Y-14724327D01*
X4005863Y-14733851D01*
X3986815Y-14733851D01*
X3967768Y-14724327D01*
X3958244Y-14714803D01*
X3948720Y-14695756D01*
X3939196Y-14657661D01*
X3939196Y-14610042D01*
X3948720Y-14571946D01*
X3958244Y-14552899D01*
X3967768Y-14543375D01*
X3986815Y-14533851D01*
X4234435Y-14533851D02*
X4139196Y-14533851D01*
X4129673Y-14629089D01*
X4139196Y-14619565D01*
X4158244Y-14610042D01*
X4205863Y-14610042D01*
X4224911Y-14619565D01*
X4234435Y-14629089D01*
X4243958Y-14648137D01*
X4243958Y-14695756D01*
X4234435Y-14714803D01*
X4224911Y-14724327D01*
X4205863Y-14733851D01*
X4158244Y-14733851D01*
X4139196Y-14724327D01*
X4129673Y-14714803D01*
X4310625Y-14533851D02*
X4443958Y-14533851D01*
X4358244Y-14733851D01*
X4529673Y-14733851D02*
X4567768Y-14733851D01*
X4586815Y-14724327D01*
X4596339Y-14714803D01*
X4615387Y-14686232D01*
X4624911Y-14648137D01*
X4624911Y-14571946D01*
X4615387Y-14552899D01*
X4605863Y-14543375D01*
X4586815Y-14533851D01*
X4548720Y-14533851D01*
X4529673Y-14543375D01*
X4520149Y-14552899D01*
X4510625Y-14571946D01*
X4510625Y-14619565D01*
X4520149Y-14638613D01*
X4529673Y-14648137D01*
X4548720Y-14657661D01*
X4586815Y-14657661D01*
X4605863Y-14648137D01*
X4615387Y-14638613D01*
X4624911Y-14619565D01*
X4701101Y-14533851D02*
X4701101Y-14571946D01*
X4777292Y-14533851D02*
X4777292Y-14571946D01*
X5072530Y-14810042D02*
X5063006Y-14800518D01*
X5043958Y-14771946D01*
X5034435Y-14752899D01*
X5024911Y-14724327D01*
X5015387Y-14676708D01*
X5015387Y-14638613D01*
X5024911Y-14590994D01*
X5034435Y-14562423D01*
X5043958Y-14543375D01*
X5063006Y-14514803D01*
X5072530Y-14505280D01*
X5253482Y-14733851D02*
X5139196Y-14733851D01*
X5196339Y-14733851D02*
X5196339Y-14533851D01*
X5177292Y-14562423D01*
X5158244Y-14581470D01*
X5139196Y-14590994D01*
X5424911Y-14600518D02*
X5424911Y-14733851D01*
X5377292Y-14524327D02*
X5329673Y-14667184D01*
X5453482Y-14667184D01*
X5567768Y-14533851D02*
X5586815Y-14533851D01*
X5605863Y-14543375D01*
X5615387Y-14552899D01*
X5624911Y-14571946D01*
X5634434Y-14610042D01*
X5634434Y-14657661D01*
X5624911Y-14695756D01*
X5615387Y-14714803D01*
X5605863Y-14724327D01*
X5586815Y-14733851D01*
X5567768Y-14733851D01*
X5548720Y-14724327D01*
X5539196Y-14714803D01*
X5529673Y-14695756D01*
X5520149Y-14657661D01*
X5520149Y-14610042D01*
X5529673Y-14571946D01*
X5539196Y-14552899D01*
X5548720Y-14543375D01*
X5567768Y-14533851D01*
X5872530Y-14733851D02*
X5872530Y-14533851D01*
X5958244Y-14733851D02*
X5958244Y-14629089D01*
X5948720Y-14610042D01*
X5929673Y-14600518D01*
X5901101Y-14600518D01*
X5882053Y-14610042D01*
X5872530Y-14619565D01*
X6082053Y-14733851D02*
X6063006Y-14724327D01*
X6053482Y-14714803D01*
X6043958Y-14695756D01*
X6043958Y-14638613D01*
X6053482Y-14619565D01*
X6063006Y-14610042D01*
X6082053Y-14600518D01*
X6110625Y-14600518D01*
X6129673Y-14610042D01*
X6139196Y-14619565D01*
X6148720Y-14638613D01*
X6148720Y-14695756D01*
X6139196Y-14714803D01*
X6129673Y-14724327D01*
X6110625Y-14733851D01*
X6082053Y-14733851D01*
X6263006Y-14733851D02*
X6243958Y-14724327D01*
X6234434Y-14705280D01*
X6234434Y-14533851D01*
X6415387Y-14724327D02*
X6396339Y-14733851D01*
X6358244Y-14733851D01*
X6339196Y-14724327D01*
X6329673Y-14705280D01*
X6329673Y-14629089D01*
X6339196Y-14610042D01*
X6358244Y-14600518D01*
X6396339Y-14600518D01*
X6415387Y-14610042D01*
X6424911Y-14629089D01*
X6424911Y-14648137D01*
X6329673Y-14667184D01*
X6501101Y-14724327D02*
X6520149Y-14733851D01*
X6558244Y-14733851D01*
X6577292Y-14724327D01*
X6586815Y-14705280D01*
X6586815Y-14695756D01*
X6577292Y-14676708D01*
X6558244Y-14667184D01*
X6529673Y-14667184D01*
X6510625Y-14657661D01*
X6501101Y-14638613D01*
X6501101Y-14629089D01*
X6510625Y-14610042D01*
X6529673Y-14600518D01*
X6558244Y-14600518D01*
X6577292Y-14610042D01*
X6653482Y-14810042D02*
X6663006Y-14800518D01*
X6682053Y-14771946D01*
X6691577Y-14752899D01*
X6701101Y-14724327D01*
X6710625Y-14676708D01*
X6710625Y-14638613D01*
X6701101Y-14590994D01*
X6691577Y-14562423D01*
X6682053Y-14543375D01*
X6663006Y-14514803D01*
X6653482Y-14505280D01*
D14*
X1420625Y-14830375D02*
X1420625Y-14990375D01*
X1340625Y-14910375D02*
X1500625Y-14910375D01*
D11*
X1863006Y-15000851D02*
X1748720Y-15000851D01*
X1805863Y-15000851D02*
X1805863Y-14800851D01*
X1786815Y-14829423D01*
X1767768Y-14848470D01*
X1748720Y-14857994D01*
X1948720Y-14981803D02*
X1958244Y-14991327D01*
X1948720Y-15000851D01*
X1939196Y-14991327D01*
X1948720Y-14981803D01*
X1948720Y-15000851D01*
X2129673Y-14800851D02*
X2091577Y-14800851D01*
X2072530Y-14810375D01*
X2063006Y-14819899D01*
X2043958Y-14848470D01*
X2034434Y-14886565D01*
X2034434Y-14962756D01*
X2043958Y-14981803D01*
X2053482Y-14991327D01*
X2072530Y-15000851D01*
X2110625Y-15000851D01*
X2129673Y-14991327D01*
X2139196Y-14981803D01*
X2148720Y-14962756D01*
X2148720Y-14915137D01*
X2139196Y-14896089D01*
X2129673Y-14886565D01*
X2110625Y-14877042D01*
X2072530Y-14877042D01*
X2053482Y-14886565D01*
X2043958Y-14896089D01*
X2034434Y-14915137D01*
X2272530Y-14800851D02*
X2291577Y-14800851D01*
X2310625Y-14810375D01*
X2320149Y-14819899D01*
X2329673Y-14838946D01*
X2339196Y-14877042D01*
X2339196Y-14924661D01*
X2329673Y-14962756D01*
X2320149Y-14981803D01*
X2310625Y-14991327D01*
X2291577Y-15000851D01*
X2272530Y-15000851D01*
X2253482Y-14991327D01*
X2243958Y-14981803D01*
X2234435Y-14962756D01*
X2224911Y-14924661D01*
X2224911Y-14877042D01*
X2234435Y-14838946D01*
X2243958Y-14819899D01*
X2253482Y-14810375D01*
X2272530Y-14800851D01*
X2463006Y-14800851D02*
X2482054Y-14800851D01*
X2501101Y-14810375D01*
X2510625Y-14819899D01*
X2520149Y-14838946D01*
X2529673Y-14877042D01*
X2529673Y-14924661D01*
X2520149Y-14962756D01*
X2510625Y-14981803D01*
X2501101Y-14991327D01*
X2482054Y-15000851D01*
X2463006Y-15000851D01*
X2443958Y-14991327D01*
X2434435Y-14981803D01*
X2424911Y-14962756D01*
X2415387Y-14924661D01*
X2415387Y-14877042D01*
X2424911Y-14838946D01*
X2434435Y-14819899D01*
X2443958Y-14810375D01*
X2463006Y-14800851D01*
X2615387Y-15000851D02*
X2615387Y-14867518D01*
X2615387Y-14886565D02*
X2624911Y-14877042D01*
X2643958Y-14867518D01*
X2672530Y-14867518D01*
X2691577Y-14877042D01*
X2701101Y-14896089D01*
X2701101Y-15000851D01*
X2701101Y-14896089D02*
X2710625Y-14877042D01*
X2729673Y-14867518D01*
X2758244Y-14867518D01*
X2777292Y-14877042D01*
X2786815Y-14896089D01*
X2786815Y-15000851D01*
X2882053Y-15000851D02*
X2882053Y-14867518D01*
X2882053Y-14886565D02*
X2891577Y-14877042D01*
X2910625Y-14867518D01*
X2939196Y-14867518D01*
X2958244Y-14877042D01*
X2967768Y-14896089D01*
X2967768Y-15000851D01*
X2967768Y-14896089D02*
X2977292Y-14877042D01*
X2996339Y-14867518D01*
X3024911Y-14867518D01*
X3043958Y-14877042D01*
X3053482Y-14896089D01*
X3053482Y-15000851D01*
X3443958Y-14791327D02*
X3272530Y-15048470D01*
X3701101Y-14800851D02*
X3720149Y-14800851D01*
X3739196Y-14810375D01*
X3748720Y-14819899D01*
X3758244Y-14838946D01*
X3767768Y-14877042D01*
X3767768Y-14924661D01*
X3758244Y-14962756D01*
X3748720Y-14981803D01*
X3739196Y-14991327D01*
X3720149Y-15000851D01*
X3701101Y-15000851D01*
X3682053Y-14991327D01*
X3672530Y-14981803D01*
X3663006Y-14962756D01*
X3653482Y-14924661D01*
X3653482Y-14877042D01*
X3663006Y-14838946D01*
X3672530Y-14819899D01*
X3682053Y-14810375D01*
X3701101Y-14800851D01*
X3853482Y-14981803D02*
X3863006Y-14991327D01*
X3853482Y-15000851D01*
X3843958Y-14991327D01*
X3853482Y-14981803D01*
X3853482Y-15000851D01*
X3986815Y-14800851D02*
X4005863Y-14800851D01*
X4024911Y-14810375D01*
X4034434Y-14819899D01*
X4043958Y-14838946D01*
X4053482Y-14877042D01*
X4053482Y-14924661D01*
X4043958Y-14962756D01*
X4034434Y-14981803D01*
X4024911Y-14991327D01*
X4005863Y-15000851D01*
X3986815Y-15000851D01*
X3967768Y-14991327D01*
X3958244Y-14981803D01*
X3948720Y-14962756D01*
X3939196Y-14924661D01*
X3939196Y-14877042D01*
X3948720Y-14838946D01*
X3958244Y-14819899D01*
X3967768Y-14810375D01*
X3986815Y-14800851D01*
X4224911Y-14800851D02*
X4186815Y-14800851D01*
X4167768Y-14810375D01*
X4158244Y-14819899D01*
X4139196Y-14848470D01*
X4129673Y-14886565D01*
X4129673Y-14962756D01*
X4139196Y-14981803D01*
X4148720Y-14991327D01*
X4167768Y-15000851D01*
X4205863Y-15000851D01*
X4224911Y-14991327D01*
X4234435Y-14981803D01*
X4243958Y-14962756D01*
X4243958Y-14915137D01*
X4234435Y-14896089D01*
X4224911Y-14886565D01*
X4205863Y-14877042D01*
X4167768Y-14877042D01*
X4148720Y-14886565D01*
X4139196Y-14896089D01*
X4129673Y-14915137D01*
X4310625Y-14800851D02*
X4434435Y-14800851D01*
X4367768Y-14877042D01*
X4396339Y-14877042D01*
X4415387Y-14886565D01*
X4424911Y-14896089D01*
X4434435Y-14915137D01*
X4434435Y-14962756D01*
X4424911Y-14981803D01*
X4415387Y-14991327D01*
X4396339Y-15000851D01*
X4339196Y-15000851D01*
X4320149Y-14991327D01*
X4310625Y-14981803D01*
X4558244Y-14800851D02*
X4577292Y-14800851D01*
X4596339Y-14810375D01*
X4605863Y-14819899D01*
X4615387Y-14838946D01*
X4624911Y-14877042D01*
X4624911Y-14924661D01*
X4615387Y-14962756D01*
X4605863Y-14981803D01*
X4596339Y-14991327D01*
X4577292Y-15000851D01*
X4558244Y-15000851D01*
X4539196Y-14991327D01*
X4529673Y-14981803D01*
X4520149Y-14962756D01*
X4510625Y-14924661D01*
X4510625Y-14877042D01*
X4520149Y-14838946D01*
X4529673Y-14819899D01*
X4539196Y-14810375D01*
X4558244Y-14800851D01*
X4701101Y-14800851D02*
X4701101Y-14838946D01*
X4777292Y-14800851D02*
X4777292Y-14838946D01*
X5072530Y-15077042D02*
X5063006Y-15067518D01*
X5043958Y-15038946D01*
X5034435Y-15019899D01*
X5024911Y-14991327D01*
X5015387Y-14943708D01*
X5015387Y-14905613D01*
X5024911Y-14857994D01*
X5034435Y-14829423D01*
X5043958Y-14810375D01*
X5063006Y-14781803D01*
X5072530Y-14772280D01*
X5253482Y-15000851D02*
X5139196Y-15000851D01*
X5196339Y-15000851D02*
X5196339Y-14800851D01*
X5177292Y-14829423D01*
X5158244Y-14848470D01*
X5139196Y-14857994D01*
X5491577Y-15000851D02*
X5491577Y-14800851D01*
X5577292Y-15000851D02*
X5577292Y-14896089D01*
X5567768Y-14877042D01*
X5548720Y-14867518D01*
X5520149Y-14867518D01*
X5501101Y-14877042D01*
X5491577Y-14886565D01*
X5701101Y-15000851D02*
X5682053Y-14991327D01*
X5672530Y-14981803D01*
X5663006Y-14962756D01*
X5663006Y-14905613D01*
X5672530Y-14886565D01*
X5682053Y-14877042D01*
X5701101Y-14867518D01*
X5729673Y-14867518D01*
X5748720Y-14877042D01*
X5758244Y-14886565D01*
X5767768Y-14905613D01*
X5767768Y-14962756D01*
X5758244Y-14981803D01*
X5748720Y-14991327D01*
X5729673Y-15000851D01*
X5701101Y-15000851D01*
X5882053Y-15000851D02*
X5863006Y-14991327D01*
X5853482Y-14972280D01*
X5853482Y-14800851D01*
X6034434Y-14991327D02*
X6015387Y-15000851D01*
X5977292Y-15000851D01*
X5958244Y-14991327D01*
X5948720Y-14972280D01*
X5948720Y-14896089D01*
X5958244Y-14877042D01*
X5977292Y-14867518D01*
X6015387Y-14867518D01*
X6034434Y-14877042D01*
X6043958Y-14896089D01*
X6043958Y-14915137D01*
X5948720Y-14934184D01*
X6110625Y-15077042D02*
X6120149Y-15067518D01*
X6139196Y-15038946D01*
X6148720Y-15019899D01*
X6158244Y-14991327D01*
X6167768Y-14943708D01*
X6167768Y-14905613D01*
X6158244Y-14857994D01*
X6148720Y-14829423D01*
X6139196Y-14810375D01*
X6120149Y-14781803D01*
X6110625Y-14772280D01*
M02*
