M48
; DRILL file {KiCad (6.0.5)} date Thu Jul 14 21:57:55 2022
; FORMAT={-:-/ absolute / inch / decimal}
; #@! TF.CreationDate,2022-07-14T21:57:55-04:00
; #@! TF.GenerationSoftware,Kicad,Pcbnew,(6.0.5)
; #@! TF.FileFunction,Plated,1,2,PTH
FMAT,2
INCH
; #@! TA.AperFunction,Plated,PTH,ViaDrill
T1C0.0118
; #@! TA.AperFunction,Plated,PTH,ComponentDrill
T2C0.0579
; #@! TA.AperFunction,Plated,PTH,ComponentDrill
T3C0.0630
%
G90
G05
T1
X0.635Y-2.22
X0.65Y-2.25
X0.6562Y-2.0312
X0.665Y-2.175
X0.67Y-2.395
X0.6875Y-2.7812
X0.69Y-5.22
X0.705Y-2.2812
X0.715Y-5.25
X0.74Y-2.95
X0.74Y-5.275
X0.765Y-3.84
X0.765Y-4.675
X0.79Y-2.185
X0.79Y-4.2812
X0.79Y-5.0312
X0.8Y-3.0312
X0.81Y-3.7
X0.825Y-2.235
X0.8631Y-4.1181
X0.8839Y-4.0839
X0.895Y-3.7812
X0.895Y-5.31
X0.8961Y-5.1911
X0.9041Y-4.0491
X0.9175Y-5.265
X0.92Y-5.23
X0.99Y-4.5312
X0.995Y-4.59
X1.0625Y-4.0
X1.275Y-3.61
X1.275Y-3.84
X1.3Y-3.035
X1.32Y-2.925
X1.385Y-2.925
X1.39Y-3.67
X1.39Y-3.79
X1.4Y-3.035
X1.44Y-3.79
X1.445Y-3.67
X1.45Y-2.925
X1.46Y-3.035
X1.4688Y-2.7812
X1.48Y-4.115
X1.48Y-4.22
X1.49Y-3.67
X1.49Y-3.79
X1.5Y-2.2812
X1.52Y-2.925
X1.5238Y-3.0612
X1.525Y-3.655
X1.5312Y-5.0312
X1.54Y-3.79
X1.55Y-3.21
X1.55Y-3.56
X1.5536Y-2.1911
X1.5775Y-2.23
X1.58Y-3.67
X1.58Y-4.06
X1.585Y-2.925
X1.6Y-4.105
X1.625Y-3.67
X1.655Y-3.14
X1.655Y-3.785
X1.655Y-4.365
X1.68Y-3.17
X1.6875Y-3.0312
X1.6893Y-3.7857
X1.69Y-4.32
X1.705Y-3.2
X1.715Y-3.81
X1.725Y-4.32
X1.74Y-3.495
X1.74Y-3.785
X1.74Y-3.895
X1.7411Y-2.9411
X1.745Y-4.57
X1.745Y-5.125
X1.765Y-2.98
X1.77Y-4.285
X1.775Y-3.53
X1.775Y-3.81
X1.78Y-3.895
X1.795Y-4.685
X1.83Y-5.31
X1.85Y-4.335
X1.855Y-5.265
X1.8575Y-5.23
X1.86Y-5.155
X1.8614Y-3.8386
X1.87Y-3.765
X1.915Y-4.4
X1.915Y-4.715
X1.925Y-4.895
X1.9286Y-3.6911
X1.9525Y-3.73
X1.97Y-4.1
X1.99Y-4.345
X2.01Y-3.175
X2.01Y-3.915
X2.015Y-3.965
X2.04Y-3.15
X2.045Y-4.585
X2.0605Y-4.4155
X2.0625Y-4.5312
X2.07Y-4.22
X2.09Y-4.385
X2.0938Y-2.0312
X2.1Y-4.745
X2.105Y-4.93
X2.1161Y-4.4411
X2.12Y-4.335
X2.1288Y-4.5312
X2.14Y-4.48
X2.145Y-5.24
X2.15Y-4.36
X2.155Y-4.655
X2.155Y-4.69
X2.19Y-3.945
X2.19Y-5.25
X2.22Y-3.96
X2.22Y-5.23
X2.25Y-2.2812
X2.25Y-3.98
X2.2812Y-2.7812
X2.285Y-3.995
X2.3036Y-2.1911
X2.3275Y-2.23
X2.365Y-3.075
X2.4Y-3.1
X2.425Y-4.825
X2.43Y-3.5312
X2.4375Y-3.0312
X2.45Y-4.01
X2.4688Y-5.0312
X2.4911Y-2.9411
X2.515Y-2.98
X2.535Y-4.18
X2.625Y-3.7812
X2.625Y-4.2812
X2.6786Y-3.6911
X2.7025Y-3.73
X2.77Y-4.745
X2.8Y-4.725
X2.8125Y-2.0312
X2.8125Y-4.5312
X2.815Y-5.325
X2.845Y-4.66
X2.85Y-5.26
X2.8607Y-4.6057
X2.8661Y-4.4411
X2.89Y-4.48
X3.0Y-2.2812
X3.0312Y-2.7812
X3.0536Y-2.1911
X3.0775Y-2.23
X3.1875Y-3.0312
X3.195Y-5.23
X3.2188Y-3.5312
X3.2411Y-2.9411
X3.265Y-2.98
X3.275Y-5.195
X3.325Y-5.195
X3.375Y-3.7812
X3.4062Y-4.2812
X3.4286Y-3.6911
X3.4525Y-3.73
X3.454Y-3.996
X3.5625Y-2.0312
X3.5625Y-4.5312
X3.59Y-4.645
X3.5938Y-5.0312
X3.6161Y-4.4411
X3.64Y-4.48
X3.695Y-4.93
X3.75Y-2.2812
X3.7812Y-2.7812
X3.8036Y-2.1911
X3.8275Y-2.23
X3.9375Y-3.0312
X3.9688Y-3.5312
X3.9911Y-2.9411
X4.015Y-2.98
X4.02Y-5.14
X4.02Y-5.19
X4.125Y-3.7812
X4.1562Y-4.2812
X4.1786Y-3.6911
X4.201Y-3.984
X4.2025Y-3.73
X4.3Y-5.28
X4.3125Y-4.5312
X4.315Y-5.21
X4.315Y-5.245
X4.335Y-4.62
X4.3438Y-2.0312
X4.355Y-5.175
X4.3661Y-4.4411
X4.39Y-4.48
X4.5Y-2.2812
X4.5312Y-2.7812
X4.5536Y-2.1911
X4.5775Y-2.23
X4.625Y-5.0312
X4.6875Y-3.0312
X4.7188Y-3.5312
X4.7411Y-2.9411
X4.765Y-2.98
X4.875Y-3.7812
X4.9062Y-4.2812
X4.9286Y-3.6911
X4.947Y-3.968
X4.95Y-5.265
X4.9525Y-3.73
X4.985Y-5.175
X5.0625Y-4.5312
X5.08Y-4.605
X5.0938Y-2.0312
X5.1161Y-4.4411
X5.14Y-4.48
X5.24Y-5.26
X5.25Y-2.2812
X5.2812Y-2.7812
X5.3036Y-2.1911
X5.32Y-5.23
X5.3275Y-2.23
X5.345Y-5.255
X5.355Y-2.91
X5.355Y-3.02
X5.405Y-3.0
X5.4375Y-3.0312
X5.455Y-2.905
X5.49Y-4.835
X5.49Y-4.87
X5.4911Y-2.9411
X5.515Y-2.98
X5.58Y-4.815
X5.5812Y-5.325
X5.5962Y-5.22
X5.6162Y-5.26
X5.625Y-3.7812
X5.6513Y-5.265
X5.6562Y-4.2812
X5.6786Y-3.6911
X5.692Y-3.948
X5.7025Y-3.73
X5.775Y-4.85
X5.775Y-4.89
X5.775Y-4.93
X5.8125Y-4.5312
X5.82Y-4.6
X5.8438Y-2.0312
X5.8661Y-4.4411
X5.89Y-4.48
X5.905Y-5.215
X6.0Y-2.2812
X6.0312Y-2.7812
X6.0536Y-2.1911
X6.0775Y-2.23
X6.085Y-3.24
X6.085Y-4.76
X6.1Y-4.665
X6.105Y-5.09
X6.1055Y-3.2095
X6.12Y-5.12
X6.1238Y-3.1812
X6.135Y-5.15
X6.1419Y-3.1531
X6.145Y-4.59
X6.16Y-3.125
X6.16Y-4.86
X6.17Y-4.895
X6.17Y-5.15
X6.175Y-4.49
X6.175Y-4.545
X6.177Y-3.093
X6.1875Y-3.0312
X6.205Y-5.15
X6.24Y-5.15
X6.2411Y-2.9411
X6.265Y-2.98
X6.275Y-5.15
X6.31Y-4.198
X6.31Y-4.61
X6.31Y-5.15
X6.345Y-5.15
X6.355Y-4.705
X6.375Y-3.7812
X6.4133Y-4.1417
X6.415Y-5.14
X6.4286Y-3.6911
X6.438Y-3.932
X6.44Y-5.115
X6.443Y-4.157
X6.4525Y-3.73
X6.465Y-5.09
X6.475Y-3.96
X6.49Y-5.065
X6.515Y-5.04
X6.525Y-3.935
X6.525Y-4.57
X6.5622Y-4.665
X6.5625Y-4.5312
X6.565Y-5.305
X6.585Y-4.82
X6.5938Y-2.0312
X6.6039Y-5.3061
X6.605Y-4.71
X6.615Y-5.25
X6.6161Y-4.4411
X6.625Y-3.985
X6.6298Y-5.1748
X6.64Y-4.48
X6.645Y-5.305
X6.66Y-5.035
X6.685Y-5.195
X6.695Y-4.725
X6.725Y-3.935
X6.75Y-2.2812
X6.75Y-2.7812
X6.8036Y-2.1911
X6.8275Y-2.23
X6.88Y-5.2516
X6.92Y-5.285
X6.93Y-3.24
X6.9375Y-3.0312
X6.9375Y-3.5312
X6.95Y-5.305
X6.9911Y-2.9411
X7.0Y-3.4
X7.015Y-2.98
X7.095Y-4.425
X7.095Y-4.795
X7.095Y-4.875
X7.095Y-5.115
X7.125Y-3.7812
X7.135Y-4.28
X7.1359Y-3.9391
X7.17Y-4.425
X7.17Y-4.715
X7.1786Y-3.6911
X7.184Y-3.916
X7.2025Y-3.73
X7.295Y-4.585
X7.3125Y-4.5312
X7.3125Y-5.0312
X7.3438Y-2.0312
X7.3661Y-4.4411
X7.39Y-4.48
X7.41Y-4.695
X7.44Y-4.93
X7.5Y-2.2812
X7.5312Y-2.7812
X7.54Y-5.195
X7.5536Y-2.1911
X7.5775Y-2.23
X7.59Y-5.22
X7.66Y-5.165
X7.6875Y-3.0312
X7.69Y-5.11
X7.695Y-5.185
X7.7188Y-3.5312
X7.72Y-5.21
X7.7411Y-2.9411
X7.765Y-2.98
X7.795Y-3.67
X7.795Y-3.775
X7.8116Y-5.3534
X7.84Y-3.745
X7.875Y-3.7812
X7.875Y-4.2812
X7.895Y-3.655
X7.9286Y-3.6911
X7.932Y-3.908
X7.94Y-5.145
X7.9525Y-3.73
X7.9593Y-5.3243
X8.0625Y-2.0312
X8.0625Y-4.5312
X8.08Y-4.6
X8.095Y-5.22
X8.1161Y-4.4411
X8.14Y-4.48
X8.17Y-4.855
X8.18Y-5.12
X8.18Y-5.175
X8.25Y-2.2812
X8.2812Y-2.7812
X8.3036Y-2.1911
X8.3275Y-2.23
X8.3438Y-5.0312
X8.375Y-4.68
X8.375Y-5.365
X8.4375Y-3.0312
X8.4688Y-3.5312
X8.4911Y-2.9411
X8.515Y-2.98
X8.61Y-5.305
X8.625Y-3.7812
X8.6562Y-4.2812
X8.677Y-3.888
X8.6786Y-3.6911
X8.7025Y-3.73
X8.8125Y-2.0312
X8.8125Y-4.5312
X8.83Y-4.605
X8.8661Y-4.4411
X8.89Y-4.48
X8.925Y-4.87
X9.0Y-2.2812
X9.0312Y-2.7812
X9.0536Y-2.1911
X9.075Y-5.145
X9.075Y-5.22
X9.075Y-5.28
X9.0775Y-2.23
X9.1875Y-3.0312
X9.2188Y-3.5312
X9.2411Y-2.9411
X9.265Y-2.98
X9.315Y-1.91
X9.375Y-2.5938
X9.375Y-3.7812
X9.4062Y-4.2812
X9.423Y-3.872
X9.4286Y-3.6911
X9.4525Y-3.73
X9.545Y-5.145
X9.545Y-5.22
X9.545Y-5.265
X9.5625Y-3.3438
X9.5625Y-4.5312
X9.585Y-4.62
X9.5938Y-2.0312
X9.5954Y-2.9478
X9.6161Y-4.4411
X9.64Y-4.48
X9.64Y-4.73
X9.75Y-4.0938
X9.7803Y-3.6978
X9.8036Y-2.1911
X9.8275Y-2.23
X9.83Y-2.27
X9.83Y-5.22
X9.83Y-5.28
X9.9375Y-2.7812
X10.0625Y-3.5312
X10.0788Y-1.94
X10.175Y-3.0312
X10.1875Y-4.2812
X10.27Y-3.7812
X10.2723Y-2.9411
X10.2963Y-2.98
X10.3033Y-3.8567
X10.3125Y-5.0625
X10.3438Y-2.0312
X10.355Y-4.96
X10.365Y-4.5312
X10.3673Y-3.6911
X10.38Y-4.65
X10.3912Y-3.73
X10.4265Y-4.4385
X10.4623Y-4.4411
X10.4863Y-4.48
X10.5Y-5.31
X10.525Y-5.265
X10.5275Y-5.23
X10.5536Y-2.1911
X10.575Y-2.27
X10.5775Y-2.23
X10.595Y-5.145
X10.8438Y-4.9375
X10.88Y-5.205
X10.895Y-5.235
X10.91Y-5.265
X10.925Y-5.295
X10.98Y-4.455
X11.005Y-4.485
X11.03Y-4.515
X11.0312Y-2.0312
X11.0312Y-2.7812
X11.0312Y-4.2812
T2
X0.8187Y-1.9312
X0.9125Y-2.6812
X0.9125Y-4.9312
X1.0062Y-3.4312
X1.0687Y-1.8313
X1.1Y-4.1812
X1.1625Y-2.5812
X1.1625Y-4.8312
X1.2562Y-3.3312
X1.35Y-4.0812
X1.5687Y-1.9312
X1.7562Y-2.6812
X1.8187Y-1.8313
X1.85Y-4.9312
X1.9437Y-3.4312
X2.0063Y-2.5812
X2.1Y-4.8312
X2.1313Y-4.1812
X2.1938Y-3.3312
X2.3188Y-1.9312
X2.3813Y-4.0812
X2.5063Y-2.6812
X2.5688Y-1.8313
X2.6938Y-3.4312
X2.7563Y-2.5812
X2.7875Y-4.9312
X2.8813Y-4.1812
X2.8813Y-4.9312
X2.9438Y-3.3312
X3.0375Y-4.8312
X3.0688Y-1.9312
X3.1313Y-4.0812
X3.1313Y-4.8312
X3.2563Y-2.6812
X3.3188Y-1.8313
X3.4438Y-3.4312
X3.5063Y-2.5812
X3.6313Y-4.1812
X3.6938Y-3.3312
X3.8188Y-1.9312
X3.8813Y-4.0812
X4.0062Y-2.6812
X4.0062Y-4.9312
X4.0687Y-1.8313
X4.1937Y-3.4312
X4.2562Y-2.5812
X4.2562Y-4.8312
X4.3812Y-4.1812
X4.4437Y-3.3312
X4.5687Y-1.9312
X4.6312Y-4.0812
X4.7562Y-2.6812
X4.8187Y-1.8313
X4.9437Y-3.4312
X4.9437Y-4.9312
X5.0062Y-2.5812
X5.1312Y-4.1812
X5.1937Y-3.3312
X5.1937Y-4.8312
X5.3187Y-1.9312
X5.3812Y-4.0812
X5.5062Y-2.6812
X5.5687Y-1.8313
X5.6Y-4.9312
X5.6937Y-3.4312
X5.6937Y-4.9312
X5.7562Y-2.5812
X5.85Y-4.8312
X5.8812Y-4.1812
X5.9437Y-3.3312
X5.9437Y-4.8312
X6.0687Y-1.9312
X6.1312Y-4.0812
X6.2562Y-2.6812
X6.3187Y-1.8313
X6.4437Y-3.4312
X6.5062Y-2.5812
X6.6312Y-4.1812
X6.6312Y-4.9312
X6.6937Y-3.3312
X6.8187Y-1.9312
X6.8812Y-4.0812
X6.8812Y-4.8312
X7.0062Y-2.6812
X7.0687Y-1.8313
X7.1937Y-3.4312
X7.2562Y-2.5812
X7.3812Y-4.1812
X7.4437Y-3.3312
X7.5687Y-1.9312
X7.6312Y-4.0812
X7.6625Y-4.9312
X7.7562Y-2.6812
X7.8187Y-1.8313
X7.9125Y-4.8312
X7.9437Y-3.4312
X8.0062Y-2.5812
X8.1312Y-4.1812
X8.1937Y-3.3312
X8.3187Y-4.9312
X8.3187Y-1.9312
X8.3812Y-4.0812
X8.5062Y-2.6812
X8.5687Y-4.8312
X8.5687Y-1.8313
X8.6Y-4.9312
X8.6937Y-3.4312
X8.7562Y-2.5812
X8.85Y-4.8312
X8.8812Y-4.1812
X8.9437Y-3.3312
X9.0687Y-4.9312
X9.0687Y-1.9312
X9.1312Y-4.0812
X9.2562Y-2.6812
X9.3187Y-4.8312
X9.3187Y-1.8313
X9.4437Y-3.4312
X9.5062Y-2.5812
X9.5375Y-4.9312
X9.6312Y-4.1812
X9.6937Y-3.3312
X9.7875Y-4.8312
X9.8187Y-4.9312
X9.8187Y-1.9312
X9.8812Y-4.0812
X10.0687Y-4.8312
X10.0687Y-1.8313
X10.2875Y-2.6812
X10.3812Y-3.4312
X10.475Y-4.1812
X10.475Y-4.9312
X10.5375Y-2.5812
X10.5687Y-1.9312
X10.5687Y-4.9312
X10.6312Y-3.3312
X10.725Y-4.0812
X10.725Y-4.8312
X10.8187Y-1.8313
X10.8187Y-4.8312
T3
X6.355Y-4.94
T0
M30
