%TF.GenerationSoftware,KiCad,Pcbnew,(6.0.5)*%
%TF.CreationDate,2022-07-14T21:57:26-04:00*%
%TF.ProjectId,bd64pcb,62643634-7063-4622-9e6b-696361645f70,rev?*%
%TF.SameCoordinates,Original*%
%TF.FileFunction,Soldermask,Top*%
%TF.FilePolarity,Negative*%
%FSLAX46Y46*%
G04 Gerber Fmt 4.6, Leading zero omitted, Abs format (unit mm)*
G04 Created by KiCad (PCBNEW (6.0.5)) date 2022-07-14 21:57:26*
%MOMM*%
%LPD*%
G01*
G04 APERTURE LIST*
G04 Aperture macros list*
%AMRoundRect*
0 Rectangle with rounded corners*
0 $1 Rounding radius*
0 $2 $3 $4 $5 $6 $7 $8 $9 X,Y pos of 4 corners*
0 Add a 4 corners polygon primitive as box body*
4,1,4,$2,$3,$4,$5,$6,$7,$8,$9,$2,$3,0*
0 Add four circle primitives for the rounded corners*
1,1,$1+$1,$2,$3*
1,1,$1+$1,$4,$5*
1,1,$1+$1,$6,$7*
1,1,$1+$1,$8,$9*
0 Add four rect primitives between the rounded corners*
20,1,$1+$1,$2,$3,$4,$5,0*
20,1,$1+$1,$4,$5,$6,$7,0*
20,1,$1+$1,$6,$7,$8,$9,0*
20,1,$1+$1,$8,$9,$2,$3,0*%
G04 Aperture macros list end*
%ADD10C,3.987800*%
%ADD11C,1.750000*%
%ADD12C,3.048000*%
%ADD13RoundRect,1.500000X0.000000X-0.707107X0.707107X0.000000X0.000000X0.707107X-0.707107X0.000000X0*%
G04 APERTURE END LIST*
D10*
%TO.C,MX1*%
X24606250Y-51593750D03*
D11*
X29686250Y-51593750D03*
X19526250Y-51593750D03*
%TD*%
%TO.C,MX2*%
X48736250Y-51593750D03*
D10*
X43656250Y-51593750D03*
D11*
X38576250Y-51593750D03*
%TD*%
D10*
%TO.C,MX4*%
X81756250Y-51593750D03*
D11*
X76676250Y-51593750D03*
X86836250Y-51593750D03*
%TD*%
D10*
%TO.C,MX10*%
X196056250Y-51593750D03*
D11*
X201136250Y-51593750D03*
X190976250Y-51593750D03*
%TD*%
%TO.C,MX11*%
X220186250Y-51593750D03*
X210026250Y-51593750D03*
D10*
X215106250Y-51593750D03*
%TD*%
D11*
%TO.C,MX12*%
X239236250Y-51593750D03*
X229076250Y-51593750D03*
D10*
X234156250Y-51593750D03*
%TD*%
D11*
%TO.C,MX13*%
X248126250Y-51593750D03*
X258286250Y-51593750D03*
D10*
X253206250Y-51593750D03*
%TD*%
D11*
%TO.C,MX14*%
X277336250Y-51593750D03*
X267176250Y-51593750D03*
D10*
X272256250Y-51593750D03*
%TD*%
%TO.C,MX15*%
X26987500Y-70643750D03*
D11*
X32067500Y-70643750D03*
X21907500Y-70643750D03*
%TD*%
D10*
%TO.C,MX16*%
X48418750Y-70643750D03*
D11*
X43338750Y-70643750D03*
X53498750Y-70643750D03*
%TD*%
%TO.C,MX17*%
X62388750Y-70643750D03*
D10*
X67468750Y-70643750D03*
D11*
X72548750Y-70643750D03*
%TD*%
D10*
%TO.C,MX18*%
X86518750Y-70643750D03*
D11*
X81438750Y-70643750D03*
X91598750Y-70643750D03*
%TD*%
%TO.C,MX19*%
X110648750Y-70643750D03*
X100488750Y-70643750D03*
D10*
X105568750Y-70643750D03*
%TD*%
D11*
%TO.C,MX20*%
X119538750Y-70643750D03*
X129698750Y-70643750D03*
D10*
X124618750Y-70643750D03*
%TD*%
D11*
%TO.C,MX25*%
X224948750Y-70643750D03*
X214788750Y-70643750D03*
D10*
X219868750Y-70643750D03*
%TD*%
D11*
%TO.C,MX26*%
X243998750Y-70643750D03*
D10*
X238918750Y-70643750D03*
D11*
X233838750Y-70643750D03*
%TD*%
%TO.C,MX28*%
X24288750Y-89693750D03*
D10*
X29368750Y-89693750D03*
D11*
X34448750Y-89693750D03*
%TD*%
%TO.C,MX29*%
X58261250Y-89693750D03*
X48101250Y-89693750D03*
D10*
X53181250Y-89693750D03*
%TD*%
D11*
%TO.C,MX37*%
X200501250Y-89693750D03*
X210661250Y-89693750D03*
D10*
X205581250Y-89693750D03*
%TD*%
D11*
%TO.C,MX38*%
X229711250Y-89693750D03*
D10*
X224631250Y-89693750D03*
D11*
X219551250Y-89693750D03*
%TD*%
D10*
%TO.C,MX39*%
X243681250Y-89693750D03*
D11*
X248761250Y-89693750D03*
X238601250Y-89693750D03*
%TD*%
%TO.C,MX40*%
X272573750Y-89693750D03*
X262413750Y-89693750D03*
D10*
X267493750Y-89693750D03*
%TD*%
%TO.C,MX41*%
X31750000Y-108743750D03*
D11*
X36830000Y-108743750D03*
X26670000Y-108743750D03*
%TD*%
D10*
%TO.C,MX42*%
X57943750Y-108743750D03*
D11*
X52863750Y-108743750D03*
X63023750Y-108743750D03*
%TD*%
D10*
%TO.C,MX43*%
X76993750Y-108743750D03*
D11*
X82073750Y-108743750D03*
X71913750Y-108743750D03*
%TD*%
%TO.C,MX44*%
X90963750Y-108743750D03*
D10*
X96043750Y-108743750D03*
D11*
X101123750Y-108743750D03*
%TD*%
%TO.C,MX45*%
X120173750Y-108743750D03*
X110013750Y-108743750D03*
D10*
X115093750Y-108743750D03*
%TD*%
D11*
%TO.C,MX46*%
X129063750Y-108743750D03*
X139223750Y-108743750D03*
D10*
X134143750Y-108743750D03*
%TD*%
D11*
%TO.C,MX47*%
X158273750Y-108743750D03*
X148113750Y-108743750D03*
D10*
X153193750Y-108743750D03*
%TD*%
D11*
%TO.C,MX48*%
X167163750Y-108743750D03*
D10*
X172243750Y-108743750D03*
D11*
X177323750Y-108743750D03*
%TD*%
D10*
%TO.C,MX49*%
X191293750Y-108743750D03*
D11*
X196373750Y-108743750D03*
X186213750Y-108743750D03*
%TD*%
D10*
%TO.C,MX50*%
X210343750Y-108743750D03*
D11*
X205263750Y-108743750D03*
X215423750Y-108743750D03*
%TD*%
%TO.C,MX51*%
X234473750Y-108743750D03*
D10*
X229393750Y-108743750D03*
D11*
X224313750Y-108743750D03*
%TD*%
D10*
%TO.C,MX52*%
X248443750Y-108743750D03*
D11*
X243363750Y-108743750D03*
X253523750Y-108743750D03*
%TD*%
%TO.C,MX54*%
X32067500Y-127793750D03*
D10*
X26987500Y-127793750D03*
D11*
X21907500Y-127793750D03*
%TD*%
%TO.C,MX55*%
X45720000Y-127793750D03*
D10*
X50800000Y-127793750D03*
D11*
X55880000Y-127793750D03*
%TD*%
%TO.C,MX56*%
X69531900Y-127793150D03*
D10*
X74611900Y-127793150D03*
X76993750Y-127793750D03*
D11*
X71913750Y-127793750D03*
X79691900Y-127793150D03*
X82073750Y-127793750D03*
%TD*%
%TO.C,MX57*%
X100488750Y-127793750D03*
X110648750Y-127793750D03*
D10*
X105568750Y-127793750D03*
%TD*%
D11*
%TO.C,MX58*%
X134461250Y-127793750D03*
D10*
X129381250Y-127793750D03*
D11*
X124301250Y-127793750D03*
%TD*%
D10*
%TO.C,MX59*%
X146046400Y-127793150D03*
D11*
X151126400Y-127793150D03*
X140966400Y-127793150D03*
D10*
X96046500Y-119538150D03*
D11*
X143351250Y-127793750D03*
D12*
X96046500Y-134778150D03*
D11*
X153511250Y-127793750D03*
D10*
X196046300Y-119538150D03*
D12*
X196046300Y-134778150D03*
D10*
X148431250Y-127793750D03*
%TD*%
D11*
%TO.C,MX60*%
X177323750Y-127793750D03*
X167163750Y-127793750D03*
D10*
X172243750Y-127793750D03*
%TD*%
%TO.C,MX61*%
X198437500Y-127793750D03*
D11*
X203517500Y-127793750D03*
X193357500Y-127793750D03*
X220184600Y-127793150D03*
D10*
X215104600Y-127793150D03*
D11*
X210024600Y-127793150D03*
%TD*%
%TO.C,MX62*%
X239234900Y-127793150D03*
D10*
X222250000Y-127793750D03*
D11*
X229074900Y-127793150D03*
D10*
X234154900Y-127793150D03*
D11*
X217170000Y-127793750D03*
X227330000Y-127793750D03*
%TD*%
%TO.C,MX63*%
X251142500Y-127793750D03*
X248125200Y-127793750D03*
X258285200Y-127793750D03*
D10*
X253205200Y-127793750D03*
D11*
X240982500Y-127793750D03*
D10*
X246062500Y-127793750D03*
%TD*%
%TO.C,MX64*%
X272256250Y-127793750D03*
D11*
X264795000Y-127793750D03*
D10*
X269875000Y-127793750D03*
D11*
X274955000Y-127793750D03*
X277336250Y-127793750D03*
X267176250Y-127793750D03*
%TD*%
%TO.C,MX30*%
X77311250Y-89693750D03*
D10*
X72231250Y-89693750D03*
D11*
X67151250Y-89693750D03*
%TD*%
%TO.C,MX36*%
X191611250Y-89693750D03*
D10*
X186531250Y-89693750D03*
D11*
X181451250Y-89693750D03*
%TD*%
D10*
%TO.C,MX35*%
X167481250Y-89693750D03*
D11*
X172561250Y-89693750D03*
X162401250Y-89693750D03*
%TD*%
D10*
%TO.C,MX34*%
X148431250Y-89693750D03*
D11*
X153511250Y-89693750D03*
X143351250Y-89693750D03*
%TD*%
%TO.C,MX33*%
X134461250Y-89693750D03*
D10*
X129381250Y-89693750D03*
D11*
X124301250Y-89693750D03*
%TD*%
%TO.C,MX32*%
X105251250Y-89693750D03*
D10*
X110331250Y-89693750D03*
D11*
X115411250Y-89693750D03*
%TD*%
%TO.C,MX31*%
X96361250Y-89693750D03*
D10*
X91281250Y-89693750D03*
D11*
X86201250Y-89693750D03*
%TD*%
%TO.C,MX23*%
X186848750Y-70643750D03*
X176688750Y-70643750D03*
D10*
X181768750Y-70643750D03*
%TD*%
%TO.C,MX22*%
X162718750Y-70643750D03*
D11*
X167798750Y-70643750D03*
X157638750Y-70643750D03*
%TD*%
D10*
%TO.C,MX21*%
X143668750Y-70643750D03*
D11*
X148748750Y-70643750D03*
X138588750Y-70643750D03*
%TD*%
%TO.C,MX5*%
X105886250Y-51593750D03*
X95726250Y-51593750D03*
D10*
X100806250Y-51593750D03*
%TD*%
D11*
%TO.C,MX9*%
X182086250Y-51593750D03*
D10*
X177006250Y-51593750D03*
D11*
X171926250Y-51593750D03*
%TD*%
%TO.C,MX24*%
X205898750Y-70643750D03*
D10*
X200818750Y-70643750D03*
D11*
X195738750Y-70643750D03*
%TD*%
%TO.C,MX7*%
X143986250Y-51593750D03*
X133826250Y-51593750D03*
D10*
X138906250Y-51593750D03*
%TD*%
D11*
%TO.C,MX6*%
X114776250Y-51593750D03*
D10*
X119856250Y-51593750D03*
D11*
X124936250Y-51593750D03*
%TD*%
%TO.C,MX8*%
X163036250Y-51593750D03*
D10*
X157956250Y-51593750D03*
D11*
X152876250Y-51593750D03*
%TD*%
%TO.C,MX53*%
X264795000Y-108743750D03*
X274955000Y-108743750D03*
D10*
X269875000Y-108743750D03*
%TD*%
D11*
%TO.C,MX3*%
X67786250Y-51593750D03*
X57626250Y-51593750D03*
D10*
X62706250Y-51593750D03*
%TD*%
%TO.C,MX27*%
X265112500Y-70643750D03*
D11*
X260032500Y-70643750D03*
X270192500Y-70643750D03*
%TD*%
D13*
%TO.C,U2*%
X161417000Y-125476000D03*
%TD*%
M02*
