M48
; DRILL file {KiCad (6.0.5)} date Thu Jul 14 23:35:47 2022
; FORMAT={-:-/ absolute / metric / decimal}
; #@! TF.CreationDate,2022-07-14T23:35:47-04:00
; #@! TF.GenerationSoftware,Kicad,Pcbnew,(6.0.5)
; #@! TF.FileFunction,NonPlated,1,2,NPTH
FMAT,2
METRIC
; #@! TA.AperFunction,NonPlated,NPTH,ComponentDrill
T1C1.750
; #@! TA.AperFunction,NonPlated,NPTH,ComponentDrill
T2C3.048
; #@! TA.AperFunction,NonPlated,NPTH,ComponentDrill
T3C3.988
%
G90
G05
T1
X19.526Y-51.594
X21.907Y-70.644
X21.907Y-127.794
X24.289Y-89.694
X26.67Y-108.744
X29.686Y-51.594
X32.067Y-70.644
X32.067Y-127.794
X34.449Y-89.694
X36.83Y-108.744
X38.576Y-51.594
X43.339Y-70.644
X45.72Y-127.794
X48.101Y-89.694
X48.736Y-51.594
X52.864Y-108.744
X53.499Y-70.644
X55.88Y-127.794
X57.626Y-51.594
X58.261Y-89.694
X62.389Y-70.644
X63.024Y-108.744
X67.151Y-89.694
X67.786Y-51.594
X69.532Y-127.793
X71.914Y-108.744
X71.914Y-127.794
X72.549Y-70.644
X76.676Y-51.594
X77.311Y-89.694
X79.692Y-127.793
X81.439Y-70.644
X82.074Y-108.744
X82.074Y-127.794
X86.201Y-89.694
X86.836Y-51.594
X90.964Y-108.744
X91.599Y-70.644
X95.726Y-51.594
X96.361Y-89.694
X100.489Y-70.644
X100.489Y-127.794
X101.124Y-108.744
X105.251Y-89.694
X105.886Y-51.594
X110.014Y-108.744
X110.649Y-70.644
X110.649Y-127.794
X114.776Y-51.594
X115.411Y-89.694
X119.539Y-70.644
X120.174Y-108.744
X124.301Y-89.694
X124.301Y-127.794
X124.936Y-51.594
X129.064Y-108.744
X129.699Y-70.644
X133.826Y-51.594
X134.461Y-89.694
X134.461Y-127.794
X138.589Y-70.644
X139.224Y-108.744
X140.966Y-127.793
X143.351Y-89.694
X143.351Y-127.794
X143.986Y-51.594
X148.114Y-108.744
X148.749Y-70.644
X151.126Y-127.793
X152.876Y-51.594
X153.511Y-89.694
X153.511Y-127.794
X157.639Y-70.644
X158.274Y-108.744
X162.401Y-89.694
X163.036Y-51.594
X167.164Y-108.744
X167.164Y-127.794
X167.799Y-70.644
X171.926Y-51.594
X172.561Y-89.694
X176.689Y-70.644
X177.324Y-108.744
X177.324Y-127.794
X181.451Y-89.694
X182.086Y-51.594
X186.214Y-108.744
X186.849Y-70.644
X190.976Y-51.594
X191.611Y-89.694
X193.357Y-127.794
X195.739Y-70.644
X196.374Y-108.744
X200.501Y-89.694
X201.136Y-51.594
X203.517Y-127.794
X205.264Y-108.744
X205.899Y-70.644
X210.025Y-127.793
X210.026Y-51.594
X210.661Y-89.694
X214.789Y-70.644
X215.424Y-108.744
X217.17Y-127.794
X219.551Y-89.694
X220.185Y-127.793
X220.186Y-51.594
X224.314Y-108.744
X224.949Y-70.644
X227.33Y-127.794
X229.075Y-127.793
X229.076Y-51.594
X229.711Y-89.694
X233.839Y-70.644
X234.474Y-108.744
X238.601Y-89.694
X239.235Y-127.793
X239.236Y-51.594
X240.982Y-127.794
X243.364Y-108.744
X243.999Y-70.644
X248.125Y-127.794
X248.126Y-51.594
X248.761Y-89.694
X251.142Y-127.794
X253.524Y-108.744
X258.285Y-127.794
X258.286Y-51.594
X260.032Y-70.644
X262.414Y-89.694
X264.795Y-108.744
X264.795Y-127.794
X267.176Y-51.594
X267.176Y-127.794
X270.192Y-70.644
X272.574Y-89.694
X274.955Y-108.744
X274.955Y-127.794
X277.336Y-51.594
X277.336Y-127.794
T2
X96.046Y-134.778
X196.046Y-134.778
T3
X24.606Y-51.594
X26.987Y-70.644
X26.987Y-127.794
X29.369Y-89.694
X31.75Y-108.744
X43.656Y-51.594
X48.419Y-70.644
X50.8Y-127.794
X53.181Y-89.694
X57.944Y-108.744
X62.706Y-51.594
X67.469Y-70.644
X72.231Y-89.694
X74.612Y-127.793
X76.994Y-108.744
X76.994Y-127.794
X81.756Y-51.594
X86.519Y-70.644
X91.281Y-89.694
X96.044Y-108.744
X96.046Y-119.538
X100.806Y-51.594
X105.569Y-70.644
X105.569Y-127.794
X110.331Y-89.694
X115.094Y-108.744
X119.856Y-51.594
X124.619Y-70.644
X129.381Y-89.694
X129.381Y-127.794
X134.144Y-108.744
X138.906Y-51.594
X143.669Y-70.644
X146.046Y-127.793
X148.431Y-89.694
X148.431Y-127.794
X153.194Y-108.744
X157.956Y-51.594
X162.719Y-70.644
X167.481Y-89.694
X172.244Y-108.744
X172.244Y-127.794
X177.006Y-51.594
X181.769Y-70.644
X186.531Y-89.694
X191.294Y-108.744
X196.046Y-119.538
X196.056Y-51.594
X198.438Y-127.794
X200.819Y-70.644
X205.581Y-89.694
X210.344Y-108.744
X215.105Y-127.793
X215.106Y-51.594
X219.869Y-70.644
X222.25Y-127.794
X224.631Y-89.694
X229.394Y-108.744
X234.155Y-127.793
X234.156Y-51.594
X238.919Y-70.644
X243.681Y-89.694
X246.062Y-127.794
X248.444Y-108.744
X253.205Y-127.794
X253.206Y-51.594
X265.113Y-70.644
X267.494Y-89.694
X269.875Y-108.744
X269.875Y-127.794
X272.256Y-51.594
X272.256Y-127.794
T0
M30
