%TF.GenerationSoftware,KiCad,Pcbnew,(6.0.5)*%
%TF.CreationDate,2022-07-14T23:48:44-04:00*%
%TF.ProjectId,bd64pcb,62643634-7063-4622-9e6b-696361645f70,rev?*%
%TF.SameCoordinates,Original*%
%TF.FileFunction,Profile,NP*%
%FSLAX46Y46*%
G04 Gerber Fmt 4.6, Leading zero omitted, Abs format (unit mm)*
G04 Created by KiCad (PCBNEW (6.0.5)) date 2022-07-14 23:48:44*
%MOMM*%
%LPD*%
G01*
G04 APERTURE LIST*
%TA.AperFunction,Profile*%
%ADD10C,0.150000*%
%TD*%
G04 APERTURE END LIST*
D10*
X173037500Y-136525000D02*
G75*
G03*
X173831250Y-137318750I793750J0D01*
G01*
X173037500Y-136525000D02*
G75*
G03*
X172243750Y-135731250I-793750J0D01*
G01*
X162718750Y-137318750D02*
G75*
G03*
X163512500Y-136525000I0J793750D01*
G01*
X164306250Y-135731250D02*
G75*
G03*
X163512500Y-136525000I0J-793750D01*
G01*
X178196875Y-137318750D02*
G75*
G03*
X184932067Y-134528942I0J9525000D01*
G01*
X190511683Y-134528942D02*
G75*
G03*
X197246875Y-137318750I6735192J6735192D01*
G01*
X190511683Y-134528942D02*
G75*
G03*
X187721875Y-133373366I-2789808J-2789808D01*
G01*
X187721875Y-133373366D02*
G75*
G03*
X184932067Y-134528942I0J-3945384D01*
G01*
X251968000Y-137318750D02*
G75*
G03*
X258703192Y-134528942I0J9525000D01*
G01*
X264282808Y-134528942D02*
G75*
G03*
X271018000Y-137318750I6735192J6735192D01*
G01*
X264282808Y-134528942D02*
G75*
G03*
X261493000Y-133373366I-2789808J-2789808D01*
G01*
X261493000Y-133373366D02*
G75*
G03*
X258703192Y-134528942I0J-3945384D01*
G01*
X183741442Y-44858558D02*
G75*
G03*
X186531250Y-46014134I2789808J2789808D01*
G01*
X183741442Y-44858558D02*
G75*
G03*
X177006250Y-42068750I-6735192J-6735192D01*
G01*
X186531250Y-46014134D02*
G75*
G03*
X189321058Y-44858558I0J3945384D01*
G01*
X196056250Y-42068750D02*
G75*
G03*
X189321058Y-44858558I0J-9525000D01*
G01*
X119856250Y-42068750D02*
G75*
G03*
X113121058Y-44858558I0J-9525000D01*
G01*
X107541442Y-44858558D02*
G75*
G03*
X100806250Y-42068750I-6735192J-6735192D01*
G01*
X107541442Y-44858558D02*
G75*
G03*
X110331250Y-46014134I2789808J2789808D01*
G01*
X110331250Y-46014134D02*
G75*
G03*
X113121058Y-44858558I0J3945384D01*
G01*
X281781250Y-51593750D02*
G75*
G03*
X272256250Y-42068750I-9525000J0D01*
G01*
X272256250Y-42068750D02*
G75*
G03*
X265521058Y-44858558I0J-9525000D01*
G01*
X259941442Y-44858558D02*
G75*
G03*
X253206250Y-42068750I-6735192J-6735192D01*
G01*
X259941442Y-44858558D02*
G75*
G03*
X262731250Y-46014134I2789808J2789808D01*
G01*
X262731250Y-46014134D02*
G75*
G03*
X265521058Y-44858558I0J3945384D01*
G01*
X107950000Y-137318750D02*
G75*
G03*
X114685192Y-134528942I0J9525000D01*
G01*
X120264808Y-134528942D02*
G75*
G03*
X127000000Y-137318750I6735192J6735192D01*
G01*
X120264808Y-134528942D02*
G75*
G03*
X117475000Y-133373366I-2789808J-2789808D01*
G01*
X117475000Y-133373366D02*
G75*
G03*
X114685192Y-134528942I0J-3945384D01*
G01*
X41683558Y-134528942D02*
G75*
G03*
X48418750Y-137318750I6735192J6735192D01*
G01*
X41683558Y-134528942D02*
G75*
G03*
X38893750Y-133373366I-2789808J-2789808D01*
G01*
X38893750Y-133373366D02*
G75*
G03*
X36103942Y-134528942I0J-3945384D01*
G01*
X29368750Y-137318750D02*
G75*
G03*
X36103942Y-134528942I0J9525000D01*
G01*
X24606250Y-137318750D02*
X29368750Y-137318750D01*
X48418750Y-137318750D02*
X107950000Y-137318750D01*
X30068480Y-43790565D02*
G75*
G03*
X15081250Y-51593750I-5462575J-7802521D01*
G01*
X44446194Y-44660503D02*
X32547738Y-44660243D01*
X253206250Y-42068750D02*
X196056250Y-42068750D01*
X164306250Y-135731250D02*
X172243750Y-135731250D01*
X100806250Y-42068750D02*
X52387500Y-42068750D01*
X173831250Y-137318750D02*
X178196875Y-137318750D01*
X15081250Y-127793750D02*
X15081250Y-51593750D01*
X271018000Y-137318750D02*
X272256250Y-137318750D01*
X52387500Y-42068750D02*
G75*
G03*
X46925453Y-43790826I-119J-9522868D01*
G01*
X281781250Y-127793750D02*
X281781250Y-51593750D01*
X272256250Y-137318750D02*
G75*
G03*
X281781250Y-127793750I0J9525000D01*
G01*
X44446194Y-44660503D02*
G75*
G03*
X46925453Y-43790826I1368J3964852D01*
G01*
X177006250Y-42068750D02*
X119856250Y-42068750D01*
X197246875Y-137318750D02*
X251968000Y-137318750D01*
X15081250Y-127793750D02*
G75*
G03*
X24606250Y-137318750I9525000J0D01*
G01*
X30068479Y-43790566D02*
G75*
G03*
X32547738Y-44660243I2477819J3094972D01*
G01*
X127000000Y-137318750D02*
X162718750Y-137318750D01*
%TO.C,L1*%
X25656250Y-56769000D02*
G75*
G03*
X25656250Y-56769000I-1050000J0D01*
G01*
%TO.C,L2*%
X44706250Y-56769000D02*
G75*
G03*
X44706250Y-56769000I-1050000J0D01*
G01*
%TO.C,L3*%
X63756250Y-56769000D02*
G75*
G03*
X63756250Y-56769000I-1050000J0D01*
G01*
%TO.C,L4*%
X82806250Y-56769000D02*
G75*
G03*
X82806250Y-56769000I-1050000J0D01*
G01*
%TO.C,L5*%
X101856250Y-56769000D02*
G75*
G03*
X101856250Y-56769000I-1050000J0D01*
G01*
%TO.C,L6*%
X120906250Y-56769000D02*
G75*
G03*
X120906250Y-56769000I-1050000J0D01*
G01*
%TO.C,L7*%
X139956250Y-56769000D02*
G75*
G03*
X139956250Y-56769000I-1050000J0D01*
G01*
%TO.C,L8*%
X159006250Y-56769000D02*
G75*
G03*
X159006250Y-56769000I-1050000J0D01*
G01*
%TO.C,L9*%
X178056250Y-56769000D02*
G75*
G03*
X178056250Y-56769000I-1050000J0D01*
G01*
%TO.C,L10*%
X197106250Y-56769000D02*
G75*
G03*
X197106250Y-56769000I-1050000J0D01*
G01*
%TO.C,L11*%
X216156250Y-56769000D02*
G75*
G03*
X216156250Y-56769000I-1050000J0D01*
G01*
%TO.C,L12*%
X235206250Y-56769000D02*
G75*
G03*
X235206250Y-56769000I-1050000J0D01*
G01*
%TO.C,L13*%
X254256250Y-56769000D02*
G75*
G03*
X254256250Y-56769000I-1050000J0D01*
G01*
%TO.C,L14*%
X273306250Y-56769000D02*
G75*
G03*
X273306250Y-56769000I-1050000J0D01*
G01*
%TO.C,L15*%
X28037500Y-132969000D02*
G75*
G03*
X28037500Y-132969000I-1050000J0D01*
G01*
%TO.C,L16*%
X51850000Y-132969000D02*
G75*
G03*
X51850000Y-132969000I-1050000J0D01*
G01*
%TO.C,L18*%
X49468750Y-75819000D02*
G75*
G03*
X49468750Y-75819000I-1050000J0D01*
G01*
%TO.C,L19*%
X68518750Y-75819000D02*
G75*
G03*
X68518750Y-75819000I-1050000J0D01*
G01*
%TO.C,L20*%
X87568750Y-75819000D02*
G75*
G03*
X87568750Y-75819000I-1050000J0D01*
G01*
%TO.C,L21*%
X106618750Y-75819000D02*
G75*
G03*
X106618750Y-75819000I-1050000J0D01*
G01*
%TO.C,L22*%
X125668750Y-75819000D02*
G75*
G03*
X125668750Y-75819000I-1050000J0D01*
G01*
%TO.C,L23*%
X144718750Y-75819000D02*
G75*
G03*
X144718750Y-75819000I-1050000J0D01*
G01*
%TO.C,L24*%
X163768750Y-75819000D02*
G75*
G03*
X163768750Y-75819000I-1050000J0D01*
G01*
%TO.C,L25*%
X182818750Y-75819000D02*
G75*
G03*
X182818750Y-75819000I-1050000J0D01*
G01*
%TO.C,L26*%
X201868750Y-75819000D02*
G75*
G03*
X201868750Y-75819000I-1050000J0D01*
G01*
%TO.C,L27*%
X220918750Y-75819000D02*
G75*
G03*
X220918750Y-75819000I-1050000J0D01*
G01*
%TO.C,L28*%
X239968750Y-75819000D02*
G75*
G03*
X239968750Y-75819000I-1050000J0D01*
G01*
%TO.C,L29*%
X266162500Y-75819000D02*
G75*
G03*
X266162500Y-75819000I-1050000J0D01*
G01*
%TO.C,L30*%
X76869000Y-132969000D02*
G75*
G03*
X76869000Y-132969000I-1050000J0D01*
G01*
%TO.C,L31*%
X106618750Y-132969000D02*
G75*
G03*
X106618750Y-132969000I-1050000J0D01*
G01*
%TO.C,L32*%
X130431250Y-132969000D02*
G75*
G03*
X130431250Y-132969000I-1050000J0D01*
G01*
%TO.C,L33*%
X30418750Y-94869000D02*
G75*
G03*
X30418750Y-94869000I-1050000J0D01*
G01*
%TO.C,L34*%
X54231250Y-94869000D02*
G75*
G03*
X54231250Y-94869000I-1050000J0D01*
G01*
%TO.C,L35*%
X73281250Y-94869000D02*
G75*
G03*
X73281250Y-94869000I-1050000J0D01*
G01*
%TO.C,L36*%
X92331250Y-94869000D02*
G75*
G03*
X92331250Y-94869000I-1050000J0D01*
G01*
%TO.C,L37*%
X111381250Y-94869000D02*
G75*
G03*
X111381250Y-94869000I-1050000J0D01*
G01*
%TO.C,L38*%
X130431250Y-94869000D02*
G75*
G03*
X130431250Y-94869000I-1050000J0D01*
G01*
%TO.C,L39*%
X149481250Y-94869000D02*
G75*
G03*
X149481250Y-94869000I-1050000J0D01*
G01*
%TO.C,L40*%
X168531250Y-94869000D02*
G75*
G03*
X168531250Y-94869000I-1050000J0D01*
G01*
%TO.C,L41*%
X187581250Y-94869000D02*
G75*
G03*
X187581250Y-94869000I-1050000J0D01*
G01*
%TO.C,L42*%
X206631250Y-94869000D02*
G75*
G03*
X206631250Y-94869000I-1050000J0D01*
G01*
%TO.C,L43*%
X225681250Y-94869000D02*
G75*
G03*
X225681250Y-94869000I-1050000J0D01*
G01*
%TO.C,L44*%
X244731250Y-94869000D02*
G75*
G03*
X244731250Y-94869000I-1050000J0D01*
G01*
%TO.C,L45*%
X268543750Y-94869000D02*
G75*
G03*
X268543750Y-94869000I-1050000J0D01*
G01*
%TO.C,L46*%
X148243000Y-132969000D02*
G75*
G03*
X148243000Y-132969000I-1050000J0D01*
G01*
%TO.C,L47*%
X173293750Y-132969000D02*
G75*
G03*
X173293750Y-132969000I-1050000J0D01*
G01*
%TO.C,L48*%
X200059000Y-132969000D02*
G75*
G03*
X200059000Y-132969000I-1050000J0D01*
G01*
%TO.C,L49*%
X32800000Y-113919000D02*
G75*
G03*
X32800000Y-113919000I-1050000J0D01*
G01*
%TO.C,L50*%
X58993750Y-113919000D02*
G75*
G03*
X58993750Y-113919000I-1050000J0D01*
G01*
%TO.C,L51*%
X78043750Y-113919000D02*
G75*
G03*
X78043750Y-113919000I-1050000J0D01*
G01*
%TO.C,L52*%
X97093750Y-113919000D02*
G75*
G03*
X97093750Y-113919000I-1050000J0D01*
G01*
%TO.C,L53*%
X116143750Y-113919000D02*
G75*
G03*
X116143750Y-113919000I-1050000J0D01*
G01*
%TO.C,L54*%
X135193750Y-113919000D02*
G75*
G03*
X135193750Y-113919000I-1050000J0D01*
G01*
%TO.C,L55*%
X154243750Y-113919000D02*
G75*
G03*
X154243750Y-113919000I-1050000J0D01*
G01*
%TO.C,L56*%
X173293750Y-113919000D02*
G75*
G03*
X173293750Y-113919000I-1050000J0D01*
G01*
%TO.C,L57*%
X192343750Y-113919000D02*
G75*
G03*
X192343750Y-113919000I-1050000J0D01*
G01*
%TO.C,L58*%
X211393750Y-113919000D02*
G75*
G03*
X211393750Y-113919000I-1050000J0D01*
G01*
%TO.C,L59*%
X230443750Y-113919000D02*
G75*
G03*
X230443750Y-113919000I-1050000J0D01*
G01*
%TO.C,L60*%
X249493750Y-113919000D02*
G75*
G03*
X249493750Y-113919000I-1050000J0D01*
G01*
%TO.C,L61*%
X270925000Y-113919000D02*
G75*
G03*
X270925000Y-113919000I-1050000J0D01*
G01*
%TO.C,L62*%
X223300000Y-132969000D02*
G75*
G03*
X223300000Y-132969000I-1050000J0D01*
G01*
%TO.C,L63*%
X247112500Y-132969000D02*
G75*
G03*
X247112500Y-132969000I-1050000J0D01*
G01*
%TO.C,L64*%
X272068000Y-132969000D02*
G75*
G03*
X272068000Y-132969000I-1050000J0D01*
G01*
%TO.C,L17*%
X28037500Y-75819000D02*
G75*
G03*
X28037500Y-75819000I-1050000J0D01*
G01*
%TO.C,L63*%
X254288000Y-132969000D02*
G75*
G03*
X254288000Y-132969000I-1050000J0D01*
G01*
%TO.C,L48*%
X216156250Y-132969000D02*
G75*
G03*
X216156250Y-132969000I-1050000J0D01*
G01*
%TO.C,L62*%
X235238000Y-132969000D02*
G75*
G03*
X235238000Y-132969000I-1050000J0D01*
G01*
%TD*%
M02*
