%TF.GenerationSoftware,KiCad,Pcbnew,(6.0.5)*%
%TF.CreationDate,2022-07-14T21:57:26-04:00*%
%TF.ProjectId,bd64pcb,62643634-7063-4622-9e6b-696361645f70,rev?*%
%TF.SameCoordinates,Original*%
%TF.FileFunction,Legend,Top*%
%TF.FilePolarity,Positive*%
%FSLAX46Y46*%
G04 Gerber Fmt 4.6, Leading zero omitted, Abs format (unit mm)*
G04 Created by KiCad (PCBNEW (6.0.5)) date 2022-07-14 21:57:26*
%MOMM*%
%LPD*%
G01*
G04 APERTURE LIST*
G04 Aperture macros list*
%AMRoundRect*
0 Rectangle with rounded corners*
0 $1 Rounding radius*
0 $2 $3 $4 $5 $6 $7 $8 $9 X,Y pos of 4 corners*
0 Add a 4 corners polygon primitive as box body*
4,1,4,$2,$3,$4,$5,$6,$7,$8,$9,$2,$3,0*
0 Add four circle primitives for the rounded corners*
1,1,$1+$1,$2,$3*
1,1,$1+$1,$4,$5*
1,1,$1+$1,$6,$7*
1,1,$1+$1,$8,$9*
0 Add four rect primitives between the rounded corners*
20,1,$1+$1,$2,$3,$4,$5,0*
20,1,$1+$1,$4,$5,$6,$7,0*
20,1,$1+$1,$6,$7,$8,$9,0*
20,1,$1+$1,$8,$9,$2,$3,0*%
G04 Aperture macros list end*
%ADD10C,0.200000*%
%ADD11C,0.300000*%
%ADD12C,3.987800*%
%ADD13C,1.750000*%
%ADD14C,3.048000*%
%ADD15RoundRect,1.500000X0.000000X-0.707107X0.707107X0.000000X0.000000X0.707107X-0.707107X0.000000X0*%
G04 APERTURE END LIST*
D10*
X19987202Y-54221130D02*
X19987202Y-54935416D01*
X19939583Y-55078273D01*
X19844345Y-55173511D01*
X19701488Y-55221130D01*
X19606250Y-55221130D01*
X20939583Y-55221130D02*
X20463392Y-55221130D01*
X20463392Y-54221130D01*
X21844345Y-55125892D02*
X21796726Y-55173511D01*
X21653869Y-55221130D01*
X21558630Y-55221130D01*
X21415773Y-55173511D01*
X21320535Y-55078273D01*
X21272916Y-54983035D01*
X21225297Y-54792559D01*
X21225297Y-54649702D01*
X21272916Y-54459226D01*
X21320535Y-54363988D01*
X21415773Y-54268750D01*
X21558630Y-54221130D01*
X21653869Y-54221130D01*
X21796726Y-54268750D01*
X21844345Y-54316369D01*
X22558630Y-54221130D02*
X22558630Y-54935416D01*
X22511011Y-55078273D01*
X22415773Y-55173511D01*
X22272916Y-55221130D01*
X22177678Y-55221130D01*
X23511011Y-55221130D02*
X23034821Y-55221130D01*
X23034821Y-54221130D01*
X24415773Y-55125892D02*
X24368154Y-55173511D01*
X24225297Y-55221130D01*
X24130059Y-55221130D01*
X23987202Y-55173511D01*
X23891964Y-55078273D01*
X23844345Y-54983035D01*
X23796726Y-54792559D01*
X23796726Y-54649702D01*
X23844345Y-54459226D01*
X23891964Y-54363988D01*
X23987202Y-54268750D01*
X24130059Y-54221130D01*
X24225297Y-54221130D01*
X24368154Y-54268750D01*
X24415773Y-54316369D01*
X25130059Y-54221130D02*
X25130059Y-54935416D01*
X25082440Y-55078273D01*
X24987202Y-55173511D01*
X24844345Y-55221130D01*
X24749107Y-55221130D01*
X26082440Y-55221130D02*
X25606250Y-55221130D01*
X25606250Y-54221130D01*
X26987202Y-55125892D02*
X26939583Y-55173511D01*
X26796726Y-55221130D01*
X26701488Y-55221130D01*
X26558630Y-55173511D01*
X26463392Y-55078273D01*
X26415773Y-54983035D01*
X26368154Y-54792559D01*
X26368154Y-54649702D01*
X26415773Y-54459226D01*
X26463392Y-54363988D01*
X26558630Y-54268750D01*
X26701488Y-54221130D01*
X26796726Y-54221130D01*
X26939583Y-54268750D01*
X26987202Y-54316369D01*
X27701488Y-54221130D02*
X27701488Y-54935416D01*
X27653869Y-55078273D01*
X27558630Y-55173511D01*
X27415773Y-55221130D01*
X27320535Y-55221130D01*
X28653869Y-55221130D02*
X28177678Y-55221130D01*
X28177678Y-54221130D01*
X29558630Y-55125892D02*
X29511011Y-55173511D01*
X29368154Y-55221130D01*
X29272916Y-55221130D01*
X29130059Y-55173511D01*
X29034821Y-55078273D01*
X28987202Y-54983035D01*
X28939583Y-54792559D01*
X28939583Y-54649702D01*
X28987202Y-54459226D01*
X29034821Y-54363988D01*
X29130059Y-54268750D01*
X29272916Y-54221130D01*
X29368154Y-54221130D01*
X29511011Y-54268750D01*
X29558630Y-54316369D01*
D11*
%TO.C,MX59*%
X144053142Y-130152857D02*
X143824571Y-130152857D01*
X143710285Y-130210000D01*
X143653142Y-130267142D01*
X143538857Y-130438571D01*
X143481714Y-130667142D01*
X143481714Y-131124285D01*
X143538857Y-131238571D01*
X143596000Y-131295714D01*
X143710285Y-131352857D01*
X143938857Y-131352857D01*
X144053142Y-131295714D01*
X144110285Y-131238571D01*
X144167428Y-131124285D01*
X144167428Y-130838571D01*
X144110285Y-130724285D01*
X144053142Y-130667142D01*
X143938857Y-130610000D01*
X143710285Y-130610000D01*
X143596000Y-130667142D01*
X143538857Y-130724285D01*
X143481714Y-130838571D01*
X144681714Y-131238571D02*
X144738857Y-131295714D01*
X144681714Y-131352857D01*
X144624571Y-131295714D01*
X144681714Y-131238571D01*
X144681714Y-131352857D01*
X145196000Y-130267142D02*
X145253142Y-130210000D01*
X145367428Y-130152857D01*
X145653142Y-130152857D01*
X145767428Y-130210000D01*
X145824571Y-130267142D01*
X145881714Y-130381428D01*
X145881714Y-130495714D01*
X145824571Y-130667142D01*
X145138857Y-131352857D01*
X145881714Y-131352857D01*
X146967428Y-130152857D02*
X146396000Y-130152857D01*
X146338857Y-130724285D01*
X146396000Y-130667142D01*
X146510285Y-130610000D01*
X146796000Y-130610000D01*
X146910285Y-130667142D01*
X146967428Y-130724285D01*
X147024571Y-130838571D01*
X147024571Y-131124285D01*
X146967428Y-131238571D01*
X146910285Y-131295714D01*
X146796000Y-131352857D01*
X146510285Y-131352857D01*
X146396000Y-131295714D01*
X146338857Y-131238571D01*
X148053142Y-130552857D02*
X148053142Y-131352857D01*
X147538857Y-130552857D02*
X147538857Y-131181428D01*
X147596000Y-131295714D01*
X147710285Y-131352857D01*
X147881714Y-131352857D01*
X147996000Y-131295714D01*
X148053142Y-131238571D01*
X148263000Y-125510857D02*
X147577285Y-125510857D01*
X147920142Y-125510857D02*
X147920142Y-124310857D01*
X147805857Y-124482285D01*
X147691571Y-124596571D01*
X147577285Y-124653714D01*
X149291571Y-124710857D02*
X149291571Y-125510857D01*
X148777285Y-124710857D02*
X148777285Y-125339428D01*
X148834428Y-125453714D01*
X148948714Y-125510857D01*
X149120142Y-125510857D01*
X149234428Y-125453714D01*
X149291571Y-125396571D01*
%TO.C,G\u002A\u002A\u002A*%
G36*
X117364934Y-129313816D02*
G01*
X117372688Y-129210780D01*
X117383787Y-129127670D01*
X117435996Y-128897832D01*
X117509769Y-128677808D01*
X117604716Y-128468470D01*
X117720447Y-128270691D01*
X117842759Y-128102410D01*
X117996468Y-127929387D01*
X118165262Y-127774763D01*
X118348105Y-127639144D01*
X118543961Y-127523141D01*
X118751793Y-127427363D01*
X118970564Y-127352418D01*
X119199239Y-127298914D01*
X119215548Y-127295995D01*
X119303426Y-127284424D01*
X119408135Y-127276798D01*
X119522823Y-127273125D01*
X119640638Y-127273412D01*
X119754730Y-127277666D01*
X119858246Y-127285897D01*
X119928029Y-127295212D01*
X120149224Y-127343762D01*
X120363782Y-127413874D01*
X120569606Y-127504385D01*
X120764599Y-127614130D01*
X120946664Y-127741947D01*
X121113702Y-127886670D01*
X121246183Y-128026602D01*
X121316210Y-128107965D01*
X121316210Y-126666895D01*
X120837985Y-126666895D01*
X121077097Y-125949782D01*
X121118954Y-125824202D01*
X121158480Y-125705522D01*
X121195035Y-125595672D01*
X121227976Y-125496584D01*
X121256662Y-125410191D01*
X121280453Y-125338425D01*
X121298706Y-125283217D01*
X121310779Y-125246500D01*
X121316033Y-125230205D01*
X121316210Y-125229555D01*
X121304358Y-125229306D01*
X121269412Y-125229062D01*
X121212283Y-125228825D01*
X121133885Y-125228594D01*
X121035131Y-125228371D01*
X120916933Y-125228156D01*
X120780204Y-125227950D01*
X120625856Y-125227754D01*
X120454804Y-125227568D01*
X120267958Y-125227394D01*
X120066232Y-125227232D01*
X119850540Y-125227083D01*
X119621792Y-125226947D01*
X119380904Y-125226826D01*
X119128786Y-125226720D01*
X118866352Y-125226630D01*
X118594514Y-125226556D01*
X118314186Y-125226500D01*
X118026280Y-125226462D01*
X117731709Y-125226443D01*
X117595038Y-125226441D01*
X113873866Y-125226441D01*
X113873866Y-124746290D01*
X122276512Y-124746290D01*
X122276512Y-125226441D01*
X122036437Y-125226441D01*
X121963469Y-125226589D01*
X121899430Y-125227002D01*
X121847913Y-125227633D01*
X121812511Y-125228435D01*
X121796818Y-125229362D01*
X121796361Y-125229555D01*
X121800054Y-125241176D01*
X121810707Y-125273639D01*
X121827677Y-125325010D01*
X121850324Y-125393357D01*
X121878005Y-125476750D01*
X121910080Y-125573254D01*
X121945907Y-125680940D01*
X121984845Y-125797874D01*
X122026252Y-125922124D01*
X122035473Y-125949782D01*
X122274586Y-126666895D01*
X121796361Y-126666895D01*
X121796361Y-130508105D01*
X122274586Y-130508105D01*
X122035473Y-131225218D01*
X121993617Y-131350797D01*
X121954090Y-131469478D01*
X121917536Y-131579328D01*
X121884595Y-131678416D01*
X121855908Y-131764809D01*
X121832118Y-131836575D01*
X121813865Y-131891783D01*
X121801791Y-131928500D01*
X121796538Y-131944795D01*
X121796361Y-131945445D01*
X121807766Y-131946391D01*
X121839584Y-131947222D01*
X121888224Y-131947890D01*
X121950090Y-131948349D01*
X122021589Y-131948553D01*
X122036437Y-131948558D01*
X122276512Y-131948558D01*
X122276512Y-132428710D01*
X112673488Y-132428710D01*
X112673488Y-131948558D01*
X116996133Y-131948558D01*
X117391828Y-131948544D01*
X117764141Y-131948499D01*
X118113698Y-131948423D01*
X118441124Y-131948311D01*
X118747044Y-131948163D01*
X119032085Y-131947975D01*
X119296873Y-131947747D01*
X119542031Y-131947476D01*
X119768187Y-131947159D01*
X119975965Y-131946794D01*
X120165992Y-131946380D01*
X120338893Y-131945914D01*
X120495293Y-131945393D01*
X120635818Y-131944816D01*
X120761094Y-131944181D01*
X120871747Y-131943485D01*
X120968401Y-131942727D01*
X121051682Y-131941903D01*
X121122216Y-131941012D01*
X121180629Y-131940052D01*
X121227547Y-131939020D01*
X121263594Y-131937915D01*
X121289396Y-131936733D01*
X121305579Y-131935474D01*
X121312769Y-131934134D01*
X121313260Y-131933554D01*
X121308266Y-131918882D01*
X121296664Y-131884234D01*
X121279392Y-131832425D01*
X121257385Y-131766270D01*
X121231581Y-131688586D01*
X121202917Y-131602186D01*
X121184436Y-131546432D01*
X121154356Y-131456255D01*
X121126292Y-131373265D01*
X121101215Y-131300246D01*
X121080096Y-131239982D01*
X121063908Y-131195259D01*
X121053621Y-131168860D01*
X121050650Y-131162934D01*
X121035769Y-131163126D01*
X121010454Y-131180336D01*
X121001134Y-131188785D01*
X120956183Y-131227289D01*
X120895301Y-131273195D01*
X120823847Y-131322804D01*
X120747179Y-131372421D01*
X120670656Y-131418350D01*
X120657507Y-131425830D01*
X120457013Y-131525304D01*
X120248426Y-131603046D01*
X120033740Y-131659073D01*
X119814948Y-131693403D01*
X119594044Y-131706055D01*
X119373021Y-131697046D01*
X119153874Y-131666395D01*
X118938595Y-131614119D01*
X118729178Y-131540237D01*
X118527618Y-131444766D01*
X118458781Y-131405951D01*
X118264552Y-131277980D01*
X118086738Y-131132915D01*
X117926109Y-130971871D01*
X117783434Y-130795966D01*
X117659483Y-130606314D01*
X117555027Y-130404031D01*
X117470836Y-130190234D01*
X117407678Y-129966038D01*
X117383787Y-129847897D01*
X117372334Y-129761250D01*
X117364722Y-129657712D01*
X117360951Y-129544089D01*
X117360959Y-129530189D01*
X118318271Y-129530189D01*
X118335885Y-129698979D01*
X118376669Y-129867025D01*
X118392924Y-129915428D01*
X118460655Y-130070047D01*
X118548231Y-130212924D01*
X118653727Y-130342446D01*
X118775221Y-130457001D01*
X118910792Y-130554977D01*
X119058516Y-130634761D01*
X119216471Y-130694739D01*
X119364277Y-130730189D01*
X119436396Y-130738703D01*
X119523689Y-130742583D01*
X119617855Y-130742009D01*
X119710589Y-130737161D01*
X119793588Y-130728220D01*
X119840394Y-130719857D01*
X120002943Y-130671706D01*
X120158700Y-130601579D01*
X120304402Y-130511248D01*
X120436784Y-130402484D01*
X120451852Y-130388052D01*
X120566961Y-130260038D01*
X120661580Y-130121548D01*
X120735680Y-129974626D01*
X120789234Y-129821317D01*
X120822214Y-129663665D01*
X120834592Y-129503717D01*
X120826341Y-129343517D01*
X120797433Y-129185109D01*
X120747840Y-129030540D01*
X120677534Y-128881853D01*
X120586489Y-128741093D01*
X120475930Y-128611593D01*
X120347883Y-128496435D01*
X120209448Y-128401822D01*
X120062661Y-128327753D01*
X119909556Y-128274228D01*
X119752167Y-128241247D01*
X119592530Y-128228810D01*
X119432677Y-128236918D01*
X119274646Y-128265569D01*
X119120469Y-128314765D01*
X118972181Y-128384505D01*
X118831817Y-128474789D01*
X118701412Y-128585617D01*
X118675393Y-128611593D01*
X118562900Y-128743684D01*
X118471030Y-128886793D01*
X118400207Y-129038957D01*
X118350857Y-129198218D01*
X118323403Y-129362616D01*
X118318271Y-129530189D01*
X117360959Y-129530189D01*
X117361022Y-129427188D01*
X117364934Y-129313816D01*
G37*
G36*
X113633790Y-124746290D02*
G01*
X113633790Y-126199748D01*
X113633863Y-126384325D01*
X113634075Y-126562049D01*
X113634418Y-126731465D01*
X113634883Y-126891118D01*
X113635459Y-127039553D01*
X113636140Y-127175315D01*
X113636914Y-127296948D01*
X113637774Y-127402997D01*
X113638711Y-127492007D01*
X113639714Y-127562524D01*
X113640776Y-127613092D01*
X113641887Y-127642255D01*
X113642793Y-127649204D01*
X113656128Y-127641796D01*
X113685610Y-127624667D01*
X113726786Y-127600423D01*
X113771834Y-127573679D01*
X113960054Y-127474653D01*
X114162524Y-127392787D01*
X114375376Y-127329489D01*
X114534074Y-127295995D01*
X114621951Y-127284424D01*
X114726660Y-127276798D01*
X114841348Y-127273125D01*
X114959164Y-127273412D01*
X115073255Y-127277666D01*
X115176771Y-127285897D01*
X115246555Y-127295212D01*
X115472954Y-127344942D01*
X115691587Y-127416913D01*
X115900849Y-127510411D01*
X116099139Y-127624723D01*
X116279560Y-127754881D01*
X116452708Y-127908673D01*
X116607353Y-128077466D01*
X116742942Y-128260317D01*
X116858919Y-128456280D01*
X116954729Y-128664411D01*
X117029818Y-128883765D01*
X117083629Y-129113399D01*
X117086203Y-129127670D01*
X117097762Y-129214546D01*
X117105436Y-129318297D01*
X117109225Y-129432105D01*
X117109131Y-129549156D01*
X117105151Y-129662631D01*
X117097287Y-129765716D01*
X117086203Y-129847897D01*
X117034237Y-130075228D01*
X116961138Y-130292966D01*
X116867879Y-130499886D01*
X116755431Y-130694769D01*
X116624767Y-130876392D01*
X116476860Y-131043534D01*
X116312681Y-131194972D01*
X116133203Y-131329485D01*
X115939399Y-131445852D01*
X115739560Y-131539856D01*
X115525921Y-131615090D01*
X115307235Y-131667814D01*
X115085460Y-131698165D01*
X114862554Y-131706281D01*
X114640475Y-131692299D01*
X114421180Y-131656356D01*
X114206628Y-131598590D01*
X113998776Y-131519137D01*
X113799583Y-131418135D01*
X113771834Y-131401888D01*
X113723762Y-131373355D01*
X113683228Y-131349505D01*
X113654685Y-131332944D01*
X113642793Y-131326362D01*
X113639767Y-131336303D01*
X113637174Y-131366352D01*
X113635201Y-131412614D01*
X113634031Y-131471191D01*
X113633790Y-131515422D01*
X113633790Y-131708483D01*
X112673488Y-131708483D01*
X112673488Y-129530189D01*
X113636796Y-129530189D01*
X113654410Y-129698979D01*
X113695195Y-129867025D01*
X113711449Y-129915428D01*
X113779181Y-130070047D01*
X113866756Y-130212924D01*
X113972252Y-130342446D01*
X114093747Y-130457001D01*
X114229318Y-130554977D01*
X114377042Y-130634761D01*
X114534997Y-130694739D01*
X114682803Y-130730189D01*
X114754921Y-130738703D01*
X114842215Y-130742583D01*
X114936380Y-130742009D01*
X115029115Y-130737161D01*
X115112114Y-130728220D01*
X115158919Y-130719857D01*
X115321468Y-130671706D01*
X115477226Y-130601579D01*
X115622928Y-130511248D01*
X115755310Y-130402484D01*
X115770378Y-130388052D01*
X115885487Y-130260038D01*
X115980105Y-130121548D01*
X116054205Y-129974626D01*
X116107759Y-129821317D01*
X116140739Y-129663665D01*
X116153117Y-129503717D01*
X116144866Y-129343517D01*
X116115958Y-129185109D01*
X116066365Y-129030540D01*
X115996060Y-128881853D01*
X115905014Y-128741093D01*
X115794455Y-128611593D01*
X115666408Y-128496435D01*
X115527974Y-128401822D01*
X115381187Y-128327753D01*
X115228081Y-128274228D01*
X115070693Y-128241247D01*
X114911055Y-128228810D01*
X114751203Y-128236918D01*
X114593171Y-128265569D01*
X114438994Y-128314765D01*
X114290706Y-128384505D01*
X114150343Y-128474789D01*
X114019937Y-128585617D01*
X113993919Y-128611593D01*
X113881426Y-128743684D01*
X113789555Y-128886793D01*
X113718733Y-129038957D01*
X113669382Y-129198218D01*
X113641929Y-129362616D01*
X113636796Y-129530189D01*
X112673488Y-129530189D01*
X112673488Y-124746290D01*
X113633790Y-124746290D01*
G37*
%TD*%
%LPC*%
D12*
%TO.C,MX1*%
X24606250Y-51593750D03*
D13*
X29686250Y-51593750D03*
X19526250Y-51593750D03*
%TD*%
%TO.C,MX2*%
X48736250Y-51593750D03*
D12*
X43656250Y-51593750D03*
D13*
X38576250Y-51593750D03*
%TD*%
D12*
%TO.C,MX4*%
X81756250Y-51593750D03*
D13*
X76676250Y-51593750D03*
X86836250Y-51593750D03*
%TD*%
D12*
%TO.C,MX10*%
X196056250Y-51593750D03*
D13*
X201136250Y-51593750D03*
X190976250Y-51593750D03*
%TD*%
%TO.C,MX11*%
X220186250Y-51593750D03*
X210026250Y-51593750D03*
D12*
X215106250Y-51593750D03*
%TD*%
D13*
%TO.C,MX12*%
X239236250Y-51593750D03*
X229076250Y-51593750D03*
D12*
X234156250Y-51593750D03*
%TD*%
D13*
%TO.C,MX13*%
X248126250Y-51593750D03*
X258286250Y-51593750D03*
D12*
X253206250Y-51593750D03*
%TD*%
D13*
%TO.C,MX14*%
X277336250Y-51593750D03*
X267176250Y-51593750D03*
D12*
X272256250Y-51593750D03*
%TD*%
%TO.C,MX15*%
X26987500Y-70643750D03*
D13*
X32067500Y-70643750D03*
X21907500Y-70643750D03*
%TD*%
D12*
%TO.C,MX16*%
X48418750Y-70643750D03*
D13*
X43338750Y-70643750D03*
X53498750Y-70643750D03*
%TD*%
%TO.C,MX17*%
X62388750Y-70643750D03*
D12*
X67468750Y-70643750D03*
D13*
X72548750Y-70643750D03*
%TD*%
D12*
%TO.C,MX18*%
X86518750Y-70643750D03*
D13*
X81438750Y-70643750D03*
X91598750Y-70643750D03*
%TD*%
%TO.C,MX19*%
X110648750Y-70643750D03*
X100488750Y-70643750D03*
D12*
X105568750Y-70643750D03*
%TD*%
D13*
%TO.C,MX20*%
X119538750Y-70643750D03*
X129698750Y-70643750D03*
D12*
X124618750Y-70643750D03*
%TD*%
D13*
%TO.C,MX25*%
X224948750Y-70643750D03*
X214788750Y-70643750D03*
D12*
X219868750Y-70643750D03*
%TD*%
D13*
%TO.C,MX26*%
X243998750Y-70643750D03*
D12*
X238918750Y-70643750D03*
D13*
X233838750Y-70643750D03*
%TD*%
%TO.C,MX28*%
X24288750Y-89693750D03*
D12*
X29368750Y-89693750D03*
D13*
X34448750Y-89693750D03*
%TD*%
%TO.C,MX29*%
X58261250Y-89693750D03*
X48101250Y-89693750D03*
D12*
X53181250Y-89693750D03*
%TD*%
D13*
%TO.C,MX37*%
X200501250Y-89693750D03*
X210661250Y-89693750D03*
D12*
X205581250Y-89693750D03*
%TD*%
D13*
%TO.C,MX38*%
X229711250Y-89693750D03*
D12*
X224631250Y-89693750D03*
D13*
X219551250Y-89693750D03*
%TD*%
D12*
%TO.C,MX39*%
X243681250Y-89693750D03*
D13*
X248761250Y-89693750D03*
X238601250Y-89693750D03*
%TD*%
%TO.C,MX40*%
X272573750Y-89693750D03*
X262413750Y-89693750D03*
D12*
X267493750Y-89693750D03*
%TD*%
%TO.C,MX41*%
X31750000Y-108743750D03*
D13*
X36830000Y-108743750D03*
X26670000Y-108743750D03*
%TD*%
D12*
%TO.C,MX42*%
X57943750Y-108743750D03*
D13*
X52863750Y-108743750D03*
X63023750Y-108743750D03*
%TD*%
D12*
%TO.C,MX43*%
X76993750Y-108743750D03*
D13*
X82073750Y-108743750D03*
X71913750Y-108743750D03*
%TD*%
%TO.C,MX44*%
X90963750Y-108743750D03*
D12*
X96043750Y-108743750D03*
D13*
X101123750Y-108743750D03*
%TD*%
%TO.C,MX45*%
X120173750Y-108743750D03*
X110013750Y-108743750D03*
D12*
X115093750Y-108743750D03*
%TD*%
D13*
%TO.C,MX46*%
X129063750Y-108743750D03*
X139223750Y-108743750D03*
D12*
X134143750Y-108743750D03*
%TD*%
D13*
%TO.C,MX47*%
X158273750Y-108743750D03*
X148113750Y-108743750D03*
D12*
X153193750Y-108743750D03*
%TD*%
D13*
%TO.C,MX48*%
X167163750Y-108743750D03*
D12*
X172243750Y-108743750D03*
D13*
X177323750Y-108743750D03*
%TD*%
D12*
%TO.C,MX49*%
X191293750Y-108743750D03*
D13*
X196373750Y-108743750D03*
X186213750Y-108743750D03*
%TD*%
D12*
%TO.C,MX50*%
X210343750Y-108743750D03*
D13*
X205263750Y-108743750D03*
X215423750Y-108743750D03*
%TD*%
%TO.C,MX51*%
X234473750Y-108743750D03*
D12*
X229393750Y-108743750D03*
D13*
X224313750Y-108743750D03*
%TD*%
D12*
%TO.C,MX52*%
X248443750Y-108743750D03*
D13*
X243363750Y-108743750D03*
X253523750Y-108743750D03*
%TD*%
%TO.C,MX54*%
X32067500Y-127793750D03*
D12*
X26987500Y-127793750D03*
D13*
X21907500Y-127793750D03*
%TD*%
%TO.C,MX55*%
X45720000Y-127793750D03*
D12*
X50800000Y-127793750D03*
D13*
X55880000Y-127793750D03*
%TD*%
%TO.C,MX56*%
X69531900Y-127793150D03*
D12*
X74611900Y-127793150D03*
X76993750Y-127793750D03*
D13*
X71913750Y-127793750D03*
X79691900Y-127793150D03*
X82073750Y-127793750D03*
%TD*%
%TO.C,MX57*%
X100488750Y-127793750D03*
X110648750Y-127793750D03*
D12*
X105568750Y-127793750D03*
%TD*%
D13*
%TO.C,MX58*%
X134461250Y-127793750D03*
D12*
X129381250Y-127793750D03*
D13*
X124301250Y-127793750D03*
%TD*%
D12*
%TO.C,MX59*%
X146046400Y-127793150D03*
D13*
X151126400Y-127793150D03*
X140966400Y-127793150D03*
D12*
X96046500Y-119538150D03*
D13*
X143351250Y-127793750D03*
D14*
X96046500Y-134778150D03*
D13*
X153511250Y-127793750D03*
D12*
X196046300Y-119538150D03*
D14*
X196046300Y-134778150D03*
D12*
X148431250Y-127793750D03*
%TD*%
D13*
%TO.C,MX60*%
X177323750Y-127793750D03*
X167163750Y-127793750D03*
D12*
X172243750Y-127793750D03*
%TD*%
%TO.C,MX61*%
X198437500Y-127793750D03*
D13*
X203517500Y-127793750D03*
X193357500Y-127793750D03*
X220184600Y-127793150D03*
D12*
X215104600Y-127793150D03*
D13*
X210024600Y-127793150D03*
%TD*%
%TO.C,MX62*%
X239234900Y-127793150D03*
D12*
X222250000Y-127793750D03*
D13*
X229074900Y-127793150D03*
D12*
X234154900Y-127793150D03*
D13*
X217170000Y-127793750D03*
X227330000Y-127793750D03*
%TD*%
%TO.C,MX63*%
X251142500Y-127793750D03*
X248125200Y-127793750D03*
X258285200Y-127793750D03*
D12*
X253205200Y-127793750D03*
D13*
X240982500Y-127793750D03*
D12*
X246062500Y-127793750D03*
%TD*%
%TO.C,MX64*%
X272256250Y-127793750D03*
D13*
X264795000Y-127793750D03*
D12*
X269875000Y-127793750D03*
D13*
X274955000Y-127793750D03*
X277336250Y-127793750D03*
X267176250Y-127793750D03*
%TD*%
%TO.C,MX30*%
X77311250Y-89693750D03*
D12*
X72231250Y-89693750D03*
D13*
X67151250Y-89693750D03*
%TD*%
%TO.C,MX36*%
X191611250Y-89693750D03*
D12*
X186531250Y-89693750D03*
D13*
X181451250Y-89693750D03*
%TD*%
D12*
%TO.C,MX35*%
X167481250Y-89693750D03*
D13*
X172561250Y-89693750D03*
X162401250Y-89693750D03*
%TD*%
D12*
%TO.C,MX34*%
X148431250Y-89693750D03*
D13*
X153511250Y-89693750D03*
X143351250Y-89693750D03*
%TD*%
%TO.C,MX33*%
X134461250Y-89693750D03*
D12*
X129381250Y-89693750D03*
D13*
X124301250Y-89693750D03*
%TD*%
%TO.C,MX32*%
X105251250Y-89693750D03*
D12*
X110331250Y-89693750D03*
D13*
X115411250Y-89693750D03*
%TD*%
%TO.C,MX31*%
X96361250Y-89693750D03*
D12*
X91281250Y-89693750D03*
D13*
X86201250Y-89693750D03*
%TD*%
%TO.C,MX23*%
X186848750Y-70643750D03*
X176688750Y-70643750D03*
D12*
X181768750Y-70643750D03*
%TD*%
%TO.C,MX22*%
X162718750Y-70643750D03*
D13*
X167798750Y-70643750D03*
X157638750Y-70643750D03*
%TD*%
D12*
%TO.C,MX21*%
X143668750Y-70643750D03*
D13*
X148748750Y-70643750D03*
X138588750Y-70643750D03*
%TD*%
%TO.C,MX5*%
X105886250Y-51593750D03*
X95726250Y-51593750D03*
D12*
X100806250Y-51593750D03*
%TD*%
D13*
%TO.C,MX9*%
X182086250Y-51593750D03*
D12*
X177006250Y-51593750D03*
D13*
X171926250Y-51593750D03*
%TD*%
%TO.C,MX24*%
X205898750Y-70643750D03*
D12*
X200818750Y-70643750D03*
D13*
X195738750Y-70643750D03*
%TD*%
%TO.C,MX7*%
X143986250Y-51593750D03*
X133826250Y-51593750D03*
D12*
X138906250Y-51593750D03*
%TD*%
D13*
%TO.C,MX6*%
X114776250Y-51593750D03*
D12*
X119856250Y-51593750D03*
D13*
X124936250Y-51593750D03*
%TD*%
%TO.C,MX8*%
X163036250Y-51593750D03*
D12*
X157956250Y-51593750D03*
D13*
X152876250Y-51593750D03*
%TD*%
%TO.C,MX53*%
X264795000Y-108743750D03*
X274955000Y-108743750D03*
D12*
X269875000Y-108743750D03*
%TD*%
D13*
%TO.C,MX3*%
X67786250Y-51593750D03*
X57626250Y-51593750D03*
D12*
X62706250Y-51593750D03*
%TD*%
%TO.C,MX27*%
X265112500Y-70643750D03*
D13*
X260032500Y-70643750D03*
X270192500Y-70643750D03*
%TD*%
D15*
%TO.C,U2*%
X161417000Y-125476000D03*
%TD*%
M02*
