M48
; DRILL file {KiCad (6.0.5)} date Thu Jul 14 23:35:47 2022
; FORMAT={-:-/ absolute / metric / decimal}
; #@! TF.CreationDate,2022-07-14T23:35:47-04:00
; #@! TF.GenerationSoftware,Kicad,Pcbnew,(6.0.5)
; #@! TF.FileFunction,Plated,1,2,PTH
FMAT,2
METRIC
; #@! TA.AperFunction,Plated,PTH,ViaDrill
T1C0.300
; #@! TA.AperFunction,Plated,PTH,ComponentDrill
T2C1.470
; #@! TA.AperFunction,Plated,PTH,ComponentDrill
T3C1.600
%
G90
G05
T1
X16.129Y-56.388
X16.51Y-57.15
X16.669Y-51.594
X16.891Y-55.245
X17.018Y-60.833
X17.462Y-70.644
X17.526Y-132.588
X17.907Y-57.944
X18.161Y-133.35
X18.796Y-74.93
X18.796Y-133.985
X19.431Y-97.536
X19.431Y-118.745
X20.066Y-55.499
X20.066Y-108.744
X20.066Y-127.794
X20.32Y-76.994
X20.574Y-93.98
X20.955Y-56.769
X21.924Y-104.601
X22.45Y-103.73
X22.733Y-96.044
X22.733Y-134.874
X22.761Y-131.853
X22.964Y-102.847
X23.305Y-133.731
X23.368Y-132.842
X25.146Y-115.094
X25.273Y-116.586
X26.987Y-101.6
X32.385Y-91.694
X32.385Y-97.536
X33.02Y-77.089
X33.528Y-74.295
X35.179Y-74.295
X35.306Y-93.218
X35.306Y-96.266
X35.56Y-77.089
X36.576Y-96.266
X36.703Y-93.218
X36.83Y-74.295
X37.084Y-77.089
X37.306Y-70.644
X37.592Y-104.521
X37.592Y-107.188
X37.846Y-93.218
X37.846Y-96.266
X38.1Y-57.944
X38.608Y-74.295
X38.705Y-77.754
X38.735Y-92.837
X38.894Y-127.794
X39.116Y-96.266
X39.37Y-81.534
X39.37Y-90.424
X39.461Y-55.653
X40.069Y-56.642
X40.132Y-93.218
X40.132Y-103.124
X40.259Y-74.295
X40.64Y-104.267
X41.275Y-93.218
X42.037Y-79.756
X42.037Y-96.139
X42.037Y-110.871
X42.672Y-80.518
X42.862Y-76.994
X42.908Y-96.157
X42.926Y-109.728
X43.307Y-81.28
X43.561Y-96.774
X43.815Y-109.728
X44.196Y-88.773
X44.196Y-96.139
X44.196Y-98.933
X44.223Y-74.703
X44.323Y-116.078
X44.323Y-130.175
X44.831Y-75.692
X44.958Y-108.839
X45.085Y-89.662
X45.085Y-96.774
X45.212Y-98.933
X45.593Y-118.999
X46.482Y-134.874
X46.99Y-110.109
X47.117Y-133.731
X47.18Y-132.842
X47.244Y-130.937
X47.281Y-97.499
X47.498Y-95.631
X48.641Y-111.76
X48.641Y-119.761
X48.895Y-124.333
X48.986Y-93.753
X49.593Y-94.742
X50.038Y-104.14
X50.546Y-110.363
X51.054Y-80.645
X51.054Y-99.441
X51.181Y-100.711
X51.816Y-80.01
X51.943Y-116.459
X52.338Y-112.155
X52.387Y-115.094
X52.578Y-107.188
X53.086Y-111.379
X53.181Y-51.594
X53.34Y-120.523
X53.467Y-125.222
X53.748Y-112.803
X53.848Y-110.109
X54.07Y-115.094
X54.356Y-113.792
X54.483Y-133.096
X54.61Y-110.744
X54.737Y-118.237
X54.737Y-119.126
X55.626Y-100.203
X55.626Y-133.35
X56.388Y-100.584
X56.388Y-132.842
X57.15Y-57.944
X57.15Y-101.092
X57.944Y-70.644
X58.039Y-101.473
X58.511Y-55.653
X59.118Y-56.642
X60.071Y-78.105
X60.96Y-78.74
X61.595Y-122.555
X61.722Y-89.694
X61.912Y-76.994
X62.23Y-101.854
X62.706Y-127.794
X63.273Y-74.703
X63.881Y-75.692
X64.389Y-106.172
X66.675Y-96.044
X66.675Y-108.744
X68.036Y-93.753
X68.644Y-94.742
X70.358Y-120.523
X71.12Y-120.015
X71.438Y-51.594
X71.438Y-115.094
X71.501Y-135.255
X72.263Y-118.364
X72.39Y-133.604
X72.661Y-116.984
X72.798Y-112.803
X73.406Y-113.792
X76.2Y-57.944
X76.994Y-70.644
X77.561Y-55.653
X78.168Y-56.642
X80.962Y-76.994
X81.153Y-132.842
X81.756Y-89.694
X82.323Y-74.703
X82.931Y-75.692
X83.185Y-131.953
X84.455Y-131.953
X85.725Y-96.044
X86.519Y-108.744
X87.086Y-93.753
X87.694Y-94.742
X87.732Y-101.498
X90.487Y-51.594
X90.487Y-115.094
X91.186Y-117.983
X91.281Y-127.794
X91.848Y-112.803
X92.456Y-113.792
X93.853Y-125.222
X95.25Y-57.944
X96.044Y-70.644
X96.611Y-55.653
X97.218Y-56.642
X100.012Y-76.994
X100.806Y-89.694
X101.373Y-74.703
X101.981Y-75.692
X102.108Y-130.556
X102.108Y-131.826
X104.775Y-96.044
X105.569Y-108.744
X106.136Y-93.753
X106.705Y-101.194
X106.743Y-94.742
X109.22Y-134.112
X109.537Y-115.094
X109.601Y-132.334
X109.601Y-133.223
X110.109Y-117.348
X110.331Y-51.594
X110.617Y-131.445
X110.898Y-112.803
X111.506Y-113.792
X114.3Y-57.944
X115.094Y-70.644
X115.661Y-55.653
X116.268Y-56.642
X117.475Y-127.794
X119.062Y-76.994
X119.856Y-89.694
X120.423Y-74.703
X121.031Y-75.692
X123.825Y-96.044
X124.619Y-108.744
X125.186Y-93.753
X125.654Y-100.787
X125.73Y-133.731
X125.793Y-94.742
X126.619Y-131.445
X128.588Y-115.094
X129.032Y-116.967
X129.381Y-51.594
X129.948Y-112.803
X130.556Y-113.792
X133.096Y-133.604
X133.35Y-57.944
X134.144Y-70.644
X134.711Y-55.653
X135.128Y-132.842
X135.319Y-56.642
X135.763Y-133.477
X136.017Y-73.914
X136.017Y-76.708
X137.287Y-76.2
X138.112Y-76.994
X138.557Y-73.787
X139.446Y-122.809
X139.446Y-123.698
X139.473Y-74.703
X140.081Y-75.692
X141.732Y-122.301
X141.764Y-135.255
X142.145Y-132.588
X142.653Y-133.604
X142.875Y-96.044
X143.542Y-133.731
X143.669Y-108.744
X144.236Y-93.753
X144.577Y-100.279
X144.844Y-94.742
X146.685Y-123.19
X146.685Y-124.206
X146.685Y-125.222
X147.637Y-115.094
X147.828Y-116.84
X148.431Y-51.594
X148.998Y-112.803
X149.606Y-113.792
X149.987Y-132.461
X152.4Y-57.944
X153.194Y-70.644
X153.761Y-55.653
X154.368Y-56.642
X154.559Y-82.296
X154.559Y-120.904
X154.94Y-118.491
X155.067Y-129.286
X155.079Y-81.522
X155.448Y-130.048
X155.543Y-80.804
X155.829Y-130.81
X156.005Y-80.088
X156.083Y-116.586
X156.463Y-79.376
X156.464Y-123.444
X156.718Y-124.333
X156.718Y-130.81
X156.845Y-114.046
X156.845Y-115.443
X156.896Y-78.562
X157.162Y-76.994
X157.607Y-130.81
X158.496Y-130.81
X158.523Y-74.703
X159.131Y-75.692
X159.385Y-130.81
X160.274Y-106.628
X160.274Y-117.094
X160.274Y-130.81
X161.163Y-130.81
X161.417Y-119.507
X161.925Y-96.044
X162.897Y-105.2
X162.941Y-130.556
X163.286Y-93.753
X163.525Y-99.873
X163.576Y-129.921
X163.652Y-105.588
X163.893Y-94.742
X164.211Y-129.286
X164.465Y-100.584
X164.846Y-128.651
X165.481Y-128.016
X165.735Y-99.949
X165.735Y-116.078
X166.68Y-118.491
X166.688Y-115.094
X166.751Y-134.747
X167.259Y-122.428
X167.481Y-51.594
X167.74Y-134.774
X167.767Y-119.634
X168.021Y-133.35
X168.048Y-112.803
X168.275Y-101.219
X168.397Y-131.44
X168.656Y-113.792
X168.783Y-134.747
X169.164Y-127.889
X169.799Y-131.953
X170.053Y-120.015
X170.815Y-99.949
X171.45Y-57.944
X171.45Y-70.644
X172.811Y-55.653
X173.418Y-56.642
X174.752Y-133.39
X175.768Y-134.239
X176.022Y-82.296
X176.213Y-76.994
X176.213Y-89.694
X176.53Y-134.747
X177.573Y-74.703
X177.8Y-86.36
X178.181Y-75.692
X180.213Y-112.395
X180.213Y-121.793
X180.213Y-123.825
X180.213Y-129.921
X180.975Y-96.044
X181.229Y-108.712
X181.253Y-100.052
X182.118Y-112.395
X182.118Y-119.761
X182.336Y-93.753
X182.474Y-99.466
X182.944Y-94.742
X185.293Y-116.459
X185.737Y-115.094
X185.737Y-127.794
X186.531Y-51.594
X187.098Y-112.803
X187.706Y-113.792
X188.214Y-119.253
X188.976Y-125.222
X190.5Y-57.944
X191.294Y-70.644
X191.516Y-131.953
X191.861Y-55.653
X192.468Y-56.642
X192.786Y-132.588
X194.564Y-131.191
X195.262Y-76.994
X195.326Y-129.794
X195.453Y-131.699
X196.056Y-89.694
X196.088Y-132.334
X196.623Y-74.703
X197.231Y-75.692
X197.993Y-93.218
X197.993Y-95.885
X198.414Y-135.977
X199.136Y-95.123
X200.025Y-96.044
X200.025Y-108.744
X200.533Y-92.837
X201.386Y-93.753
X201.473Y-99.263
X201.676Y-130.683
X201.993Y-94.742
X202.166Y-135.237
X204.787Y-51.594
X204.787Y-115.094
X205.232Y-116.84
X205.613Y-132.588
X206.148Y-112.803
X206.756Y-113.792
X207.518Y-123.317
X207.772Y-130.048
X207.772Y-131.445
X209.55Y-57.944
X210.344Y-70.644
X210.911Y-55.653
X211.518Y-56.642
X211.931Y-127.794
X212.725Y-118.872
X212.725Y-136.271
X214.312Y-76.994
X215.106Y-89.694
X215.673Y-74.703
X216.281Y-75.692
X218.694Y-134.747
X219.075Y-96.044
X219.869Y-108.744
X220.396Y-98.755
X220.436Y-93.753
X221.043Y-94.742
X223.837Y-51.594
X223.837Y-115.094
X224.282Y-116.967
X225.198Y-112.803
X225.806Y-113.792
X226.695Y-123.698
X228.6Y-57.944
X229.394Y-70.644
X229.961Y-55.653
X230.505Y-130.683
X230.505Y-132.588
X230.505Y-134.112
X230.569Y-56.642
X233.362Y-76.994
X234.156Y-89.694
X234.723Y-74.703
X235.331Y-75.692
X236.601Y-48.514
X238.125Y-65.881
X238.125Y-96.044
X238.919Y-108.744
X239.344Y-98.349
X239.486Y-93.753
X240.093Y-94.742
X242.443Y-130.683
X242.443Y-132.588
X242.443Y-133.731
X242.887Y-84.931
X242.887Y-115.094
X243.459Y-117.348
X243.681Y-51.594
X243.723Y-74.873
X244.248Y-112.803
X244.856Y-113.792
X244.856Y-120.142
X247.65Y-103.981
X248.42Y-93.923
X249.011Y-55.653
X249.618Y-56.642
X249.682Y-57.658
X249.682Y-132.588
X249.682Y-134.112
X252.412Y-70.644
X255.587Y-89.694
X256.002Y-49.276
X258.445Y-76.994
X258.762Y-108.744
X260.858Y-96.044
X260.917Y-74.703
X261.525Y-75.692
X261.705Y-97.959
X261.938Y-128.588
X262.731Y-51.594
X263.017Y-125.984
X263.271Y-115.094
X263.33Y-93.753
X263.652Y-118.11
X263.938Y-94.742
X264.834Y-112.737
X265.743Y-112.803
X266.351Y-113.792
X266.7Y-134.874
X267.335Y-133.731
X267.399Y-132.842
X268.061Y-55.653
X268.605Y-57.658
X268.668Y-56.642
X269.113Y-130.683
X275.431Y-125.412
X276.352Y-132.207
X276.733Y-132.969
X277.114Y-133.731
X277.495Y-134.493
X278.892Y-113.157
X279.527Y-113.919
X280.162Y-114.681
X280.194Y-51.594
X280.194Y-70.644
X280.194Y-108.744
T2
X20.796Y-49.054
X23.177Y-68.104
X23.177Y-125.254
X25.559Y-87.154
X27.146Y-46.514
X27.94Y-106.204
X29.527Y-65.564
X29.527Y-122.714
X31.909Y-84.614
X34.29Y-103.664
X39.846Y-49.054
X44.609Y-68.104
X46.196Y-46.514
X46.99Y-125.254
X49.371Y-87.154
X50.959Y-65.564
X53.34Y-122.714
X54.134Y-106.204
X55.721Y-84.614
X58.896Y-49.054
X60.484Y-103.664
X63.659Y-68.104
X65.246Y-46.514
X68.421Y-87.154
X70.009Y-65.564
X70.802Y-125.254
X73.184Y-106.204
X73.184Y-125.254
X74.771Y-84.614
X77.153Y-122.714
X77.946Y-49.054
X79.534Y-103.664
X79.534Y-122.714
X82.709Y-68.104
X84.296Y-46.514
X87.471Y-87.154
X89.059Y-65.564
X92.234Y-106.204
X93.821Y-84.614
X96.996Y-49.054
X98.584Y-103.664
X101.759Y-68.104
X101.759Y-125.254
X103.346Y-46.514
X106.521Y-87.154
X108.109Y-65.564
X108.109Y-122.714
X111.284Y-106.204
X112.871Y-84.614
X116.046Y-49.054
X117.634Y-103.664
X120.809Y-68.104
X122.396Y-46.514
X125.571Y-87.154
X125.571Y-125.254
X127.159Y-65.564
X130.334Y-106.204
X131.921Y-84.614
X131.921Y-122.714
X135.096Y-49.054
X136.684Y-103.664
X139.859Y-68.104
X141.446Y-46.514
X142.24Y-125.254
X144.621Y-87.154
X144.621Y-125.254
X146.209Y-65.564
X148.59Y-122.714
X149.384Y-106.204
X150.971Y-84.614
X150.971Y-122.714
X154.146Y-49.054
X155.734Y-103.664
X158.909Y-68.104
X160.496Y-46.514
X163.671Y-87.154
X165.259Y-65.564
X168.434Y-106.204
X168.434Y-125.254
X170.021Y-84.614
X173.196Y-49.054
X174.784Y-103.664
X174.784Y-122.714
X177.959Y-68.104
X179.546Y-46.514
X182.721Y-87.154
X184.309Y-65.564
X187.484Y-106.204
X189.071Y-84.614
X192.246Y-49.054
X193.834Y-103.664
X194.627Y-125.254
X197.009Y-68.104
X198.596Y-46.514
X200.977Y-122.714
X201.771Y-87.154
X203.359Y-65.564
X206.534Y-106.204
X208.121Y-84.614
X211.295Y-125.253
X211.296Y-49.054
X212.884Y-103.664
X216.059Y-68.104
X217.645Y-122.713
X217.646Y-46.514
X218.44Y-125.254
X220.821Y-87.154
X222.409Y-65.564
X224.79Y-122.714
X225.584Y-106.204
X227.171Y-84.614
X230.345Y-125.253
X230.346Y-49.054
X231.934Y-103.664
X235.109Y-68.104
X236.695Y-122.713
X236.696Y-46.514
X239.871Y-87.154
X241.459Y-65.564
X242.252Y-125.254
X244.634Y-106.204
X246.221Y-84.614
X248.602Y-122.714
X249.395Y-125.254
X249.396Y-49.054
X250.984Y-103.664
X255.745Y-122.714
X255.746Y-46.514
X261.303Y-68.104
X263.684Y-87.154
X266.065Y-106.204
X266.065Y-125.254
X267.652Y-65.564
X268.446Y-49.054
X268.446Y-125.254
X270.034Y-84.614
X272.415Y-103.664
X272.415Y-122.714
X274.796Y-46.514
X274.796Y-122.714
T3
X161.417Y-125.476
T0
M30
