M48
; DRILL file {KiCad (6.0.5)} date Thu Jul 14 21:57:55 2022
; FORMAT={-:-/ absolute / inch / decimal}
; #@! TF.CreationDate,2022-07-14T21:57:55-04:00
; #@! TF.GenerationSoftware,Kicad,Pcbnew,(6.0.5)
; #@! TF.FileFunction,NonPlated,1,2,NPTH
FMAT,2
INCH
; #@! TA.AperFunction,NonPlated,NPTH,ComponentDrill
T1C0.0689
; #@! TA.AperFunction,NonPlated,NPTH,ComponentDrill
T2C0.1200
; #@! TA.AperFunction,NonPlated,NPTH,ComponentDrill
T3C0.1570
%
G90
G05
T1
X0.7687Y-2.0312
X0.8625Y-2.7812
X0.8625Y-5.0312
X0.9562Y-3.5312
X1.05Y-4.2812
X1.1687Y-2.0312
X1.2625Y-2.7812
X1.2625Y-5.0312
X1.3562Y-3.5312
X1.45Y-4.2812
X1.5188Y-2.0312
X1.7063Y-2.7812
X1.8Y-5.0312
X1.8938Y-3.5312
X1.9187Y-2.0312
X2.0812Y-4.2812
X2.1062Y-2.7812
X2.2Y-5.0312
X2.2687Y-2.0312
X2.2937Y-3.5312
X2.4562Y-2.7812
X2.4812Y-4.2812
X2.6437Y-3.5312
X2.6687Y-2.0312
X2.7375Y-5.0312
X2.8312Y-4.2812
X2.8312Y-5.0312
X2.8562Y-2.7812
X3.0187Y-2.0312
X3.0437Y-3.5312
X3.1375Y-5.0312
X3.2062Y-2.7812
X3.2312Y-4.2812
X3.2312Y-5.0312
X3.3937Y-3.5312
X3.4187Y-2.0312
X3.5812Y-4.2812
X3.6062Y-2.7812
X3.7687Y-2.0312
X3.7937Y-3.5312
X3.9562Y-2.7812
X3.9562Y-5.0312
X3.9812Y-4.2812
X4.1437Y-3.5312
X4.1688Y-2.0312
X4.3312Y-4.2812
X4.3563Y-2.7812
X4.3563Y-5.0312
X4.5187Y-2.0312
X4.5438Y-3.5312
X4.7062Y-2.7812
X4.7313Y-4.2812
X4.8937Y-3.5312
X4.8937Y-5.0312
X4.9188Y-2.0312
X5.0812Y-4.2812
X5.1063Y-2.7812
X5.2687Y-2.0312
X5.2938Y-3.5312
X5.2938Y-5.0312
X5.4562Y-2.7812
X5.4813Y-4.2812
X5.5499Y-5.0312
X5.6437Y-3.5312
X5.6437Y-5.0312
X5.6688Y-2.0312
X5.8312Y-4.2812
X5.8563Y-2.7812
X5.9499Y-5.0312
X6.0187Y-2.0312
X6.0438Y-3.5312
X6.0438Y-5.0312
X6.2062Y-2.7812
X6.2313Y-4.2812
X6.3937Y-3.5312
X6.4188Y-2.0312
X6.5812Y-4.2812
X6.5812Y-5.0312
X6.6063Y-2.7812
X6.7687Y-2.0312
X6.7938Y-3.5312
X6.9562Y-2.7812
X6.9813Y-4.2812
X6.9813Y-5.0312
X7.1437Y-3.5312
X7.1688Y-2.0312
X7.3312Y-4.2812
X7.3563Y-2.7812
X7.5187Y-2.0312
X7.5438Y-3.5312
X7.6125Y-5.0312
X7.7062Y-2.7812
X7.7313Y-4.2812
X7.8937Y-3.5312
X7.9188Y-2.0312
X8.0125Y-5.0312
X8.0812Y-4.2812
X8.1062Y-2.7812
X8.2687Y-5.0312
X8.2687Y-2.0312
X8.2937Y-3.5312
X8.4562Y-2.7812
X8.4812Y-4.2812
X8.55Y-5.0312
X8.6437Y-3.5312
X8.6687Y-5.0312
X8.6687Y-2.0312
X8.8312Y-4.2812
X8.8562Y-2.7812
X8.95Y-5.0312
X9.0187Y-5.0312
X9.0187Y-2.0312
X9.0437Y-3.5312
X9.2062Y-2.7812
X9.2312Y-4.2812
X9.3937Y-3.5312
X9.4187Y-5.0312
X9.4187Y-2.0312
X9.4875Y-5.0312
X9.5812Y-4.2812
X9.6062Y-2.7812
X9.7687Y-5.0312
X9.7687Y-2.0312
X9.7937Y-3.5312
X9.8875Y-5.0312
X9.9812Y-4.2812
X10.1687Y-5.0312
X10.1687Y-2.0312
X10.2375Y-2.7812
X10.3312Y-3.5312
X10.425Y-4.2812
X10.425Y-5.0312
X10.5187Y-2.0312
X10.5187Y-5.0312
X10.6375Y-2.7812
X10.7312Y-3.5312
X10.825Y-4.2812
X10.825Y-5.0312
X10.9187Y-2.0312
X10.9187Y-5.0312
T2
X3.7814Y-5.3062
X7.7184Y-5.3062
T3
X0.9688Y-2.0312
X1.0625Y-2.7812
X1.0625Y-5.0312
X1.1562Y-3.5312
X1.25Y-4.2812
X1.7188Y-2.0312
X1.9062Y-2.7812
X2.0Y-5.0312
X2.0938Y-3.5312
X2.2812Y-4.2812
X2.4688Y-2.0312
X2.6562Y-2.7812
X2.8438Y-3.5312
X2.9375Y-5.0312
X3.0312Y-4.2812
X3.0312Y-5.0312
X3.2188Y-2.0312
X3.4062Y-2.7812
X3.5938Y-3.5312
X3.7812Y-4.2812
X3.7814Y-4.7062
X3.9688Y-2.0312
X4.1562Y-2.7812
X4.1562Y-5.0312
X4.3438Y-3.5312
X4.5312Y-4.2812
X4.7188Y-2.0312
X4.9062Y-2.7812
X5.0938Y-3.5312
X5.0938Y-5.0312
X5.2812Y-4.2812
X5.4688Y-2.0312
X5.6562Y-2.7812
X5.7499Y-5.0312
X5.8438Y-3.5312
X5.8438Y-5.0312
X6.0312Y-4.2812
X6.2188Y-2.0312
X6.4062Y-2.7812
X6.5938Y-3.5312
X6.7812Y-4.2812
X6.7812Y-5.0312
X6.9688Y-2.0312
X7.1562Y-2.7812
X7.3438Y-3.5312
X7.5312Y-4.2812
X7.7184Y-4.7062
X7.7188Y-2.0312
X7.8125Y-5.0312
X7.9062Y-2.7812
X8.0938Y-3.5312
X8.2812Y-4.2812
X8.4687Y-5.0312
X8.4688Y-2.0312
X8.6562Y-2.7812
X8.75Y-5.0312
X8.8438Y-3.5312
X9.0312Y-4.2812
X9.2187Y-5.0312
X9.2188Y-2.0312
X9.4062Y-2.7812
X9.5938Y-3.5312
X9.6875Y-5.0312
X9.7812Y-4.2812
X9.9687Y-5.0312
X9.9688Y-2.0312
X10.4375Y-2.7812
X10.5312Y-3.5312
X10.625Y-4.2812
X10.625Y-5.0312
X10.7188Y-2.0312
X10.7188Y-5.0312
T0
M30
